<svg xmlns="http://www.w3.org/2000/svg" xmlns:xlink="http://www.w3.org/1999/xlink" width="388" zoomAndPan="magnify" viewBox="0 0 291 290.999983" height="388" preserveAspectRatio="xMidYMid meet" version="1.0"><defs><clipPath id="e24db2d436"><path d="M 0 100.257812 L 291 100.257812 L 291 152.988281 L 0 152.988281 Z M 0 100.257812 " clip-rule="nonzero"/></clipPath><clipPath id="e2ae2fd44a"><path d="M 243.859375 105.632812 L 291 105.632812 L 291 152.988281 L 243.859375 152.988281 Z M 243.859375 105.632812 " clip-rule="nonzero"/></clipPath><clipPath id="1663fba051"><path d="M 0 139.777344 L 23.570312 139.777344 L 23.570312 152.988281 L 0 152.988281 Z M 0 139.777344 " clip-rule="nonzero"/></clipPath></defs><path fill="#6db0a7" d="M 115.496094 94.421875 C 115.488281 95.300781 115.460938 96.183594 115.398438 97.066406 C 115.320312 98.40625 115.175781 99.746094 114.96875 101.074219 L 114.96875 101.082031 C 113.933594 107.691406 111.347656 114.035156 106.722656 118.792969 C 102.972656 122.65625 97.695312 125.949219 97.078125 131.289062 C 96.730469 134.316406 97.953125 137.765625 96.148438 140.226562 C 95.226562 141.488281 93.707031 142.148438 92.230469 142.683594 C 90.691406 143.242188 89.125 143.726562 87.515625 144.132812 C 80.59375 145.886719 72.9375 146.257812 63.515625 145.332031 C 63.203125 145.078125 62.890625 144.8125 62.578125 144.550781 C 51.597656 135.222656 44.195312 121.898438 41.640625 107.742188 C 40.917969 103.757812 40.585938 99.699219 40.664062 95.652344 C 40.703125 93.644531 40.835938 91.632812 41.082031 89.632812 C 42.199219 80.488281 45.332031 71.722656 47.078125 62.675781 C 47.179688 62.144531 47.273438 61.617188 47.355469 61.082031 L 47.355469 61.074219 C 49.386719 48.523438 46.953125 35.246094 43.167969 25.832031 C 42.609375 24.441406 43.460938 24.457031 44.941406 25.25 C 48.066406 26.929688 54 32.082031 55.453125 34.882812 C 58.726562 41.210938 59.828125 50.617188 62.019531 58.480469 C 63.484375 63.746094 64.953125 69.058594 65.277344 74.515625 C 65.800781 83.507812 60.394531 94.03125 59.554688 102.992188 C 58.722656 111.960938 62.941406 120.324219 69.734375 126.242188 C 69.585938 124.546875 69.472656 122.847656 69.398438 121.144531 C 69.234375 117.125 69.289062 113.097656 69.5625 109.078125 C 69.964844 103.183594 70.847656 97.3125 72.207031 91.550781 C 72.921875 88.5 73.777344 85.449219 74.335938 82.367188 C 74.765625 80.019531 75.019531 77.652344 74.921875 75.265625 C 74.730469 70.738281 73.261719 66.4375 71.832031 62.113281 C 71.003906 59.617188 70.1875 57.113281 69.640625 54.558594 C 67.546875 44.769531 69.40625 34.625 71.261719 24.789062 C 71.679688 22.5625 72.824219 20.238281 74.394531 17.972656 C 80.886719 8.554688 94.636719 -0.00390625 93.988281 2.253906 C 93.980469 2.289062 93.96875 2.320312 93.953125 2.355469 C 89.847656 12.378906 79.828125 27.453125 82.351562 39.652344 C 84.035156 47.765625 86.710938 55.683594 88.578125 62.878906 C 91.417969 73.792969 93.355469 85.335938 89.164062 95.8125 C 87.082031 101.027344 83.96875 105.816406 82.167969 111.136719 C 80.375 116.460938 80.101562 122.773438 83.4375 127.304688 C 84.90625 126 86.125 124.671875 87.191406 123.324219 C 88.449219 121.746094 89.484375 120.152344 90.449219 118.558594 C 93.4375 113.628906 95.730469 108.726562 101.589844 104.488281 C 101.828125 104.320312 102.054688 104.121094 102.277344 103.886719 C 107.183594 98.75 108.273438 79.035156 105.367188 63.5 C 104.957031 61.273438 107.664062 63.914062 109.878906 67.75 C 110.582031 68.96875 111.234375 70.308594 111.722656 71.652344 C 114.527344 79.398438 115.542969 85.570312 115.496094 94.421875 " fill-opacity="1" fill-rule="nonzero"/><path fill="#5fa69c" d="M 75.433594 139.519531 C 76.019531 139.152344 76.554688 138.554688 76.554688 137.90625 C 76.554688 137.441406 76.28125 136.949219 75.5625 136.496094 C 75.445312 136.421875 75.324219 136.34375 75.207031 136.269531 C 73.847656 135.417969 72.410156 134.582031 70.605469 134.234375 C 70.117188 134.136719 69.589844 134.085938 69.066406 134.085938 C 68.019531 134.085938 66.972656 134.28125 66.203125 134.679688 C 65.820312 134.878906 65.503906 135.125 65.292969 135.417969 C 65.15625 135.601562 65.066406 135.792969 65.007812 135.992188 C 63.710938 134.226562 62.21875 132.539062 60.15625 131.894531 C 59.359375 131.644531 58.519531 131.570312 57.683594 131.570312 C 57.605469 131.570312 57.527344 131.574219 57.453125 131.574219 C 55.867188 131.605469 53.6875 131.816406 51.609375 132.253906 C 46.640625 124.894531 43.214844 116.476562 41.640625 107.742188 C 41.679688 107.652344 41.734375 107.566406 41.808594 107.496094 C 42.027344 107.269531 42.300781 107.191406 42.605469 107.191406 C 43.082031 107.191406 43.625 107.382812 44.105469 107.5 C 44.410156 107.574219 44.71875 107.609375 45.023438 107.609375 C 46.300781 107.609375 47.558594 107.011719 48.53125 106.125 C 49.699219 111.0625 51.554688 115.839844 54.21875 120.15625 C 56.214844 123.09375 58.777344 125.613281 61.464844 127.925781 C 63 129.199219 64.609375 130.414062 66.433594 131.25 C 68.609375 132.28125 70.960938 132.855469 73.269531 133.496094 C 74.066406 133.710938 74.871094 133.910156 75.644531 134.199219 C 75.753906 134.234375 75.867188 134.273438 75.988281 134.3125 C 76 134.390625 76.011719 134.46875 76.023438 134.550781 C 76.167969 135.433594 76.441406 136.289062 76.921875 137.050781 C 77.605469 138.136719 78.617188 138.886719 79.785156 139.367188 C 78.335938 139.417969 76.882812 139.46875 75.433594 139.519531 M 75.605469 132.429688 C 71.359375 131.105469 67.570312 130.59375 64.164062 127.9375 C 61.628906 126.066406 57.660156 122.269531 55.855469 119.589844 C 54.09375 116.941406 53.003906 114.308594 52.007812 111.824219 C 51.066406 109.433594 50.433594 106.9375 49.878906 104.429688 C 50.617188 103.195312 51.074219 101.789062 51.496094 100.410156 C 54.851562 89.375 56.511719 77.640625 56.164062 66.066406 C 56.25 65.109375 56.292969 64.152344 56.277344 63.195312 C 56.535156 56.753906 55.757812 50.34375 54.042969 44.132812 C 53.410156 41.710938 52.71875 39.292969 51.679688 37.007812 C 50.453125 34.339844 48.929688 31.8125 47.351562 29.339844 C 47.113281 29 46.882812 28.65625 46.652344 28.308594 C 46.109375 27.277344 45.539062 26.257812 44.941406 25.25 C 48.066406 26.929688 54 32.082031 55.453125 34.882812 C 58.726562 41.210938 59.828125 50.617188 62.019531 58.480469 C 63.484375 63.746094 64.953125 69.058594 65.277344 74.515625 C 65.300781 74.929688 65.3125 75.34375 65.3125 75.765625 C 65.316406 84.46875 60.355469 94.441406 59.554688 102.992188 C 59.484375 103.746094 59.449219 104.492188 59.449219 105.238281 C 59.449219 113.347656 63.511719 120.820312 69.734375 126.242188 C 69.585938 124.546875 69.472656 122.847656 69.398438 121.144531 C 70.589844 119.164062 71.761719 117.15625 72.890625 115.125 C 72.730469 120.992188 73.636719 126.882812 75.605469 132.429688 M 92.042969 131.730469 C 91.84375 131.417969 91.597656 131.113281 91.292969 130.8125 C 91.148438 130.667969 91.003906 130.523438 90.855469 130.378906 C 90.558594 130.089844 90.261719 129.800781 89.957031 129.515625 C 91.457031 128.5 92.828125 127.304688 94.027344 125.960938 C 95.324219 124.40625 96.613281 122.824219 97.871094 121.210938 C 105.28125 116.242188 111.21875 109.164062 114.96875 101.082031 C 113.933594 107.691406 111.347656 114.035156 106.722656 118.792969 C 103.816406 121.785156 100 124.433594 98.136719 127.957031 C 96.125 128.835938 94.234375 130.027344 92.5 131.375 C 92.351562 131.488281 92.199219 131.609375 92.042969 131.730469 M 76.246094 128.914062 C 75.925781 127.773438 75.648438 126.625 75.425781 125.464844 C 74.875 122.46875 74.558594 120.367188 74.515625 117.164062 C 74.46875 115.636719 74.648438 113.335938 74.839844 111.511719 C 80 101.617188 83.9375 91.140625 84.257812 80.085938 C 84.722656 64.210938 77.632812 48.726562 78.804688 32.882812 C 79.527344 23.183594 83.574219 13.839844 89.898438 6.460938 C 90.46875 5.96875 91.054688 5.484375 91.660156 5.003906 L 91.65625 5.007812 C 91.808594 4.914062 92.058594 4.742188 92.117188 4.628906 C 92.296875 4.429688 92.332031 4.152344 92.261719 3.902344 C 92.820312 3.339844 93.398438 2.789062 93.988281 2.253906 C 93.980469 2.289062 93.96875 2.320312 93.953125 2.355469 C 90.296875 11.28125 81.949219 24.21875 81.949219 35.558594 C 81.949219 36.949219 82.078125 38.320312 82.351562 39.652344 C 84.035156 47.765625 86.710938 55.683594 88.578125 62.878906 C 90.238281 69.261719 91.589844 75.863281 91.589844 82.335938 C 91.585938 86.933594 90.902344 91.464844 89.164062 95.8125 C 87.082031 101.027344 83.96875 105.816406 82.167969 111.136719 C 81.359375 113.535156 80.859375 116.132812 80.859375 118.675781 C 80.859375 121.023438 81.285156 123.324219 82.28125 125.382812 C 82.15625 125.375 82.035156 125.375 81.914062 125.375 C 79.644531 125.375 77.386719 126.363281 76.457031 128.378906 C 76.375 128.554688 76.304688 128.730469 76.246094 128.914062 M 88.667969 128.355469 C 87.503906 127.371094 86.257812 126.511719 84.859375 125.957031 C 85.722656 125.089844 86.488281 124.210938 87.191406 123.324219 C 88.089844 123.871094 89.109375 124.101562 90.179688 124.101562 C 91.453125 124.101562 92.796875 123.773438 94.085938 123.265625 C 93.375 124.105469 92.660156 124.925781 91.949219 125.722656 C 90.769531 126.890625 89.847656 127.621094 88.667969 128.355469 " fill-opacity="1" fill-rule="nonzero"/><path fill="#7fbdb6" d="M 44.527344 99.382812 C 43.527344 99.382812 42.503906 98.828125 41.847656 98.042969 C 41.273438 97.351562 40.914062 96.519531 40.664062 95.652344 C 40.703125 93.644531 40.835938 91.632812 41.082031 89.632812 C 42.199219 80.488281 45.332031 71.722656 47.078125 62.675781 C 47.179688 62.144531 47.273438 61.617188 47.355469 61.082031 C 49.132812 65.722656 50.425781 70.542969 50.957031 75.480469 C 51.082031 76.671875 51.167969 77.867188 51.199219 79.066406 C 50.492188 81.113281 49.785156 83.160156 49.203125 85.246094 C 48.039062 89.164062 47.3125 93.246094 47.292969 97.339844 C 46.851562 98.125 46.300781 98.855469 45.484375 99.199219 C 45.175781 99.324219 44.855469 99.382812 44.527344 99.382812 M 49.308594 92.574219 C 49.582031 90.242188 50.175781 87.851562 50.90625 85.417969 C 50.605469 87.855469 50.078125 90.253906 49.308594 92.574219 " fill-opacity="1" fill-rule="nonzero"/><path fill="#7fbdb6" d="M 74.96875 63.628906 C 74.304688 63.628906 73.625 63.449219 73.054688 63.117188 C 72.589844 62.847656 72.1875 62.503906 71.832031 62.113281 C 71.003906 59.617188 70.1875 57.113281 69.640625 54.558594 C 68.980469 51.480469 68.714844 48.367188 68.714844 45.238281 C 68.714844 38.421875 69.988281 31.53125 71.261719 24.789062 C 71.679688 22.5625 72.824219 20.238281 74.394531 17.972656 C 74.789062 17.582031 75.191406 17.214844 75.601562 16.859375 C 76.144531 16.398438 76.804688 15.933594 77.496094 15.933594 C 77.605469 15.933594 77.71875 15.945312 77.832031 15.972656 C 78.453125 16.113281 78.832031 16.601562 79.035156 17.210938 C 78.722656 17.796875 78.425781 18.386719 78.144531 18.988281 C 76.433594 22.675781 75.0625 26.550781 74.585938 30.605469 C 74.484375 31.671875 74.414062 32.746094 74.375 33.820312 C 72.824219 41.941406 75.730469 50.4375 77.53125 58.636719 C 77.828125 59.996094 78.050781 61.558594 77.191406 62.652344 C 76.664062 63.324219 75.828125 63.628906 74.96875 63.628906 M 77.601562 24.886719 C 77.941406 23.808594 78.304688 22.78125 78.652344 21.9375 C 78.367188 22.9375 78 23.914062 77.601562 24.886719 " fill-opacity="1" fill-rule="nonzero"/><path fill="#7fbdb6" d="M 69.867188 109.128906 C 69.789062 109.128906 69.707031 109.117188 69.625 109.097656 C 69.601562 109.089844 69.578125 109.085938 69.5625 109.078125 C 69.964844 103.183594 70.847656 97.3125 72.207031 91.550781 C 72.921875 88.5 73.777344 85.449219 74.335938 82.367188 C 75.714844 82.445312 77.050781 83.195312 77.808594 84.347656 C 78.859375 85.957031 78.753906 88.035156 78.480469 89.933594 C 77.546875 96.394531 75.101562 102.628906 71.382812 108.003906 C 71.011719 108.542969 70.480469 109.128906 69.867188 109.128906 " fill-opacity="1" fill-rule="nonzero"/><path fill="#7fbdb6" d="M 91.847656 119.3125 C 91.527344 119.3125 91.21875 119.242188 90.941406 119.066406 C 90.730469 118.933594 90.566406 118.761719 90.449219 118.558594 C 93.4375 113.628906 95.730469 108.726562 101.589844 104.488281 C 101.828125 104.320312 102.054688 104.121094 102.277344 103.886719 C 103.082031 104.492188 103.582031 105.542969 103.636719 106.570312 C 103.714844 107.984375 103.128906 109.359375 102.425781 110.59375 C 100.394531 114.140625 97.273438 117.046875 93.582031 118.824219 C 93.046875 119.082031 92.429688 119.3125 91.847656 119.3125 " fill-opacity="1" fill-rule="nonzero"/><path fill="#7fbdb6" d="M 115.140625 97.089844 C 115.097656 97.089844 115.054688 97.085938 115.011719 97.082031 C 113.816406 96.980469 113.136719 95.691406 112.726562 94.5625 C 112.183594 93.039062 111.730469 91.496094 111.359375 89.9375 C 111.484375 87.273438 111.453125 84.597656 111.328125 81.945312 C 111.007812 78.621094 110.542969 75.304688 109.765625 72.054688 C 109.785156 70.621094 109.824219 69.183594 109.878906 67.75 C 110.582031 68.96875 111.234375 70.308594 111.722656 71.652344 C 114.460938 79.21875 115.496094 85.28125 115.496094 93.804688 C 115.496094 94.007812 115.496094 94.214844 115.496094 94.421875 C 115.488281 95.300781 115.460938 96.183594 115.398438 97.066406 C 115.3125 97.082031 115.226562 97.089844 115.140625 97.089844 " fill-opacity="1" fill-rule="nonzero"/><path fill="#3e8c7d" d="M 111.328125 81.945312 C 110.875 77.257812 110.132812 72.582031 108.640625 68.101562 C 108.324219 67.117188 107.957031 66.152344 107.625 65.171875 C 107.539062 64.855469 107.253906 64.59375 106.925781 64.574219 C 106.523438 64.492188 106.117188 64.785156 106.007812 65.171875 C 105.894531 65.679688 106.242188 66.164062 106.367188 66.648438 C 106.867188 68.050781 107.363281 69.457031 107.734375 70.898438 C 108.777344 74.78125 109.21875 77.738281 109.605469 81.464844 C 109.972656 88.433594 109.816406 94.667969 107.839844 101.089844 C 104.449219 109.992188 98.148438 118.804688 91.949219 125.722656 C 90.253906 127.402344 89.097656 128.167969 86.929688 129.355469 C 85.074219 130.429688 83.273438 130.882812 80.78125 131.25 C 79.664062 131.550781 78.433594 131.90625 77.4375 132.550781 C 77.308594 132.21875 77.164062 131.894531 77.082031 131.574219 C 76.390625 129.582031 75.828125 127.539062 75.425781 125.464844 C 74.875 122.46875 74.558594 120.367188 74.515625 117.164062 C 74.441406 114.820312 74.910156 110.664062 75.109375 109.183594 C 76.175781 102.234375 79.371094 95.855469 81.261719 89.125 C 82.367188 85.160156 83.027344 81.0625 82.996094 76.945312 C 83.023438 73.429688 82.40625 69.957031 81.84375 66.5 C 80.875 59.808594 78.511719 53.4375 77.101562 46.84375 C 76.097656 41.917969 75.800781 36.777344 76.179688 31.28125 C 76.335938 28.644531 77.929688 23.347656 79.078125 20.976562 C 81.960938 14.390625 86.007812 9.484375 91.660156 5.003906 L 91.65625 5.007812 C 91.808594 4.914062 92.058594 4.742188 92.117188 4.628906 C 92.496094 4.207031 92.230469 3.441406 91.679688 3.3125 C 90.878906 3.160156 90.332031 4.050781 89.710938 4.425781 C 88.523438 5.394531 87.390625 6.429688 86.304688 7.507812 C 82.972656 10.84375 80.148438 14.714844 78.144531 18.988281 C 76.433594 22.675781 75.0625 26.550781 74.585938 30.605469 C 74.054688 36.089844 74.386719 41.695312 75.445312 47.101562 C 76.773438 53.476562 79.070312 59.625 80.078125 66.074219 C 80.664062 69.761719 81.207031 72.308594 81.304688 75.949219 C 81.40625 80.53125 80.90625 83.972656 79.730469 88.371094 C 78.125 94.078125 75.6875 99.53125 74.179688 105.265625 C 72.046875 114.226562 72.527344 123.746094 75.605469 132.429688 C 71.359375 131.105469 67.570312 130.59375 64.164062 127.9375 C 61.628906 126.066406 57.660156 122.269531 55.855469 119.589844 C 54.09375 116.941406 53.003906 114.308594 52.007812 111.824219 C 50.941406 109.113281 50.273438 106.269531 49.664062 103.425781 C 48.914062 100.085938 48.765625 97 49.238281 93.226562 C 50.09375 83.867188 56.433594 73.539062 56.277344 63.195312 C 56.535156 56.753906 55.757812 50.34375 54.042969 44.132812 C 53.410156 41.710938 52.71875 39.292969 51.679688 37.007812 C 50.453125 34.339844 48.929688 31.8125 47.351562 29.339844 C 46.5625 28.21875 45.863281 27.039062 45.046875 25.9375 C 44.9375 25.75 44.757812 25.613281 44.546875 25.554688 C 43.859375 25.351562 43.207031 26.15625 43.601562 26.785156 C 46.617188 31.160156 49.734375 35.910156 51.210938 40.402344 C 53.070312 46.394531 54.382812 52.011719 54.582031 57.855469 C 54.691406 62.355469 54.667969 66.480469 53.796875 70.410156 C 52.707031 75.480469 50.59375 80.257812 49.203125 85.246094 C 47.875 89.722656 47.117188 94.414062 47.324219 99.089844 C 48.136719 106.464844 50.304688 113.8125 54.21875 120.15625 C 56.214844 123.09375 58.777344 125.613281 61.464844 127.925781 C 63 129.199219 64.609375 130.414062 66.433594 131.25 C 68.609375 132.28125 70.960938 132.855469 73.269531 133.496094 C 74.066406 133.710938 74.871094 133.910156 75.644531 134.199219 C 75.90625 134.285156 76.21875 134.398438 76.527344 134.449219 C 76.835938 134.734375 77.34375 134.816406 77.6875 134.449219 C 78.527344 133.738281 79.316406 133.378906 80.886719 132.941406 C 81.996094 132.679688 83.148438 132.605469 84.246094 132.285156 C 87.988281 131.101562 91.421875 128.886719 94.027344 125.960938 C 100.234375 118.519531 106.257812 110.492188 109.683594 100.839844 C 111.414062 94.71875 111.621094 88.269531 111.328125 81.945312 " fill-opacity="1" fill-rule="nonzero"/><g clip-path="url(#e24db2d436)"><path fill="#fed075" d="M 291 152.925781 C 274.4375 153.011719 258.890625 153 243.859375 152.945312 C 201.34375 152.792969 162.953125 152.3125 117.410156 152.8125 C 107.101562 152.921875 92.535156 152.835938 79.101562 152.75 C 66.707031 152.671875 55.277344 152.589844 49.054688 152.664062 C 40.34375 152.773438 31.824219 152.859375 23.101562 152.894531 C 16.042969 152.917969 8.847656 152.898438 1.308594 152.820312 C -1.792969 152.789062 1.074219 146.238281 5.191406 146.472656 C 5.71875 143.554688 7.65625 141.355469 10.214844 139.84375 C 12.820312 138.296875 16.058594 137.472656 19.082031 137.324219 C 21.09375 137.230469 23.601562 137.257812 26.105469 137.285156 C 27.429688 137.296875 28.753906 137.3125 30 137.308594 L 30.007812 137.308594 C 33.410156 137.296875 36.242188 137.160156 36.96875 136.515625 C 39.515625 134.277344 44.914062 132.484375 48.867188 133.78125 C 51.011719 134.484375 52.59375 136.269531 54.492188 137.480469 C 58.453125 140.019531 63.488281 139.941406 68.195312 139.777344 C 77.570312 139.445312 86.945312 139.117188 96.328125 138.789062 C 99.910156 138.664062 103.792969 138.425781 106.519531 136.097656 C 107.910156 134.910156 108.832031 133.304688 109.882812 131.796875 C 110.347656 131.132812 110.832031 130.480469 111.398438 129.894531 C 115.207031 125.933594 119.285156 129.8125 123.613281 133.691406 C 127.59375 137.261719 131.785156 140.835938 136.164062 138.292969 C 144.328125 133.546875 146.191406 120.039062 155.542969 118.675781 C 159.9375 118.035156 164.222656 120.6875 167.136719 124.039062 C 170.054688 127.394531 169.785156 132.5 174.640625 135.039062 C 178.238281 136.921875 182.207031 136.113281 186.039062 135.304688 C 190.023438 134.464844 193.859375 133.621094 196.976562 135.820312 C 198.855469 137.148438 200.8125 138.507812 203.082031 138.910156 C 206.640625 139.546875 210.117188 137.714844 213.296875 136.003906 C 225.535156 129.4375 239.390625 133.292969 252.484375 128.65625 C 258.289062 126.601562 263.300781 115.101562 267.558594 110.652344 C 271.515625 106.511719 274.710938 99.957031 280.425781 100.347656 C 283.585938 100.566406 285.730469 102.824219 287.128906 105.753906 C 288.210938 108.015625 288.847656 110.675781 289.164062 113.09375 C 290.703125 124.75 290.894531 141.171875 291 152.925781 " fill-opacity="1" fill-rule="nonzero"/></g><path fill="#edb951" d="M 125.398438 148.554688 C 126.234375 148.949219 127.117188 149.359375 128.242188 149.523438 C 129.367188 149.691406 130.804688 149.527344 131.296875 149.015625 C 131.488281 148.820312 131.519531 148.597656 131.527344 148.382812 C 131.546875 148.035156 131.503906 147.667969 131.113281 147.371094 C 130.4375 146.863281 128.964844 146.746094 127.707031 146.816406 C 126.898438 146.863281 126.0625 146.980469 125.480469 147.253906 C 124.898438 147.523438 124.398438 148.085938 125.398438 148.554688 " fill-opacity="1" fill-rule="nonzero"/><path fill="#edb951" d="M 139.066406 146.433594 C 138.226562 146.039062 137.34375 145.632812 136.21875 145.464844 C 135.09375 145.296875 133.65625 145.464844 133.164062 145.972656 C 132.972656 146.167969 132.941406 146.390625 132.933594 146.605469 C 132.914062 146.957031 132.957031 147.324219 133.347656 147.617188 C 134.023438 148.128906 135.492188 148.246094 136.753906 148.171875 C 137.5625 148.125 138.398438 148.011719 138.980469 147.738281 C 139.5625 147.464844 140.0625 146.90625 139.066406 146.433594 " fill-opacity="1" fill-rule="nonzero"/><path fill="#edb951" d="M 143.535156 149.503906 C 142.699219 149.109375 141.8125 148.699219 140.6875 148.535156 C 139.5625 148.367188 138.125 148.53125 137.632812 149.042969 C 137.445312 149.238281 137.410156 149.460938 137.402344 149.675781 C 137.386719 150.023438 137.429688 150.390625 137.816406 150.6875 C 138.492188 151.195312 139.964844 151.3125 141.222656 151.242188 C 142.035156 151.195312 142.867188 151.078125 143.449219 150.804688 C 144.03125 150.535156 144.53125 149.972656 143.535156 149.503906 " fill-opacity="1" fill-rule="nonzero"/><path fill="#edb951" d="M 146.0625 150.332031 C 147.3125 150.335938 148.632812 150.328125 150.195312 149.988281 C 151.761719 149.644531 153.640625 148.851562 154.144531 148.148438 C 154.339844 147.875 154.3125 147.652344 154.257812 147.441406 C 154.167969 147.105469 153.996094 146.773438 153.378906 146.667969 C 152.3125 146.484375 150.296875 147.027344 148.625 147.65625 C 147.550781 148.058594 146.464844 148.539062 145.769531 149.058594 C 145.070312 149.574219 144.574219 150.328125 146.0625 150.332031 " fill-opacity="1" fill-rule="nonzero"/><path fill="#edb951" d="M 148.558594 126.132812 C 148.390625 125.4375 147.367188 125.304688 147.023438 125.933594 C 146.753906 126.390625 146.277344 126.980469 146.722656 127.484375 C 147.042969 127.960938 147.832031 127.898438 148.101562 127.402344 C 148.3125 127.003906 148.699219 126.613281 148.558594 126.132812 " fill-opacity="1" fill-rule="nonzero"/><path fill="#edb951" d="M 148.921875 126.921875 C 148.613281 127.667969 147.519531 128.742188 148.507812 129.394531 C 149.445312 129.898438 149.84375 128.726562 150.199219 128.082031 C 150.292969 127.878906 150.457031 127.6875 150.46875 127.457031 C 150.640625 126.582031 149.339844 126.144531 148.921875 126.921875 " fill-opacity="1" fill-rule="nonzero"/><path fill="#edb951" d="M 147.484375 129.425781 C 147.316406 128.730469 146.296875 128.597656 145.953125 129.226562 C 145.207031 130.011719 145.792969 131.21875 146.863281 130.746094 C 147.234375 130.453125 147.613281 129.921875 147.484375 129.425781 " fill-opacity="1" fill-rule="nonzero"/><path fill="#edb951" d="M 147.765625 132.027344 C 147.125 132.96875 148.589844 133.90625 149.179688 132.933594 C 149.820312 131.988281 148.359375 131.054688 147.765625 132.027344 " fill-opacity="1" fill-rule="nonzero"/><path fill="#edb951" d="M 189.21875 137 C 188.207031 137.503906 189.042969 139.027344 190.019531 138.464844 C 191.027344 137.960938 190.195312 136.441406 189.21875 137 " fill-opacity="1" fill-rule="nonzero"/><path fill="#edb951" d="M 190.949219 138.527344 C 190.367188 138.984375 189.953125 139.726562 190.714844 140.242188 C 191.367188 140.671875 192.347656 139.765625 192.378906 139.121094 C 192.402344 138.398438 191.441406 138 190.949219 138.527344 " fill-opacity="1" fill-rule="nonzero"/><path fill="#edb951" d="M 188.242188 139.28125 C 187.148438 139.285156 187.152344 140.945312 188.242188 140.953125 C 189.339844 140.949219 189.335938 139.285156 188.242188 139.28125 " fill-opacity="1" fill-rule="nonzero"/><path fill="#edb951" d="M 186.066406 137.507812 C 184.902344 137.757812 185.199219 139.429688 186.378906 139.179688 C 187.542969 138.929688 187.246094 137.257812 186.066406 137.507812 " fill-opacity="1" fill-rule="nonzero"/><path fill="#edb951" d="M 227.285156 148.960938 C 227.019531 149.179688 226.664062 149.34375 226.578125 149.707031 C 226.359375 150.398438 227.195312 151.039062 227.808594 150.652344 C 228.074219 150.433594 228.433594 150.269531 228.519531 149.90625 C 228.734375 149.214844 227.902344 148.574219 227.285156 148.960938 " fill-opacity="1" fill-rule="nonzero"/><path fill="#edb951" d="M 229.265625 149.457031 C 228.222656 149.976562 229.007812 151.503906 230.03125 150.953125 C 231.074219 150.4375 230.289062 148.910156 229.265625 149.457031 " fill-opacity="1" fill-rule="nonzero"/><path fill="#edb951" d="M 232.359375 149.5625 C 231.160156 150.269531 232.136719 151.882812 233.230469 151.023438 C 234.425781 150.316406 233.453125 148.707031 232.359375 149.5625 " fill-opacity="1" fill-rule="nonzero"/><path fill="#edb951" d="M 230.71875 147.378906 C 229.625 147.382812 229.625 149.046875 230.71875 149.050781 C 231.8125 149.046875 231.808594 147.386719 230.71875 147.378906 " fill-opacity="1" fill-rule="nonzero"/><path fill="#edb951" d="M 235.5625 149.394531 C 234.46875 149.398438 234.472656 151.0625 235.5625 151.070312 C 236.660156 151.066406 236.65625 149.402344 235.5625 149.394531 " fill-opacity="1" fill-rule="nonzero"/><path fill="#edb951" d="M 257.214844 128.109375 C 256.5625 129.046875 258.03125 129.996094 258.621094 129.019531 C 259.277344 128.082031 257.808594 127.132812 257.214844 128.109375 " fill-opacity="1" fill-rule="nonzero"/><path fill="#edb951" d="M 260.054688 128.515625 C 259.382812 129.460938 260.835938 130.421875 261.449219 129.4375 C 262.125 128.492188 260.667969 127.53125 260.054688 128.515625 " fill-opacity="1" fill-rule="nonzero"/><path fill="#edb951" d="M 261.691406 124.5625 C 261.523438 123.867188 260.5 123.734375 260.15625 124.363281 C 259.699219 124.972656 259.433594 125.789062 260.339844 126.121094 C 260.902344 126.292969 261.296875 125.8125 261.515625 125.359375 C 261.675781 125.128906 261.773438 124.84375 261.691406 124.5625 " fill-opacity="1" fill-rule="nonzero"/><path fill="#edb951" d="M 262.300781 120.910156 C 261.207031 120.914062 261.207031 122.578125 262.300781 122.585938 C 263.398438 122.582031 263.394531 120.917969 262.300781 120.910156 " fill-opacity="1" fill-rule="nonzero"/><path fill="#edb951" d="M 39.515625 137.0625 C 38.421875 137.066406 38.425781 138.730469 39.515625 138.738281 C 40.613281 138.734375 40.609375 137.070312 39.515625 137.0625 " fill-opacity="1" fill-rule="nonzero"/><path fill="#edb951" d="M 41.078125 138.742188 C 39.988281 139.488281 40.996094 141.003906 42.027344 140.164062 C 43.117188 139.421875 42.113281 137.902344 41.078125 138.742188 " fill-opacity="1" fill-rule="nonzero"/><path fill="#edb951" d="M 37.128906 139.582031 C 36.257812 140.316406 37.453125 141.601562 38.261719 140.808594 C 39.132812 140.070312 37.941406 138.785156 37.128906 139.582031 " fill-opacity="1" fill-rule="nonzero"/><path fill="#edb951" d="M 34.730469 138.738281 C 33.636719 138.742188 33.636719 140.40625 34.730469 140.410156 C 35.824219 140.40625 35.824219 138.746094 34.730469 138.738281 " fill-opacity="1" fill-rule="nonzero"/><path fill="#edb951" d="M 8.425781 144.777344 C 7.328125 144.78125 7.332031 146.445312 8.425781 146.453125 C 9.519531 146.449219 9.519531 144.785156 8.425781 144.777344 " fill-opacity="1" fill-rule="nonzero"/><path fill="#edb951" d="M 9.691406 143.859375 C 8.855469 144.640625 10 145.871094 10.835938 145.089844 C 11.667969 144.308594 10.523438 143.078125 9.691406 143.859375 " fill-opacity="1" fill-rule="nonzero"/><path fill="#edb951" d="M 10.9375 146.171875 C 9.84375 146.175781 9.847656 147.839844 10.941406 147.847656 C 12.035156 147.84375 12.03125 146.179688 10.9375 146.171875 " fill-opacity="1" fill-rule="nonzero"/><path fill="#edb951" d="M 8.144531 147.570312 C 7.050781 147.570312 7.050781 149.234375 8.144531 149.242188 C 9.242188 149.238281 9.238281 147.578125 8.144531 147.570312 " fill-opacity="1" fill-rule="nonzero"/><path fill="#fec65b" d="M 34.980469 151.542969 C 33.988281 151.542969 32.996094 151.449219 32.007812 151.332031 C 31.523438 151.273438 31.027344 151.207031 30.589844 150.992188 C 30.152344 150.773438 29.777344 150.375 29.714844 149.890625 C 29.699219 149.78125 29.703125 149.671875 29.71875 149.566406 C 29.933594 149.625 30.164062 149.648438 30.382812 149.664062 C 30.964844 149.703125 31.546875 149.726562 32.125 149.726562 C 34.347656 149.726562 36.566406 149.425781 38.707031 148.828125 C 38.71875 148.792969 38.726562 148.75 38.738281 148.714844 C 38.8125 148.460938 38.847656 148.203125 38.855469 147.949219 C 39.570312 148.15625 40.214844 148.496094 40.675781 149.070312 C 40.761719 149.179688 40.84375 149.304688 40.847656 149.445312 C 40.859375 149.675781 40.664062 149.855469 40.480469 149.992188 C 39.304688 150.867188 37.851562 151.316406 36.394531 151.472656 C 35.925781 151.523438 35.453125 151.542969 34.980469 151.542969 " fill-opacity="1" fill-rule="nonzero"/><path fill="#c7c7c7" d="M 47.699219 133.492188 C 47.269531 133.417969 46.828125 133.371094 46.382812 133.355469 C 46.546875 133.347656 46.710938 133.34375 46.875 133.34375 C 47.226562 133.34375 47.574219 133.359375 47.917969 133.390625 C 47.84375 133.421875 47.769531 133.457031 47.699219 133.492188 " fill-opacity="1" fill-rule="nonzero"/><path fill="#fec65b" d="M 62.242188 147.085938 C 58.894531 147.085938 55.46875 145.976562 52.828125 144.082031 C 51.375 143.039062 50.226562 141.628906 48.703125 140.675781 C 47.824219 140.125 46.734375 139.761719 45.695312 139.761719 C 44.9375 139.761719 44.203125 139.960938 43.605469 140.421875 C 43.011719 140.890625 42.613281 141.566406 41.96875 141.96875 C 41.242188 142.421875 40.324219 142.453125 39.460938 142.464844 C 35.457031 142.539062 31.457031 142.609375 27.449219 142.675781 C 27.339844 142.679688 27.226562 142.679688 27.117188 142.679688 C 26.410156 142.679688 25.683594 142.613281 25.167969 142.167969 C 24.21875 141.359375 24.625 139.769531 25.59375 138.996094 C 26.5625 138.214844 27.878906 137.988281 29.101562 137.660156 C 29.488281 137.558594 29.867188 137.441406 30.242188 137.308594 L 30.246094 137.308594 C 33.804688 137.296875 36.761719 137.160156 37.523438 136.515625 C 39.46875 134.882812 43.007812 133.480469 46.382812 133.355469 C 46.828125 133.371094 47.269531 133.417969 47.699219 133.492188 C 46.28125 134.171875 45.324219 135.050781 45.328125 136.160156 C 45.328125 136.5 45.417969 136.863281 45.613281 137.25 C 47.320312 140.605469 53.460938 142.710938 59.023438 142.710938 C 60.964844 142.710938 62.832031 142.453125 64.417969 141.90625 C 64.6875 141.816406 64.96875 141.707031 65.230469 141.570312 C 65.875 141.246094 66.453125 140.796875 66.6875 140.128906 C 66.703125 140.082031 66.714844 140.035156 66.730469 139.988281 C 67.742188 140.425781 69.066406 140.601562 70.371094 140.601562 C 70.765625 140.601562 71.160156 140.585938 71.539062 140.554688 C 72.894531 140.449219 74.296875 140.191406 75.300781 139.601562 C 76.859375 139.550781 78.417969 139.496094 79.980469 139.445312 C 81.152344 139.894531 82.476562 140.082031 83.78125 140.082031 C 84.355469 140.082031 84.925781 140.046875 85.476562 139.980469 C 86.273438 139.882812 87.074219 139.730469 87.84375 139.5 C 89.226562 140.550781 93.253906 141.109375 98.058594 141.109375 C 104.511719 141.109375 112.359375 140.097656 117.066406 137.910156 C 117.398438 137.75 117.753906 137.558594 117.855469 137.214844 C 117.882812 137.140625 117.894531 137.066406 117.894531 136.988281 C 117.894531 136.769531 117.804688 136.546875 117.71875 136.339844 C 117.699219 136.292969 117.683594 136.25 117.664062 136.207031 C 117.675781 136.210938 117.6875 136.21875 117.695312 136.226562 C 119.691406 137.503906 122.734375 137.957031 123.3125 140.1875 C 123.703125 141.683594 122.59375 143.230469 121.167969 143.945312 C 119.746094 144.652344 118.074219 144.726562 116.46875 144.78125 C 110.972656 144.972656 103.703125 146.570312 98.445312 146.570312 C 96.316406 146.570312 94.519531 146.308594 93.304688 145.585938 C 92.117188 144.875 90.847656 144.628906 89.53125 144.628906 C 86.441406 144.628906 83.082031 146 79.878906 146.054688 C 79.738281 146.054688 79.597656 146.054688 79.460938 146.054688 C 78.1875 146.054688 76.964844 145.964844 75.75 145.875 C 74.535156 145.785156 73.324219 145.695312 72.066406 145.695312 C 70.253906 145.695312 68.347656 145.882812 66.1875 146.527344 C 64.921875 146.90625 63.585938 147.085938 62.242188 147.085938 M 37.699219 139.328125 C 37.507812 139.328125 37.308594 139.402344 37.128906 139.582031 C 36.453125 140.152344 37.023438 141.058594 37.691406 141.058594 C 37.882812 141.058594 38.082031 140.984375 38.261719 140.808594 C 38.9375 140.234375 38.367188 139.328125 37.699219 139.328125 M 34.730469 138.738281 C 33.636719 138.742188 33.636719 140.40625 34.730469 140.410156 C 35.824219 140.40625 35.824219 138.746094 34.730469 138.738281 M 41.699219 138.496094 C 41.503906 138.496094 41.292969 138.570312 41.078125 138.742188 C 40.214844 139.332031 40.667969 140.410156 41.410156 140.410156 C 41.601562 140.410156 41.8125 140.335938 42.027344 140.164062 C 42.890625 139.574219 42.4375 138.496094 41.699219 138.496094 M 39.515625 137.0625 C 38.421875 137.066406 38.425781 138.730469 39.515625 138.738281 C 40.613281 138.734375 40.609375 137.070312 39.515625 137.0625 " fill-opacity="1" fill-rule="nonzero"/><path fill="#e9aa3f" d="M 39.515625 138.738281 C 38.425781 138.730469 38.421875 137.066406 39.515625 137.0625 C 40.609375 137.070312 40.613281 138.734375 39.515625 138.738281 " fill-opacity="1" fill-rule="nonzero"/><path fill="#e9aa3f" d="M 41.410156 140.410156 C 40.667969 140.410156 40.214844 139.332031 41.078125 138.742188 C 41.292969 138.570312 41.503906 138.496094 41.699219 138.496094 C 42.4375 138.496094 42.890625 139.574219 42.027344 140.164062 C 41.8125 140.335938 41.601562 140.410156 41.410156 140.410156 " fill-opacity="1" fill-rule="nonzero"/><path fill="#e9aa3f" d="M 37.691406 141.058594 C 37.023438 141.058594 36.453125 140.152344 37.128906 139.582031 C 37.308594 139.402344 37.507812 139.328125 37.699219 139.328125 C 38.367188 139.328125 38.9375 140.234375 38.261719 140.808594 C 38.082031 140.984375 37.882812 141.058594 37.691406 141.058594 " fill-opacity="1" fill-rule="nonzero"/><path fill="#e9aa3f" d="M 34.730469 140.410156 C 33.636719 140.40625 33.636719 138.742188 34.730469 138.738281 C 35.824219 138.746094 35.824219 140.40625 34.730469 140.410156 " fill-opacity="1" fill-rule="nonzero"/><path fill="#fec65b" d="M 189.097656 150.789062 C 183.890625 150.789062 178.652344 150.34375 173.460938 149.894531 C 169.925781 149.589844 166.390625 149.285156 162.855469 148.980469 C 162.363281 148.9375 161.851562 148.886719 161.441406 148.617188 C 160.398438 147.933594 160.683594 146.191406 161.667969 145.425781 C 162.652344 144.664062 164 144.601562 165.246094 144.597656 C 165.347656 144.597656 165.449219 144.597656 165.550781 144.597656 C 173.164062 144.597656 180.777344 145.476562 188.1875 147.207031 C 190.96875 146.207031 193.546875 145.949219 195.984375 145.949219 C 197.285156 145.949219 198.542969 146.023438 199.773438 146.097656 C 201 146.171875 202.195312 146.246094 203.363281 146.246094 C 203.683594 146.246094 204 146.238281 204.316406 146.226562 C 210.46875 145.984375 216.785156 143.054688 222.691406 143.054688 C 224.691406 143.054688 226.640625 143.386719 228.523438 144.277344 C 225.867188 147.429688 221.761719 149.296875 217.640625 149.296875 C 217.1875 149.296875 216.730469 149.273438 216.277344 149.226562 C 214.554688 149.050781 212.871094 148.558594 211.144531 148.414062 C 210.75 148.378906 210.355469 148.363281 209.957031 148.363281 C 207.136719 148.363281 204.34375 149.148438 201.558594 149.695312 C 197.449219 150.503906 193.285156 150.789062 189.097656 150.789062 " fill-opacity="1" fill-rule="nonzero"/><g clip-path="url(#e2ae2fd44a)"><path fill="#fec65b" d="M 266.390625 152.988281 C 258.714844 152.988281 251.230469 152.972656 243.859375 152.945312 C 251.296875 150.011719 258.550781 146.605469 265.5625 142.753906 C 270.269531 140.171875 274.996094 137.269531 278.164062 132.941406 C 281.21875 128.761719 282.566406 123.609375 283.847656 118.59375 C 284.9375 114.3125 286.03125 110.035156 287.128906 105.753906 C 288.210938 108.015625 288.847656 110.675781 289.164062 113.09375 C 290.703125 124.75 290.894531 141.171875 291 152.925781 C 282.554688 152.972656 274.371094 152.988281 266.390625 152.988281 " fill-opacity="1" fill-rule="nonzero"/></g><g clip-path="url(#1663fba051)"><path fill="#fec65b" d="M 17.449219 152.902344 C 12.199219 152.902344 6.847656 152.878906 1.308594 152.820312 C 0.398438 152.8125 0 152.238281 0 151.445312 C 0 149.574219 2.171875 146.464844 4.976562 146.464844 C 5.046875 146.464844 5.121094 146.46875 5.191406 146.472656 C 5.71875 143.554688 7.65625 141.355469 10.214844 139.84375 C 10.886719 140.050781 11.535156 140.300781 12.164062 140.601562 C 14.214844 141.589844 16.042969 143.257812 16.695312 145.433594 C 17.070312 146.683594 17.082031 148.125 17.964844 149.089844 C 19.453125 150.722656 22.808594 150.289062 23.46875 152.402344 C 23.355469 152.582031 23.234375 152.742188 23.101562 152.894531 C 21.226562 152.898438 19.34375 152.902344 17.449219 152.902344 M 8.144531 147.570312 C 7.050781 147.570312 7.050781 149.234375 8.144531 149.242188 C 9.242188 149.238281 9.238281 147.578125 8.144531 147.570312 M 10.9375 146.171875 C 9.84375 146.175781 9.847656 147.839844 10.941406 147.847656 C 12.035156 147.84375 12.03125 146.179688 10.9375 146.171875 M 8.425781 144.777344 C 7.328125 144.78125 7.332031 146.445312 8.425781 146.453125 C 9.519531 146.449219 9.519531 144.785156 8.425781 144.777344 M 10.273438 143.609375 C 10.078125 143.609375 9.875 143.683594 9.691406 143.859375 C 9.042969 144.464844 9.585938 145.339844 10.25 145.339844 C 10.445312 145.339844 10.644531 145.265625 10.835938 145.089844 C 11.480469 144.484375 10.9375 143.609375 10.273438 143.609375 " fill-opacity="1" fill-rule="nonzero"/></g><path fill="#e9aa3f" d="M 8.425781 146.453125 C 7.332031 146.445312 7.328125 144.78125 8.425781 144.777344 C 9.519531 144.785156 9.519531 146.449219 8.425781 146.453125 " fill-opacity="1" fill-rule="nonzero"/><path fill="#e9aa3f" d="M 10.25 145.339844 C 9.585938 145.339844 9.042969 144.464844 9.691406 143.859375 C 9.875 143.683594 10.078125 143.609375 10.273438 143.609375 C 10.9375 143.609375 11.480469 144.484375 10.835938 145.089844 C 10.644531 145.265625 10.445312 145.339844 10.25 145.339844 " fill-opacity="1" fill-rule="nonzero"/><path fill="#e9aa3f" d="M 10.941406 147.847656 C 9.847656 147.839844 9.84375 146.175781 10.9375 146.171875 C 12.03125 146.179688 12.035156 147.84375 10.941406 147.847656 " fill-opacity="1" fill-rule="nonzero"/><path fill="#e9aa3f" d="M 8.144531 149.242188 C 7.050781 149.234375 7.050781 147.570312 8.144531 147.570312 C 9.238281 147.578125 9.242188 149.238281 8.144531 149.242188 " fill-opacity="1" fill-rule="nonzero"/><path fill="#949082" d="M 38.738281 148.714844 C 38.726562 148.75 38.71875 148.792969 38.707031 148.828125 C 36.007812 149.582031 33.179688 149.859375 30.382812 149.664062 C 29.9375 149.628906 29.457031 149.566406 29.140625 149.25 C 28.886719 149.003906 28.632812 148.332031 29.265625 147.46875 C 29.429688 147.25 29.640625 147.023438 29.925781 146.789062 C 31.324219 145.632812 31.902344 143.308594 33.699219 143.066406 C 34.316406 142.984375 34.929688 143.199219 35.492188 143.457031 C 37.53125 144.402344 39.34375 146.578125 38.738281 148.714844 " fill-opacity="1" fill-rule="nonzero"/><path fill="#847f6f" d="M 32.125 149.726562 C 31.546875 149.726562 30.964844 149.703125 30.382812 149.664062 C 29.9375 149.628906 29.457031 149.566406 29.140625 149.25 C 29.003906 149.117188 28.867188 148.867188 28.867188 148.527344 C 28.867188 148.230469 28.972656 147.871094 29.265625 147.46875 C 29.320312 147.882812 29.546875 148.292969 29.867188 148.546875 C 30.492188 149.046875 31.351562 149.121094 32.15625 149.15625 C 32.566406 149.171875 32.976562 149.179688 33.386719 149.179688 C 35.175781 149.179688 36.96875 149.023438 38.738281 148.714844 C 38.726562 148.75 38.71875 148.792969 38.707031 148.828125 C 36.566406 149.425781 34.347656 149.726562 32.125 149.726562 " fill-opacity="1" fill-rule="nonzero"/><path fill="#9f9b8f" d="M 35.25 147.117188 C 34.449219 147.117188 33.625 146.820312 32.910156 146.4375 C 32.777344 146.367188 32.640625 146.28125 32.59375 146.140625 C 32.5625 146.03125 32.59375 145.914062 32.625 145.804688 C 32.734375 145.421875 32.859375 145.011719 33.167969 144.761719 C 33.425781 144.550781 33.757812 144.492188 34.097656 144.492188 C 34.292969 144.492188 34.492188 144.511719 34.683594 144.53125 C 35.757812 144.65625 36.253906 145.175781 36.601562 145.707031 C 36.777344 145.980469 36.910156 146.347656 36.730469 146.617188 C 36.644531 146.742188 36.511719 146.820312 36.375 146.882812 C 36.015625 147.046875 35.636719 147.117188 35.25 147.117188 " fill-opacity="1" fill-rule="nonzero"/><path fill="#949082" d="M 75.414062 139.535156 C 74.402344 140.171875 72.949219 140.445312 71.539062 140.554688 C 69.351562 140.726562 66.789062 140.445312 65.613281 139.257812 C 64.933594 138.566406 64.859375 137.710938 64.886719 136.902344 C 64.902344 136.394531 64.957031 135.871094 65.292969 135.417969 C 65.503906 135.125 65.820312 134.878906 66.203125 134.679688 C 67.359375 134.082031 69.136719 133.9375 70.605469 134.234375 C 72.410156 134.582031 73.847656 135.417969 75.207031 136.269531 C 75.324219 136.34375 75.445312 136.421875 75.5625 136.496094 C 77.300781 137.59375 76.429688 138.902344 75.414062 139.535156 " fill-opacity="1" fill-rule="nonzero"/><path fill="#8a8677" d="M 70.371094 140.601562 C 69.066406 140.601562 67.742188 140.425781 66.730469 139.988281 C 67 138.9375 66.332031 137.847656 65.691406 136.941406 C 65.46875 136.625 65.242188 136.304688 65.007812 135.992188 C 65.066406 135.792969 65.15625 135.601562 65.292969 135.417969 C 65.503906 135.125 65.820312 134.878906 66.203125 134.679688 C 67.625 135.808594 68.347656 137.785156 67.90625 139.546875 C 68.941406 139.78125 70 139.898438 71.058594 139.898438 C 72.054688 139.898438 73.046875 139.792969 74.019531 139.589844 C 74.773438 139.429688 75.550781 139.183594 76.078125 138.628906 C 76.195312 138.503906 76.304688 138.328125 76.242188 138.167969 C 76.207031 138.074219 76.121094 138.011719 76.035156 137.949219 C 75.527344 137.550781 75.226562 136.914062 75.207031 136.269531 C 75.324219 136.34375 75.445312 136.421875 75.5625 136.496094 C 76.28125 136.949219 76.554688 137.441406 76.554688 137.90625 C 76.554688 138.5625 76.007812 139.164062 75.414062 139.535156 C 74.402344 140.171875 72.949219 140.445312 71.539062 140.554688 C 71.160156 140.585938 70.765625 140.601562 70.371094 140.601562 " fill-opacity="1" fill-rule="nonzero"/><path fill="#9a9789" d="M 71.113281 137.644531 C 70.871094 137.644531 70.625 137.601562 70.394531 137.535156 C 70 137.417969 69.613281 137.230469 69.363281 136.90625 C 69.109375 136.585938 69.019531 136.113281 69.226562 135.761719 C 69.417969 135.441406 69.8125 135.28125 70.1875 135.277344 C 70.195312 135.277344 70.203125 135.277344 70.210938 135.277344 C 70.578125 135.277344 70.933594 135.394531 71.28125 135.515625 C 72.742188 136.007812 72.441406 137.074219 71.988281 137.394531 C 71.734375 137.574219 71.429688 137.644531 71.113281 137.644531 " fill-opacity="1" fill-rule="nonzero"/><path fill="#858072" d="M 66.6875 140.128906 C 66.453125 140.796875 65.875 141.246094 65.230469 141.570312 C 64.96875 141.707031 64.6875 141.816406 64.417969 141.90625 C 58.28125 144.023438 47.914062 141.777344 45.613281 137.25 C 44.523438 135.105469 46.683594 133.65625 49.625 132.757812 C 52.191406 131.976562 55.351562 131.613281 57.453125 131.574219 C 58.363281 131.558594 59.285156 131.621094 60.15625 131.894531 C 62.585938 132.65625 64.226562 134.863281 65.691406 136.941406 C 66.363281 137.886719 67.0625 139.039062 66.6875 140.128906 " fill-opacity="1" fill-rule="nonzero"/><path fill="#7c776a" d="M 59.023438 142.710938 C 53.460938 142.710938 47.320312 140.605469 45.613281 137.25 C 45.417969 136.863281 45.328125 136.5 45.328125 136.160156 C 45.324219 134.601562 47.214844 133.496094 49.625 132.757812 C 49.542969 133.210938 49.542969 133.679688 49.617188 134.125 C 49.878906 135.625 50.867188 136.902344 51.984375 137.929688 C 54.792969 140.507812 58.613281 141.804688 62.433594 141.804688 C 63.371094 141.804688 64.308594 141.726562 65.230469 141.570312 C 64.96875 141.707031 64.6875 141.816406 64.417969 141.90625 C 62.832031 142.453125 60.964844 142.710938 59.023438 142.710938 " fill-opacity="1" fill-rule="nonzero"/><path fill="#8c8779" d="M 60.980469 137.679688 C 60.925781 137.679688 60.871094 137.679688 60.8125 137.675781 C 59.898438 137.636719 58.941406 137.511719 58.195312 136.976562 C 57.902344 136.765625 57.652344 136.5 57.40625 136.234375 C 56.714844 135.492188 55.972656 134.613281 56.082031 133.605469 C 56.109375 133.34375 56.203125 133.078125 56.40625 132.917969 C 56.523438 132.824219 56.667969 132.773438 56.816406 132.734375 C 57.039062 132.679688 57.265625 132.652344 57.496094 132.652344 C 58.273438 132.652344 59.058594 132.941406 59.796875 133.226562 C 61.875 134.03125 62.246094 135.636719 61.992188 136.761719 C 61.910156 137.121094 61.71875 137.492188 61.371094 137.621094 C 61.246094 137.667969 61.113281 137.679688 60.980469 137.679688 " fill-opacity="1" fill-rule="nonzero"/><path fill="#858072" d="M 91.082031 137.683594 C 89.609375 139.121094 87.515625 139.730469 85.476562 139.980469 C 82.320312 140.363281 78.617188 139.746094 76.921875 137.050781 C 76.441406 136.289062 76.167969 135.433594 76.023438 134.550781 C 75.871094 133.625 75.851562 132.664062 75.871094 131.722656 C 75.898438 130.585938 75.976562 129.414062 76.457031 128.378906 C 77.699219 125.691406 81.304688 124.828125 84.140625 125.703125 C 86.773438 126.511719 88.875 128.441406 90.855469 130.378906 C 91.003906 130.523438 91.148438 130.667969 91.292969 130.8125 C 93.796875 133.292969 92.542969 136.25 91.082031 137.683594 " fill-opacity="1" fill-rule="nonzero"/><path fill="#7c776a" d="M 83.78125 140.082031 C 81.082031 140.082031 78.320312 139.273438 76.921875 137.050781 C 76.441406 136.289062 76.167969 135.433594 76.023438 134.550781 C 77.285156 135.207031 78.425781 136.085938 79.386719 137.132812 C 79.664062 137.433594 79.929688 137.75 80.300781 137.914062 C 80.546875 138.027344 80.816406 138.058594 81.085938 138.058594 C 81.234375 138.058594 81.378906 138.046875 81.523438 138.039062 C 82.957031 137.957031 84.398438 137.875 85.835938 137.800781 C 85.65625 136.367188 86.144531 134.90625 86.96875 133.71875 C 87.792969 132.535156 88.929688 131.601562 90.140625 130.8125 C 90.371094 130.660156 90.613281 130.515625 90.855469 130.378906 C 91.003906 130.523438 91.148438 130.667969 91.292969 130.8125 C 91.597656 131.113281 91.84375 131.417969 92.042969 131.730469 C 90.390625 133.007812 88.40625 134.570312 87.59375 136.3125 C 87.34375 136.828125 87.203125 137.359375 87.203125 137.902344 C 87.203125 138.234375 87.257812 138.570312 87.371094 138.910156 C 87.445312 139.121094 87.605469 139.316406 87.84375 139.5 C 87.074219 139.730469 86.273438 139.882812 85.476562 139.980469 C 84.925781 140.046875 84.355469 140.082031 83.78125 140.082031 " fill-opacity="1" fill-rule="nonzero"/><path fill="#8c8779" d="M 80.996094 133.582031 C 80.855469 133.582031 80.714844 133.5625 80.582031 133.515625 C 80.175781 133.375 79.886719 133.011719 79.671875 132.640625 C 79.046875 131.582031 78.800781 130.308594 78.984375 129.09375 C 79.066406 128.542969 79.242188 127.996094 79.582031 127.558594 C 80.015625 127.003906 80.71875 126.671875 81.421875 126.671875 C 81.515625 126.671875 81.609375 126.675781 81.703125 126.691406 C 83.429688 126.914062 83.757812 127.234375 84.09375 127.492188 C 84.359375 127.695312 84.632812 127.902344 84.816406 128.179688 C 85.167969 128.707031 85.144531 129.414062 84.917969 130.003906 C 84.691406 130.589844 84.285156 131.09375 83.886719 131.582031 C 83.226562 132.386719 82.5 133.234375 81.496094 133.511719 C 81.335938 133.554688 81.164062 133.582031 80.996094 133.582031 " fill-opacity="1" fill-rule="nonzero"/><path fill="#949082" d="M 117.855469 137.214844 C 117.753906 137.558594 117.398438 137.75 117.066406 137.910156 C 108.25 142.007812 88.410156 141.972656 87.371094 138.910156 C 87.070312 138.011719 87.195312 137.140625 87.59375 136.3125 C 88.484375 134.40625 90.777344 132.710938 92.5 131.375 C 95.425781 129.105469 98.789062 127.265625 102.441406 126.648438 C 106.101562 126.035156 110.085938 126.761719 112.949219 129.113281 C 113.746094 129.769531 114.429688 130.53125 115.042969 131.355469 C 116.15625 132.863281 116.992188 134.597656 117.71875 136.339844 C 117.835938 136.621094 117.953125 136.929688 117.855469 137.214844 " fill-opacity="1" fill-rule="nonzero"/><path fill="#878373" d="M 98.058594 141.109375 C 93.253906 141.109375 89.226562 140.550781 87.84375 139.5 C 87.605469 139.316406 87.445312 139.121094 87.371094 138.910156 C 87.257812 138.570312 87.203125 138.234375 87.203125 137.902344 C 87.203125 137.359375 87.34375 136.828125 87.59375 136.3125 C 87.714844 136.742188 87.957031 137.140625 88.285156 137.433594 C 89.144531 138.195312 90.351562 138.402344 91.492188 138.511719 C 92.726562 138.632812 93.960938 138.679688 95.195312 138.679688 C 98.21875 138.679688 101.25 138.382812 104.269531 138.085938 C 107.179688 137.800781 110.160156 137.492188 112.78125 136.195312 C 113.484375 135.851562 114.171875 135.417969 114.625 134.789062 C 115.324219 133.816406 115.371094 132.5 115.042969 131.355469 C 116.15625 132.863281 116.992188 134.597656 117.71875 136.339844 C 117.804688 136.546875 117.894531 136.769531 117.894531 136.988281 C 117.894531 137.066406 117.882812 137.140625 117.855469 137.214844 C 117.753906 137.558594 117.398438 137.75 117.066406 137.910156 C 112.359375 140.097656 104.511719 141.109375 98.058594 141.109375 " fill-opacity="1" fill-rule="nonzero"/><path fill="#9a9789" d="M 96.210938 134.402344 C 95.46875 134.402344 94.707031 134.308594 94.097656 133.894531 C 93.957031 133.796875 93.820312 133.679688 93.753906 133.519531 C 93.589844 133.132812 93.894531 132.714844 94.191406 132.414062 C 96.886719 129.691406 100.699219 128.105469 104.53125 128.105469 C 104.558594 128.105469 104.585938 128.105469 104.613281 128.105469 C 107.40625 128.121094 107.855469 129.332031 108.121094 129.945312 C 108.179688 130.078125 108.226562 130.222656 108.210938 130.371094 C 108.191406 130.554688 108.074219 130.714844 107.949219 130.851562 C 107.414062 131.421875 106.660156 131.726562 105.925781 132.007812 C 102.882812 133.183594 99.746094 134.3125 96.484375 134.398438 C 96.390625 134.398438 96.300781 134.402344 96.210938 134.402344 " fill-opacity="1" fill-rule="nonzero"/></svg>