<svg xmlns="http://www.w3.org/2000/svg" xmlns:xlink="http://www.w3.org/1999/xlink" width="388" zoomAndPan="magnify" viewBox="0 0 291 290.999983" height="388" preserveAspectRatio="xMidYMid meet" version="1.0"><defs><clipPath id="e0aeaac1ad"><path d="M 8.191406 121 L 282.691406 121 L 282.691406 283.90625 L 8.191406 283.90625 Z M 8.191406 121 " clip-rule="nonzero"/></clipPath></defs><path fill="#edae65" d="M 145.441406 80.050781 L 119.121094 93.882812 L 124.167969 64.550781 L 102.847656 43.753906 L 132.304688 39.4375 L 145.441406 12.753906 L 158.578125 39.4375 L 188.039062 43.753906 L 166.714844 64.550781 L 171.765625 93.882812 Z M 145.441406 80.050781 " fill-opacity="1" fill-rule="nonzero"/><path fill="#edae65" d="M 106.226562 126.890625 L 184.65625 126.890625 C 187.351562 126.890625 189.558594 129.097656 189.558594 131.796875 L 189.558594 278.941406 L 101.328125 278.941406 L 101.328125 131.796875 C 101.328125 129.097656 103.53125 126.890625 106.226562 126.890625 Z M 106.226562 126.890625 " fill-opacity="1" fill-rule="nonzero"/><path fill="#6581c6" d="M 189.558594 151.414062 L 272.890625 151.414062 C 275.585938 151.414062 277.789062 153.625 277.789062 156.320312 L 277.789062 278.941406 L 189.558594 278.941406 Z M 189.558594 151.414062 " fill-opacity="1" fill-rule="nonzero"/><path fill="#e26677" d="M 17.996094 166.128906 L 101.328125 166.128906 L 101.328125 278.941406 L 13.09375 278.941406 L 13.09375 171.035156 C 13.09375 168.335938 15.300781 166.128906 17.996094 166.128906 Z M 17.996094 166.128906 " fill-opacity="1" fill-rule="nonzero"/><path fill="#1a2c3d" d="M 118.875 66.265625 L 114.265625 93.097656 C 113.972656 94.960938 114.707031 96.777344 116.226562 97.902344 C 117.746094 98.984375 119.757812 99.128906 121.375 98.296875 L 145.394531 85.640625 L 169.414062 98.296875 C 170.148438 98.6875 170.933594 98.882812 171.714844 98.882812 C 172.746094 98.882812 173.726562 98.589844 174.609375 97.953125 C 176.128906 96.875 176.863281 95.011719 176.570312 93.144531 L 171.960938 66.316406 L 191.421875 47.335938 C 192.746094 46.011719 193.234375 44.097656 192.648438 42.332031 C 192.058594 40.566406 190.539062 39.242188 188.675781 38.996094 L 161.816406 35.074219 L 149.804688 10.644531 C 148.140625 7.3125 142.648438 7.3125 141.03125 10.644531 L 129.023438 35.074219 L 102.160156 38.996094 C 100.296875 39.289062 98.777344 40.566406 98.191406 42.332031 C 97.601562 44.097656 98.089844 46.058594 99.414062 47.335938 L 118.875 66.316406 Z M 132.992188 44.34375 C 134.609375 44.097656 135.980469 43.117188 136.667969 41.644531 L 145.441406 23.839844 L 154.21875 41.644531 C 154.953125 43.117188 156.324219 44.097656 157.894531 44.34375 L 177.5 47.1875 L 163.285156 61.066406 C 162.109375 62.195312 161.617188 63.816406 161.863281 65.382812 L 165.195312 84.953125 L 147.648438 75.734375 C 146.914062 75.339844 146.128906 75.144531 145.34375 75.144531 C 144.558594 75.144531 143.777344 75.339844 143.039062 75.734375 L 125.492188 84.953125 L 128.824219 65.382812 C 129.121094 63.816406 128.582031 62.195312 127.402344 61.066406 L 113.1875 47.1875 L 132.796875 44.34375 Z M 132.992188 44.34375 " fill-opacity="1" fill-rule="nonzero"/><path fill="#1a2c3d" d="M 147.941406 147 C 146.226562 146.167969 144.21875 146.414062 142.746094 147.640625 L 132.109375 156.273438 C 130.003906 157.988281 129.707031 161.078125 131.375 163.1875 C 133.089844 165.296875 136.179688 165.589844 138.285156 163.921875 L 140.933594 161.765625 L 140.933594 180.894531 C 140.933594 183.59375 143.140625 185.800781 145.835938 185.800781 C 148.53125 185.800781 150.738281 183.59375 150.738281 180.894531 L 150.738281 151.464844 C 150.738281 149.550781 149.660156 147.835938 147.941406 147.050781 Z M 147.941406 147 " fill-opacity="1" fill-rule="nonzero"/><g clip-path="url(#e0aeaac1ad)"><path fill="#1a2c3d" d="M 272.890625 146.511719 L 194.460938 146.511719 L 194.460938 131.796875 C 194.460938 126.402344 190.050781 121.988281 184.65625 121.988281 L 106.226562 121.988281 C 100.835938 121.988281 96.425781 126.402344 96.425781 131.796875 L 96.425781 161.226562 L 17.996094 161.226562 C 12.605469 161.226562 8.191406 165.640625 8.191406 171.035156 L 8.191406 278.941406 C 8.191406 281.640625 10.398438 283.847656 13.09375 283.847656 L 277.789062 283.847656 C 280.488281 283.847656 282.691406 281.640625 282.691406 278.941406 L 282.691406 156.320312 C 282.691406 150.925781 278.28125 146.511719 272.890625 146.511719 Z M 17.996094 171.035156 L 96.425781 171.035156 L 96.425781 274.039062 L 17.996094 274.039062 Z M 106.226562 131.796875 L 184.65625 131.796875 L 184.65625 274.039062 L 106.226562 274.039062 Z M 272.890625 274.039062 L 194.460938 274.039062 L 194.460938 156.320312 L 272.890625 156.320312 Z M 272.890625 274.039062 " fill-opacity="1" fill-rule="nonzero"/></g><path fill="#1a2c3d" d="M 224.800781 190.066406 C 227.5 190.066406 229.703125 187.859375 229.703125 185.160156 C 229.703125 183.738281 230.292969 182.464844 231.371094 181.628906 C 232.007812 181.089844 233.136719 180.550781 234.65625 180.941406 C 235.980469 181.285156 237.15625 182.511719 237.5 183.984375 C 237.695312 184.816406 237.351562 185.800781 236.617188 186.535156 L 221.324219 201.886719 C 219.902344 203.308594 219.507812 205.417969 220.242188 207.234375 C 221.027344 209.046875 222.792969 210.273438 224.753906 210.273438 L 242.496094 210.273438 C 245.195312 210.273438 247.398438 208.066406 247.398438 205.371094 C 247.398438 202.671875 245.195312 200.464844 242.496094 200.464844 L 236.566406 200.464844 L 243.527344 193.5 C 246.617188 190.410156 247.9375 185.945312 247.105469 182.265625 C 247.105469 182.121094 247.058594 181.875 247.007812 181.726562 C 245.832031 176.675781 241.859375 172.652344 236.910156 171.429688 C 232.792969 170.398438 228.527344 171.328125 225.242188 173.929688 C 221.8125 176.628906 219.851562 180.699219 219.851562 185.160156 C 219.851562 187.859375 222.058594 190.066406 224.753906 190.066406 Z M 224.800781 190.066406 " fill-opacity="1" fill-rule="nonzero"/><path fill="#1a2c3d" d="M 56.964844 185.015625 C 51.621094 185.015625 46.917969 188.152344 44.957031 193.058594 C 43.925781 195.558594 45.152344 198.40625 47.699219 199.433594 C 50.199219 200.414062 53.042969 199.238281 54.074219 196.6875 C 54.515625 195.558594 55.691406 194.824219 56.964844 194.824219 C 58.679688 194.824219 60.054688 196.097656 60.054688 197.621094 C 60.054688 199.140625 58.679688 200.414062 56.964844 200.414062 C 54.269531 200.414062 52.0625 202.621094 52.0625 205.320312 C 52.0625 208.019531 54.269531 210.226562 56.964844 210.226562 C 58.679688 210.226562 60.054688 211.5 60.054688 213.019531 C 60.054688 214.542969 58.679688 215.816406 56.964844 215.816406 C 55.691406 215.816406 54.515625 215.082031 54.074219 213.953125 C 53.042969 211.453125 50.199219 210.226562 47.699219 211.207031 C 45.199219 212.234375 43.976562 215.082031 44.957031 217.582031 C 46.917969 222.4375 51.621094 225.625 56.964844 225.625 C 64.074219 225.625 69.855469 219.984375 69.855469 213.019531 C 69.855469 210.128906 68.828125 207.429688 67.160156 205.320312 C 68.875 203.164062 69.855469 200.511719 69.855469 197.621094 C 69.855469 190.65625 64.074219 185.015625 56.964844 185.015625 Z M 56.964844 185.015625 " fill-opacity="1" fill-rule="nonzero"/><path fill="#1a2c3d" d="M 209.164062 58.222656 C 209.164062 60.921875 211.371094 63.128906 214.066406 63.128906 L 223.871094 63.128906 C 226.566406 63.128906 228.773438 60.921875 228.773438 58.222656 C 228.773438 55.527344 226.566406 53.320312 223.871094 53.320312 L 214.066406 53.320312 C 211.371094 53.320312 209.164062 55.527344 209.164062 58.222656 Z M 209.164062 58.222656 " fill-opacity="1" fill-rule="nonzero"/><path fill="#1a2c3d" d="M 203.96875 30.363281 C 204.804688 30.363281 205.636719 30.167969 206.421875 29.726562 L 214.902344 24.820312 C 217.253906 23.449219 218.039062 20.457031 216.714844 18.101562 C 215.34375 15.746094 212.351562 14.960938 210 16.285156 L 201.519531 21.191406 C 199.167969 22.566406 198.382812 25.558594 199.707031 27.910156 C 200.636719 29.480469 202.253906 30.363281 203.96875 30.363281 Z M 203.96875 30.363281 " fill-opacity="1" fill-rule="nonzero"/><path fill="#1a2c3d" d="M 201.519531 95.253906 L 210 100.160156 C 210.785156 100.601562 211.617188 100.796875 212.449219 100.796875 C 214.164062 100.796875 215.785156 99.914062 216.714844 98.34375 C 218.085938 95.992188 217.253906 93 214.902344 91.625 L 206.421875 86.71875 C 204.066406 85.347656 201.078125 86.179688 199.707031 88.535156 C 198.332031 90.890625 199.167969 93.882812 201.519531 95.253906 Z M 201.519531 95.253906 " fill-opacity="1" fill-rule="nonzero"/><path fill="#1a2c3d" d="M 67.015625 63.128906 L 76.816406 63.128906 C 79.511719 63.128906 81.71875 60.921875 81.71875 58.222656 C 81.71875 55.527344 79.511719 53.320312 76.816406 53.320312 L 67.015625 53.320312 C 64.316406 53.320312 62.113281 55.527344 62.113281 58.222656 C 62.113281 60.921875 64.316406 63.128906 67.015625 63.128906 Z M 67.015625 63.128906 " fill-opacity="1" fill-rule="nonzero"/><path fill="#1a2c3d" d="M 75.984375 24.773438 L 84.464844 29.675781 C 85.25 30.117188 86.082031 30.316406 86.914062 30.316406 C 88.632812 30.316406 90.25 29.433594 91.179688 27.863281 C 92.550781 25.507812 91.71875 22.515625 89.367188 21.140625 L 80.886719 16.238281 C 78.535156 14.863281 75.542969 15.699219 74.171875 18.050781 C 72.796875 20.40625 73.632812 23.398438 75.984375 24.773438 Z M 75.984375 24.773438 " fill-opacity="1" fill-rule="nonzero"/><path fill="#1a2c3d" d="M 84.464844 86.769531 L 75.984375 91.675781 C 73.632812 93.046875 72.847656 96.039062 74.171875 98.394531 C 75.101562 99.964844 76.71875 100.847656 78.433594 100.847656 C 79.269531 100.847656 80.101562 100.652344 80.886719 100.210938 L 89.367188 95.304688 C 91.71875 93.929688 92.503906 90.9375 91.179688 88.585938 C 89.855469 86.230469 86.816406 85.445312 84.464844 86.769531 Z M 84.464844 86.769531 " fill-opacity="1" fill-rule="nonzero"/></svg>