<svg xmlns="http://www.w3.org/2000/svg" xmlns:xlink="http://www.w3.org/1999/xlink" width="388" zoomAndPan="magnify" viewBox="0 0 291 290.999983" height="388" preserveAspectRatio="xMidYMid meet" version="1.0"><defs><clipPath id="0a73151a72"><path d="M 0 14.714844 L 288 14.714844 L 288 250.214844 L 0 250.214844 Z M 0 14.714844 " clip-rule="nonzero"/></clipPath></defs><g clip-path="url(#0a73151a72)"><path fill="#2d2d2d" d="M 207.488281 175.882812 L 184.351562 152.703125 C 184.558594 151.972656 184.679688 151.210938 184.679688 150.421875 L 184.679688 144.285156 C 191.234375 148.605469 199.070312 151.125 207.488281 151.125 C 215.902344 151.125 223.753906 148.601562 230.316406 144.28125 L 230.316406 150.421875 C 230.316406 151.210938 230.433594 151.972656 230.640625 152.703125 Z M 57.144531 162.289062 C 48.125 156.019531 42.203125 145.570312 42.203125 133.761719 L 42.203125 104.339844 C 44.292969 104.390625 46.335938 104.464844 48.332031 104.542969 C 59.425781 104.960938 69.007812 105.320312 76.832031 100.664062 C 81.972656 97.605469 85.804688 92.746094 88.585938 85.5625 C 90.539062 91.9375 93.441406 96.734375 97.324219 100.070312 C 101.179688 103.375 105.917969 105.113281 111.453125 105.261719 L 111.453125 133.761719 C 111.453125 145.589844 105.507812 156.050781 96.457031 162.316406 C 96.308594 162.40625 96.164062 162.503906 96.027344 162.613281 C 90.527344 166.300781 83.921875 168.457031 76.820312 168.457031 C 69.71875 168.457031 63.148438 166.3125 57.660156 162.640625 C 57.5 162.507812 57.328125 162.390625 57.144531 162.289062 Z M 81.613281 121.914062 C 81.613281 123.890625 83.210938 125.492188 85.183594 125.492188 C 87.15625 125.492188 88.753906 123.890625 88.753906 121.914062 C 88.753906 119.386719 90.445312 117.328125 92.519531 117.328125 C 94.597656 117.328125 96.304688 119.386719 96.304688 121.914062 C 96.304688 123.890625 97.902344 125.492188 99.875 125.492188 C 101.847656 125.492188 103.445312 123.890625 103.445312 121.914062 C 103.445312 115.441406 98.542969 110.175781 92.519531 110.175781 C 86.496094 110.175781 81.613281 115.441406 81.613281 121.914062 Z M 76.816406 153.773438 C 70.851562 153.773438 66 149.972656 66 145.300781 C 66 143.328125 64.402344 141.726562 62.429688 141.726562 C 60.460938 141.726562 58.859375 143.328125 58.859375 145.300781 C 58.859375 153.917969 66.917969 160.925781 76.820312 160.925781 C 86.722656 160.925781 94.792969 153.917969 94.792969 145.300781 C 94.792969 143.328125 93.195312 141.726562 91.222656 141.726562 C 89.25 141.726562 87.652344 143.328125 87.652344 145.300781 C 87.652344 149.972656 82.792969 153.773438 76.820312 153.773438 Z M 57.347656 121.914062 C 57.347656 119.386719 59.046875 117.328125 61.132812 117.328125 C 63.21875 117.328125 64.898438 119.386719 64.898438 121.914062 C 64.898438 123.890625 66.496094 125.492188 68.46875 125.492188 C 70.441406 125.492188 72.039062 123.890625 72.039062 121.914062 C 72.039062 115.441406 67.144531 110.175781 61.132812 110.175781 C 55.117188 110.175781 50.207031 115.441406 50.207031 121.914062 C 50.207031 123.890625 51.804688 125.492188 53.777344 125.492188 C 55.75 125.492188 57.347656 123.890625 57.347656 121.914062 Z M 135.148438 190.105469 L 111.28125 182 C 106.269531 196.632812 92.613281 206.550781 76.816406 206.550781 C 61.023438 206.550781 47.386719 196.632812 42.363281 182.003906 L 18.507812 190.105469 C 7.261719 193.910156 0 204.054688 0 215.949219 L 0 250.125 L 27.015625 250.125 L 27.015625 233.019531 C 27.015625 231.042969 28.613281 229.441406 30.585938 229.441406 C 32.558594 229.441406 34.15625 231.042969 34.15625 233.019531 L 34.15625 250.125 L 119.496094 250.125 L 119.496094 233.019531 C 119.496094 231.042969 121.09375 229.441406 123.066406 229.441406 C 125.039062 229.441406 126.636719 231.042969 126.636719 233.019531 L 126.636719 250.125 L 153.652344 250.125 L 153.652344 215.949219 C 153.652344 204.054688 146.390625 193.910156 135.148438 190.105469 Z M 76.816406 199.398438 C 89.507812 199.398438 100.480469 191.441406 104.519531 179.703125 L 101.308594 178.617188 C 97.976562 177.488281 95.625 174.789062 94.925781 171.472656 C 89.445312 174.125 83.300781 175.609375 76.816406 175.609375 C 70.335938 175.609375 64.203125 174.125 58.726562 171.476562 C 58.023438 174.792969 55.675781 177.488281 52.339844 178.617188 L 49.121094 179.707031 C 53.175781 191.445312 64.144531 199.398438 76.816406 199.398438 Z M 190.8125 192.585938 L 202.4375 180.9375 L 179.535156 157.996094 C 179.195312 158.128906 178.847656 158.25 178.484375 158.339844 L 167.851562 160.976562 Z M 247.140625 160.976562 L 236.5 158.335938 C 236.140625 158.25 235.792969 158.128906 235.453125 157.996094 L 212.539062 180.9375 L 224.175781 192.589844 Z M 269.410156 166.5 L 254.625 162.832031 L 227.496094 200.179688 C 226.878906 201.023438 225.929688 201.558594 224.886719 201.640625 C 224.792969 201.648438 224.699219 201.652344 224.605469 201.652344 C 223.664062 201.652344 222.757812 201.277344 222.085938 200.605469 L 207.488281 185.996094 L 192.910156 200.601562 C 192.238281 201.277344 191.328125 201.652344 190.382812 201.652344 C 190.292969 201.652344 190.199219 201.648438 190.105469 201.640625 C 189.066406 201.558594 188.113281 201.023438 187.496094 200.179688 L 160.367188 162.832031 L 145.566406 166.5 C 142.628906 167.234375 139.925781 168.449219 137.5 170.101562 L 137.5 183.351562 C 151.652344 188.171875 160.792969 200.957031 160.792969 215.953125 L 160.792969 250.125 L 251.921875 250.125 L 251.921875 227.5625 C 251.921875 225.585938 253.519531 223.984375 255.492188 223.984375 C 257.460938 223.984375 259.0625 225.585938 259.0625 227.5625 L 259.0625 250.125 L 288 250.125 L 288 190.285156 C 288 178.8125 280.527344 169.253906 269.410156 166.5 Z M 130.359375 88.273438 C 130.359375 60.996094 108.210938 38.804688 80.984375 38.804688 L 72.667969 38.804688 C 45.445312 38.804688 23.292969 60.996094 23.292969 88.273438 L 23.292969 180.925781 L 50.050781 171.839844 C 51.152344 171.46875 51.808594 170.546875 51.808594 169.382812 L 51.808594 167.253906 C 41.648438 159.613281 35.0625 147.445312 35.0625 133.761719 L 35.0625 100.707031 C 35.0625 99.757812 35.441406 98.84375 36.113281 98.171875 C 36.785156 97.5 37.679688 97.121094 38.648438 97.132812 C 42.125 97.148438 45.417969 97.273438 48.601562 97.394531 C 69.644531 98.179688 81.234375 98.621094 85.75 66.980469 C 86.007812 65.160156 87.597656 63.828125 89.4375 63.914062 C 91.269531 63.992188 92.746094 65.449219 92.847656 67.285156 C 93.613281 80.898438 96.683594 90.097656 101.972656 94.636719 C 105.214844 97.417969 109.371094 98.515625 114.671875 97.996094 C 115.671875 97.894531 116.671875 98.226562 117.417969 98.902344 C 118.167969 99.582031 118.59375 100.542969 118.59375 101.554688 L 118.59375 133.761719 C 118.59375 147.441406 112.007812 159.609375 101.84375 167.25 L 101.84375 169.378906 C 101.84375 170.546875 102.5 171.46875 103.597656 171.839844 L 130.359375 180.925781 Z M 183.097656 133.832031 C 176.84375 127.566406 172.972656 118.917969 172.972656 109.378906 L 172.972656 72.421875 C 172.972656 68.882812 175.476562 64.203125 179.839844 59.582031 C 180.769531 58.597656 182.019531 58.089844 183.28125 58.089844 C 184.21875 58.089844 185.167969 58.371094 185.996094 58.941406 C 199.972656 68.613281 216.953125 73.003906 235.117188 71.644531 C 236.992188 71.5 238.574219 72.054688 239.957031 73.355469 C 241.34375 74.644531 242.019531 76.183594 242.019531 78.066406 L 242.019531 109.375 C 242.019531 128.453125 226.527344 143.972656 207.488281 143.972656 C 198.398438 143.972656 190.128906 140.429688 183.957031 134.65625 C 183.71875 134.335938 183.429688 134.054688 183.097656 133.832031 Z M 212.285156 94.289062 C 212.285156 96.261719 213.882812 97.863281 215.855469 97.863281 C 217.824219 97.863281 219.421875 96.261719 219.421875 94.289062 C 219.421875 91.75 221.113281 89.683594 223.191406 89.683594 C 225.269531 89.683594 226.976562 91.75 226.976562 94.289062 C 226.976562 96.261719 228.574219 97.863281 230.546875 97.863281 C 232.515625 97.863281 234.113281 96.261719 234.113281 94.289062 C 234.113281 87.804688 229.214844 82.53125 223.191406 82.53125 C 217.167969 82.53125 212.285156 87.804688 212.285156 94.289062 Z M 207.488281 126.144531 C 201.523438 126.144531 196.671875 122.34375 196.671875 117.675781 C 196.671875 115.699219 195.070312 114.097656 193.101562 114.097656 C 191.128906 114.097656 189.53125 115.699219 189.53125 117.675781 C 189.53125 126.289062 197.585938 133.296875 207.488281 133.296875 C 217.390625 133.296875 225.460938 126.289062 225.460938 117.675781 C 225.460938 115.699219 223.863281 114.097656 221.890625 114.097656 C 219.921875 114.097656 218.324219 115.699219 218.324219 117.675781 C 218.324219 122.34375 213.460938 126.144531 207.488281 126.144531 Z M 184.449219 97.863281 C 186.417969 97.863281 188.015625 96.261719 188.015625 94.289062 C 188.015625 91.75 189.714844 89.683594 191.800781 89.683594 C 193.886719 89.683594 195.570312 91.75 195.570312 94.289062 C 195.570312 96.261719 197.167969 97.863281 199.140625 97.863281 C 201.109375 97.863281 202.707031 96.261719 202.707031 94.289062 C 202.707031 87.804688 197.816406 82.53125 191.800781 82.53125 C 185.789062 82.53125 180.878906 87.804688 180.878906 94.289062 C 180.878906 96.261719 182.476562 97.863281 184.449219 97.863281 Z M 263.558594 97.378906 C 263.558594 93.453125 261.785156 89.9375 259 87.585938 C 258.941406 87.539062 258.882812 87.492188 258.828125 87.441406 C 256.628906 85.648438 253.824219 84.566406 250.769531 84.566406 L 249.160156 84.566406 L 249.160156 109.378906 C 249.160156 109.644531 249.144531 109.910156 249.140625 110.175781 L 250.769531 110.175781 C 257.820312 110.175781 263.558594 104.4375 263.558594 97.378906 Z M 250.769531 77.410156 C 253.769531 77.410156 256.613281 78.082031 259.167969 79.277344 C 262.101562 67.714844 262.082031 52.902344 256.382812 43.628906 C 246.414062 27.4375 232.671875 18.132812 214.359375 15.1875 C 197.558594 12.503906 163.769531 26.785156 156.046875 39.839844 C 150.597656 49.085938 151.492188 65.761719 154.453125 79.988281 C 157.339844 78.351562 160.675781 77.410156 164.222656 77.410156 L 165.832031 77.410156 L 165.832031 72.421875 C 165.832031 65.097656 171.359375 58.15625 174.652344 54.667969 C 178.699219 50.375 185.175781 49.691406 190.046875 53.050781 C 190.050781 53.050781 190.050781 53.050781 190.054688 53.054688 C 202.671875 61.789062 218.066406 65.753906 234.582031 64.511719 C 238.445312 64.21875 241.992188 65.460938 244.828125 68.121094 C 247.5 70.601562 248.988281 73.808594 249.148438 77.410156 Z M 164.222656 84.566406 C 157.171875 84.566406 151.433594 90.3125 151.433594 97.378906 C 151.433594 104.445312 157.171875 110.175781 164.222656 110.175781 L 165.851562 110.175781 C 165.847656 109.910156 165.832031 109.644531 165.832031 109.378906 L 165.832031 84.566406 Z M 164.222656 84.566406 " fill-opacity="1" fill-rule="nonzero"/></g></svg>