<svg xmlns="http://www.w3.org/2000/svg" xmlns:xlink="http://www.w3.org/1999/xlink" width="388" zoomAndPan="magnify" viewBox="0 0 291 290.999983" height="388" preserveAspectRatio="xMidYMid meet" version="1.0"><defs><clipPath id="9745138666"><path d="M 0 8.003906 L 291 8.003906 L 291 283.253906 L 0 283.253906 Z M 0 8.003906 " clip-rule="nonzero"/></clipPath></defs><g clip-path="url(#9745138666)"><path fill="#fffbf3" d="M 3.476562 175.695312 C 3.613281 176.285156 3.757812 176.871094 3.90625 177.457031 C 16.300781 226.84375 58.101562 267.277344 107.539062 279.304688 C 156.976562 291.335938 211.96875 275.113281 247.984375 239.144531 C 270.953125 216.203125 286.4375 185.613281 290.085938 153.34375 C 293.730469 121.074219 285.238281 87.355469 265.730469 61.402344 C 241.765625 29.507812 202.402344 10.917969 162.617188 8.355469 C 116.140625 5.355469 63.167969 21.15625 32.410156 57.183594 C 5.066406 89.207031 -6.191406 134.644531 3.476562 175.695312 Z M 3.476562 175.695312 " fill-opacity="1" fill-rule="nonzero"/></g><path fill="#f4d27a" d="M 281.734375 131.550781 C 281.570312 130.375 281.410156 128.828125 281.371094 128.097656 C 281.371094 128.042969 281.148438 123.199219 280.867188 122.3125 L 280.871094 122.3125 C 280.824219 122.144531 280.683594 121.066406 280.535156 119.496094 C 280.351562 117.542969 280.152344 116.429688 279.96875 116.1875 C 279.8125 115.921875 279.421875 114.339844 279.183594 112.542969 C 278.992188 111.078125 278.261719 108.167969 277.519531 105.917969 C 276.941406 104.160156 276.914062 104.042969 276.75 102.734375 C 276.679688 102.144531 276.441406 101.296875 276.210938 100.804688 C 276.019531 100.40625 275.765625 99.558594 275.644531 98.957031 C 275.515625 98.285156 275.1875 97.167969 274.921875 96.464844 C 274.664062 95.792969 274.046875 94.171875 273.550781 92.871094 C 273.050781 91.546875 272.203125 89.570312 271.667969 88.46875 C 271.125 87.363281 270.785156 86.570312 270.746094 86.421875 C 270.5625 85.601562 268.628906 82.09375 268.324219 81.738281 C 268.234375 81.628906 267.933594 81.070312 267.671875 80.378906 C 267.4375 79.761719 267 78.921875 266.636719 78.59375 C 266.480469 78.453125 266.367188 78.253906 266.355469 78.230469 C 266.355469 77.730469 265.640625 76.714844 265.421875 76.417969 C 264.988281 75.820312 264.285156 74.648438 263.886719 73.855469 C 263.167969 72.414062 261.769531 70.113281 261.148438 69.707031 C 261.074219 69.648438 260.847656 69.351562 260.671875 68.992188 C 260.425781 68.503906 259.691406 67.433594 259.117188 66.683594 C 258.457031 65.816406 257.835938 64.886719 257.660156 64.558594 C 257.4375 64.117188 256.972656 63.46875 256.613281 63.082031 C 256.300781 62.742188 255.109375 61.328125 254.015625 59.988281 C 252.476562 58.105469 251.921875 57.539062 251.644531 57.375 C 251.625 57.34375 251.609375 57.296875 251.59375 57.238281 C 251.472656 56.761719 250.921875 56.242188 250.464844 55.96875 C 250.152344 55.777344 249.53125 55.195312 249.144531 54.652344 C 248.859375 54.253906 248.175781 53.460938 247.675781 53.300781 C 247.539062 53.242188 247.015625 52.796875 246.511719 52.171875 C 244.691406 49.921875 244.046875 49.539062 243.734375 49.480469 C 243.460938 49.289062 242.578125 48.511719 241.421875 47.359375 C 240.277344 46.234375 238.792969 44.898438 238.273438 44.636719 C 237.972656 44.480469 237.15625 43.84375 236.472656 43.171875 C 235.722656 42.433594 234.496094 41.59375 233.558594 41.171875 C 232.878906 40.867188 232.433594 40.59375 232.292969 40.472656 C 232.019531 39.910156 230.910156 39.4375 229.964844 39.128906 C 229.941406 39.117188 229.914062 39.0625 229.90625 39.039062 C 229.90625 38.546875 229.5625 38.058594 229.105469 37.902344 C 228.902344 37.835938 228.582031 37.6875 228.414062 37.59375 C 227.457031 37.035156 226.492188 36.503906 225.707031 36.109375 C 225.304688 35.910156 224.714844 35.503906 224.453125 35.242188 C 224.292969 35.082031 223.738281 34.570312 223.28125 34.535156 C 223.191406 34.503906 222.941406 34.371094 222.667969 34.160156 C 222.28125 33.855469 221.671875 33.550781 221.242188 33.550781 C 221.207031 33.550781 221.164062 33.535156 221.140625 33.519531 C 220.878906 32.960938 219.832031 32.757812 219.511719 32.710938 C 218.917969 32.621094 218.632812 32.460938 218.566406 32.34375 C 218.285156 31.824219 217.769531 31.570312 217.3125 31.710938 C 216.78125 31.683594 213.855469 30.265625 212.101562 29.414062 C 211.757812 29.246094 210.007812 28.414062 209.53125 28.414062 C 209.53125 28.414062 209.53125 28.414062 209.527344 28.414062 C 209.429688 28.402344 209.097656 28.253906 208.800781 28.015625 C 208.265625 27.59375 207.640625 27.40625 207.183594 27.527344 C 207.058594 27.546875 206.582031 27.421875 205.828125 26.96875 C 205.15625 26.570312 204.097656 26.128906 203.449219 26.09375 C 203.050781 26.070312 202.414062 25.890625 202.085938 25.710938 C 200.273438 24.730469 198.804688 24.246094 197.585938 24.246094 C 197.292969 24.246094 196.652344 24.03125 196.203125 23.730469 C 195.84375 23.480469 195.121094 23.070312 194.605469 23.019531 C 194.5625 22.9375 194.496094 22.859375 194.421875 22.800781 C 194.109375 22.558594 193.671875 22.617188 193.4375 22.675781 C 193.300781 22.707031 192.753906 22.628906 192.269531 22.414062 C 191.25 21.96875 190.90625 21.878906 189.425781 21.695312 C 189.019531 21.640625 187.871094 21.472656 186.867188 21.324219 C 185.84375 21.167969 184.621094 21.007812 184.136719 20.96875 C 183.757812 20.9375 182.691406 20.675781 181.71875 20.347656 C 180.433594 19.914062 179.933594 19.832031 179.570312 20.007812 C 179.441406 20.074219 179.339844 20.167969 179.273438 20.289062 C 178.796875 20.457031 176.792969 20.152344 176.097656 19.550781 C 175.984375 19.457031 175.644531 19.164062 175.242188 19.222656 C 175.019531 19.257812 174.832031 19.390625 174.734375 19.554688 C 174.6875 19.59375 174.472656 19.628906 174.199219 19.570312 C 173.960938 19.515625 173.835938 19.417969 173.8125 19.382812 C 173.6875 19.152344 173.523438 18.835938 173.164062 18.746094 C 172.796875 18.65625 172.488281 18.878906 172.214844 19.070312 C 171.632812 19.480469 170.359375 19.417969 169.863281 18.957031 C 169.21875 18.347656 167.972656 18.085938 167.128906 18.152344 C 166.582031 18.195312 166.183594 18.367188 165.957031 18.664062 C 165.785156 18.890625 165.304688 18.972656 165.058594 18.820312 C 164.703125 18.59375 164.03125 18.539062 163.566406 18.574219 C 163.238281 18.597656 162.667969 18.460938 162.367188 18.277344 C 161.507812 17.769531 161.195312 17.757812 160.390625 18.222656 C 160.117188 18.382812 159.863281 18.445312 159.714844 18.382812 C 159.304688 18.21875 158.613281 18.207031 158.179688 18.277344 C 157.984375 18.304688 157.722656 18.324219 157.625 18.207031 C 157.25 17.753906 156.769531 17.550781 156.339844 17.664062 C 156.007812 17.746094 155.753906 18.015625 155.644531 18.378906 C 155.230469 18.480469 153.742188 18.484375 152.535156 18.492188 C 148.527344 18.507812 138.566406 18.804688 137.953125 18.992188 C 137.785156 19.03125 136.78125 19.132812 135.382812 19.210938 C 134.09375 19.28125 131.832031 19.457031 130.347656 19.59375 C 128.902344 19.722656 127.300781 19.84375 126.855469 19.84375 C 126.546875 19.84375 125.851562 19.890625 125.5 20.21875 C 125.410156 20.21875 125.203125 20.195312 124.796875 20.085938 C 123.554688 19.753906 122.371094 20.003906 121.367188 20.804688 C 121.082031 21.027344 119.554688 21.21875 119.148438 21.09375 C 118.976562 20.945312 118.476562 20.699219 116.628906 21.09375 C 114.890625 21.460938 114.742188 21.855469 114.695312 21.996094 C 114.683594 22.007812 114.652344 22.019531 114.640625 22.019531 C 114.285156 22.019531 113.863281 22.1875 113.601562 22.417969 C 113.570312 22.40625 113.527344 22.390625 113.46875 22.359375 C 113.082031 22.152344 112.503906 22.027344 112.167969 22.367188 C 111.929688 22.582031 110.714844 22.867188 110.339844 22.792969 C 109.800781 22.40625 109.117188 22.707031 108.457031 23.050781 C 107.835938 23.371094 107.410156 23.433594 107.226562 23.390625 C 106.796875 23.28125 106.167969 23.332031 105.808594 23.628906 C 105.792969 23.640625 105.78125 23.652344 105.761719 23.65625 C 105.257812 23.484375 104.648438 23.957031 104.460938 24.121094 C 104.234375 24.320312 103.816406 24.472656 103.621094 24.472656 C 103.15625 24.472656 102.539062 24.65625 102.1875 24.894531 C 101.597656 25.300781 99.84375 25.667969 99.386719 25.550781 C 98.863281 25.414062 98.285156 25.570312 97.851562 25.960938 C 97.6875 26.117188 97.148438 26.359375 96.710938 26.449219 C 96.191406 26.558594 94.8125 26.921875 93.628906 27.253906 C 92.546875 27.5625 91.792969 27.675781 91.558594 27.675781 C 91.554688 27.675781 91.554688 27.675781 91.546875 27.675781 C 91.203125 27.519531 90.691406 27.570312 90.214844 28.144531 C 90.089844 28.300781 89.851562 28.457031 88.96875 28.503906 C 88.285156 28.539062 87.3125 28.753906 86.863281 29.070312 C 86.613281 29.242188 86.238281 29.371094 86.105469 29.371094 C 85.320312 29.382812 82.550781 30.3125 81.96875 30.824219 C 81.855469 30.921875 81.4375 31.121094 81.050781 31.207031 C 80.585938 31.308594 79.957031 31.570312 79.691406 31.890625 C 79.617188 31.949219 79.308594 32.058594 78.980469 32.058594 C 78.332031 32.058594 77.671875 32.308594 77.273438 32.710938 C 77.027344 32.960938 76.875 32.949219 76.714844 32.914062 C 75.859375 32.699219 75.445312 33.132812 75.117188 33.632812 C 74.925781 33.925781 74.757812 34.019531 74.433594 34.019531 C 73.910156 34.019531 73.183594 34.285156 72.742188 34.628906 C 72.457031 34.847656 72.046875 34.996094 71.898438 34.996094 C 71.511719 34.996094 70.996094 35.117188 70.75 35.449219 C 70.441406 35.710938 68.820312 36.4375 68.480469 36.46875 C 67.984375 36.46875 67.261719 37.058594 67.117188 37.175781 C 66.742188 37.492188 66.273438 37.757812 66.101562 37.8125 C 65.726562 37.933594 65.207031 38.277344 64.898438 38.617188 C 64.738281 38.796875 64.472656 38.914062 64.382812 38.921875 C 63.8125 38.921875 62.992188 39.621094 62.59375 40.039062 C 62.128906 40.527344 61.152344 41.3125 60.457031 41.753906 C 59.691406 42.242188 58.535156 43.164062 57.886719 43.808594 C 57.25 44.433594 56.472656 45.046875 56.175781 45.199219 C 55.742188 45.425781 54.996094 45.980469 54.492188 46.46875 C 52.011719 48.824219 50.714844 49.988281 50.152344 50.34375 C 50.0625 50.402344 49.28125 50.914062 49.222656 51.527344 C 49.175781 51.605469 49.015625 51.777344 48.789062 51.921875 C 48.355469 52.183594 44.816406 55.023438 44.816406 55.820312 C 44.816406 55.695312 44.859375 55.617188 44.863281 55.617188 C 44.796875 55.730469 44.375 56.242188 43.640625 56.96875 C 42.5625 58.035156 42.253906 58.464844 42.164062 58.6875 C 42.019531 58.890625 41.390625 59.589844 40.46875 60.492188 C 39.417969 61.527344 38.25 62.953125 37.816406 63.71875 C 37.429688 64.402344 36.554688 65.636719 35.90625 66.414062 C 34.523438 68.078125 32.980469 70.160156 31.691406 72.125 L 30.101562 74.546875 C 29.699219 75.160156 28.882812 76.339844 28.285156 77.179688 C 27.664062 78.035156 26.890625 79.242188 26.554688 79.863281 C 26.242188 80.433594 25.738281 81.207031 25.453125 81.558594 C 25.382812 81.640625 24.792969 82.375 24.757812 82.910156 C 24.65625 83.308594 23.601562 85.523438 22.894531 86.683594 C 22.742188 86.941406 22.429688 87.605469 22.21875 88.101562 C 22.003906 88.601562 21.574219 89.355469 21.273438 89.757812 C 20.914062 90.238281 20.476562 91.054688 20.273438 91.613281 C 20.09375 92.105469 19.652344 93.160156 19.292969 93.957031 C 18.121094 96.523438 17.964844 96.917969 17.65625 98.160156 C 17.523438 98.691406 17.371094 99.066406 17.304688 99.191406 C 17.039062 99.417969 16.917969 99.816406 16.917969 100.125 C 16.90625 100.257812 16.714844 100.847656 16.382812 101.535156 C 15.710938 102.945312 14.710938 105.886719 14.710938 106.65625 C 14.6875 107.066406 13.761719 109.824219 13.214844 110.898438 C 12.714844 111.875 11.773438 115.996094 11.773438 117.191406 C 11.773438 117.679688 11.671875 118.144531 11.621094 118.25 C 11.421875 118.625 11.257812 119.554688 11.199219 120.085938 C 11.125 120.722656 10.953125 121.632812 10.824219 122.074219 C 10.667969 122.597656 10.550781 123.453125 10.550781 124.019531 C 10.550781 124.496094 10.441406 125.019531 10.371094 125.148438 C 10.074219 125.710938 9.976562 127.792969 9.972656 127.882812 C 9.917969 129.085938 9.753906 130.152344 9.65625 130.390625 C 9.46875 130.863281 9.417969 131.574219 9.554688 132.074219 C 9.621094 132.304688 9.589844 133.4375 9.414062 134.667969 C 8.496094 140.859375 8.675781 151.480469 9.777344 156.53125 C 9.894531 157.074219 9.871094 157.621094 9.824219 157.746094 C 9.628906 158.277344 9.703125 158.769531 10.027344 159.027344 C 10.039062 159.074219 10.054688 159.152344 10.042969 159.242188 C 10.003906 159.675781 10.167969 160.355469 10.351562 160.777344 C 10.484375 161.082031 10.667969 161.992188 10.726562 162.800781 C 10.78125 163.574219 10.925781 164.5625 11.085938 164.9375 C 11.292969 165.425781 11.578125 166.894531 11.625 168.050781 C 11.632812 168.152344 11.671875 169.058594 11.882812 169.402344 C 11.984375 169.617188 12.28125 170.871094 12.429688 171.902344 C 12.476562 172.21875 12.707031 173.355469 12.910156 174.265625 C 13.125 175.242188 13.328125 176.433594 13.351562 176.871094 C 13.378906 177.347656 13.476562 177.984375 13.605469 178.285156 C 13.664062 178.421875 13.925781 179.265625 14.210938 180.324219 C 14.449219 181.199219 14.808594 182.332031 14.996094 182.6875 C 15.105469 182.886719 15.199219 183.277344 15.199219 183.503906 C 15.199219 183.960938 15.484375 184.773438 15.746094 185.289062 C 16.003906 185.789062 16.164062 186.222656 16.175781 186.285156 C 16.175781 186.660156 16.453125 187.058594 16.710938 187.273438 C 16.789062 187.363281 16.972656 187.796875 17.050781 188.308594 C 17.144531 188.957031 17.601562 190.222656 18.089844 191.195312 C 18.535156 192.085938 18.828125 192.753906 18.871094 192.902344 C 18.917969 193.175781 19.144531 193.742188 19.542969 194.59375 C 19.816406 195.164062 19.957031 195.605469 19.992188 195.777344 C 19.941406 196.003906 19.976562 196.4375 20.570312 197.3125 C 20.796875 197.640625 20.921875 197.902344 20.960938 198.027344 C 20.925781 198.296875 21.09375 198.84375 22.015625 200.386719 C 22.605469 201.375 22.984375 202.1875 23.019531 202.328125 C 23.019531 202.714844 23.265625 203.195312 23.597656 203.476562 C 23.632812 203.503906 23.65625 203.535156 23.667969 203.5625 C 23.621094 203.796875 23.6875 204.367188 24.929688 206.457031 C 25.644531 207.660156 26.625 209.488281 27.125 210.539062 C 27.457031 211.242188 28.195312 212.664062 28.617188 213.023438 C 28.757812 213.140625 29.1875 213.730469 29.519531 214.375 C 29.867188 215.027344 30.382812 215.898438 30.679688 216.316406 C 30.910156 216.636719 31.054688 216.898438 31.101562 216.992188 C 31.132812 217.152344 31.261719 217.476562 31.898438 218.292969 C 32.261719 218.765625 33.113281 220.046875 33.75 221.09375 C 34.175781 221.792969 35.050781 223.179688 35.320312 223.453125 C 35.417969 223.558594 35.765625 224.035156 36.097656 224.578125 C 36.464844 225.191406 37.8125 226.683594 38.894531 227.773438 C 40.023438 228.910156 40.777344 229.785156 40.914062 230.011719 C 41.335938 231.46875 46.332031 236.832031 47.75 237.359375 C 47.859375 237.445312 48.175781 237.820312 48.515625 238.417969 C 49.0625 239.375 50.042969 240.410156 51.703125 241.773438 C 52.976562 242.820312 53.863281 243.636719 54.003906 243.820312 C 54.238281 244.226562 55.152344 244.953125 55.699219 245.363281 C 56.484375 245.953125 57.75 246.910156 58.519531 247.496094 C 59.703125 248.394531 60.164062 248.601562 60.367188 248.648438 C 60.433594 248.703125 60.570312 248.835938 60.695312 249.023438 C 60.847656 249.261719 61.234375 249.785156 61.6875 249.875 C 61.824219 249.960938 62.210938 250.269531 62.691406 250.761719 C 63.300781 251.382812 64.234375 252.101562 64.816406 252.394531 C 65.308594 252.636719 66.082031 253.15625 66.511719 253.519531 C 67.015625 253.949219 67.824219 254.472656 68.359375 254.710938 C 68.78125 254.898438 69.402344 255.292969 69.679688 255.554688 C 69.757812 255.625 70.441406 256.25 70.929688 256.25 C 70.929688 256.25 70.929688 256.25 70.9375 256.25 C 71.042969 256.273438 71.460938 256.464844 71.90625 256.769531 C 72.011719 256.839844 72.964844 257.476562 73.492188 257.476562 C 73.570312 257.484375 73.835938 257.578125 74.023438 257.726562 C 74.378906 258 74.933594 258.199219 75.335938 258.210938 C 75.433594 258.210938 75.722656 258.339844 75.890625 258.523438 C 76.242188 258.910156 76.835938 259.199219 77.300781 259.199219 C 77.429688 259.210938 77.894531 259.453125 78.417969 259.984375 C 78.933594 260.5 79.707031 261.109375 80.1875 261.25 C 80.464844 261.335938 81.367188 261.703125 82.269531 262.113281 C 83.5 262.675781 83.90625 262.824219 84.078125 262.859375 C 84.222656 262.90625 84.921875 263.210938 85.90625 263.675781 C 86.351562 263.886719 87.847656 264.578125 88.234375 264.578125 C 88.277344 264.589844 88.402344 264.65625 88.480469 264.75 C 88.753906 265.078125 89.246094 265.316406 89.65625 265.316406 C 89.789062 265.324219 90.441406 265.472656 91.214844 265.746094 C 95.097656 267.125 96.128906 267.292969 96.675781 267.121094 C 96.699219 267.113281 96.941406 267.054688 97.597656 267.511719 C 98.273438 267.976562 98.992188 268.234375 99.683594 268.210938 C 100.460938 268.1875 101.925781 268.6875 102.269531 269.03125 C 102.621094 269.382812 103.359375 269.476562 103.734375 269.476562 C 104.054688 269.476562 104.847656 269.667969 105.480469 269.9375 C 106.152344 270.226562 107.386719 270.621094 108.222656 270.8125 C 109.027344 270.996094 110.277344 271.316406 111.011719 271.527344 C 111.785156 271.746094 113.242188 271.976562 114.261719 272.042969 C 115.320312 272.113281 116.144531 272.28125 116.292969 272.347656 C 116.632812 272.527344 117.238281 272.664062 117.703125 272.664062 C 118.917969 272.667969 120.683594 272.863281 121.902344 273.132812 C 122.632812 273.292969 124.488281 273.460938 126.117188 273.507812 C 127.765625 273.554688 128.992188 273.703125 129.1875 273.769531 C 129.65625 274.019531 130.875 274.007812 131.523438 273.960938 C 132.566406 273.882812 134.996094 273.703125 135.503906 274.015625 C 135.804688 274.199219 136.257812 274.265625 136.6875 274.265625 C 136.90625 274.265625 137.121094 274.246094 137.304688 274.222656 C 137.835938 274.144531 138.757812 274.03125 139.355469 273.976562 C 139.914062 273.925781 140.6875 273.828125 141.003906 273.757812 C 141.21875 273.722656 142.566406 273.738281 144.28125 273.851562 C 146.441406 273.988281 150.613281 273.9375 151.636719 273.359375 C 151.957031 273.300781 153.34375 273.234375 155.320312 273.277344 C 159.183594 273.347656 159.464844 273.125 159.546875 273.0625 C 159.648438 273.007812 160.136719 272.871094 160.753906 272.78125 C 161.433594 272.679688 162.210938 272.542969 162.519531 272.464844 C 162.753906 272.40625 163.851562 272.25 165.054688 272.125 C 166.230469 272 167.8125 271.710938 168.582031 271.476562 C 169.269531 271.269531 170.382812 271.078125 171.007812 271.0625 C 171.726562 271.042969 173.398438 270.734375 174.800781 270.363281 C 178.566406 269.375 180.398438 268.972656 181.117188 268.972656 C 181.285156 268.972656 182.085938 268.949219 182.417969 268.53125 C 182.472656 268.507812 182.578125 268.476562 182.699219 268.476562 C 182.976562 268.476562 183.539062 268.40625 183.8125 268.164062 C 183.90625 268.101562 184.429688 267.882812 185.214844 267.652344 C 190.417969 266.097656 197.011719 263.691406 199.613281 262.398438 C 200.515625 261.953125 201.234375 261.65625 201.402344 261.613281 C 201.582031 261.589844 202.117188 261.425781 204.179688 260.292969 C 205.445312 259.597656 206.976562 258.761719 207.574219 258.4375 C 208.035156 258.1875 208.789062 257.761719 208.992188 257.609375 C 209.066406 257.554688 209.472656 257.375 209.953125 257.214844 C 210.554688 257.023438 211.78125 256.324219 212.625 255.757812 C 213.488281 255.171875 214.660156 254.511719 215.183594 254.304688 C 215.816406 254.054688 216.585938 253.574219 216.9375 253.210938 C 217.535156 252.574219 219.375 251.417969 219.707031 251.339844 C 220.035156 251.339844 220.808594 250.882812 222.007812 249.976562 C 223.003906 249.234375 223.886719 248.667969 224.089844 248.589844 C 224.273438 248.519531 224.816406 248.273438 224.957031 247.851562 C 225.089844 247.714844 225.503906 247.363281 226.136719 246.929688 C 226.914062 246.394531 227.84375 245.703125 228.207031 245.382812 C 231.210938 242.738281 233.386719 241.035156 233.824219 240.804688 C 234.285156 240.726562 234.652344 240.222656 234.730469 240.113281 C 234.835938 239.964844 235.292969 239.566406 235.769531 239.285156 C 236.269531 238.988281 236.9375 238.386719 237.179688 237.851562 C 237.28125 237.625 238.054688 236.757812 239.03125 235.90625 C 241.984375 233.332031 243.9375 231.316406 245.375 229.355469 C 245.738281 228.863281 246.183594 228.34375 246.363281 228.191406 C 246.640625 227.941406 247.445312 227.03125 248.0625 226.292969 C 251.484375 222.195312 252.640625 220.828125 253.476562 219.933594 C 254.015625 219.34375 254.644531 218.492188 254.902344 218 C 255.117188 217.578125 255.679688 216.726562 256.128906 216.136719 C 256.769531 215.285156 259.980469 211.003906 259.992188 210.464844 C 259.992188 210.558594 259.964844 210.617188 259.964844 210.625 C 260 210.546875 260.226562 210.226562 260.59375 209.808594 C 260.789062 209.589844 261.414062 208.839844 261.460938 208.328125 C 261.507812 208.164062 261.8125 207.546875 262.355469 206.71875 C 263.203125 205.402344 263.375 205.003906 263.414062 204.828125 C 263.464844 204.695312 263.703125 204.21875 264.109375 203.523438 C 265.214844 201.648438 266.25 199.773438 267.265625 197.789062 C 267.785156 196.785156 268.269531 195.851562 268.40625 195.605469 C 268.941406 194.652344 270.410156 191.375 270.75 190.367188 C 270.921875 189.867188 271.25 189.128906 271.46875 188.753906 C 271.695312 188.367188 271.941406 187.796875 271.976562 187.367188 C 272.265625 187.222656 272.46875 186.878906 272.46875 186.457031 C 272.46875 186.355469 272.582031 185.949219 272.773438 185.582031 C 272.988281 185.175781 273.203125 184.574219 273.203125 184.21875 C 273.203125 184.136719 273.296875 183.84375 273.4375 183.640625 C 273.699219 183.265625 273.9375 182.5625 274.035156 182.09375 C 274.121094 181.660156 274.332031 180.984375 274.492188 180.617188 C 275.121094 179.171875 275.320312 178.535156 277.085938 172.09375 C 277.476562 170.65625 278.03125 168.507812 278.320312 167.300781 C 278.613281 166.082031 278.957031 164.71875 279.089844 164.257812 C 279.515625 162.753906 279.828125 161.210938 280.058594 159.402344 C 280.183594 158.460938 280.390625 157.039062 280.527344 156.242188 C 280.871094 154.207031 281.835938 145.839844 281.847656 144.769531 C 281.855469 144.28125 281.84375 142.902344 281.824219 141.699219 C 281.804688 140.496094 281.855469 138.234375 281.925781 136.667969 C 281.992188 134.929688 281.917969 132.871094 281.734375 131.550781 Z M 80.332031 37.199219 C 80.273438 37.207031 80.171875 37.199219 80.070312 37.140625 C 80.136719 37.175781 80.226562 37.195312 80.332031 37.199219 Z M 47.785156 237.363281 C 47.847656 237.386719 47.910156 237.398438 47.957031 237.398438 C 47.871094 237.398438 47.8125 237.375 47.785156 237.363281 Z M 47.785156 237.363281 " fill-opacity="1" fill-rule="nonzero"/><path fill="#633039" d="M 111.648438 159.109375 C 111.703125 159.628906 111.933594 159.992188 112.328125 160.164062 C 112.65625 160.308594 112.921875 160.515625 112.921875 160.628906 C 112.921875 160.742188 113.214844 160.832031 113.5625 160.832031 C 113.914062 160.832031 114.261719 160.917969 114.332031 161.027344 C 114.496094 161.292969 122.644531 161.132812 131.496094 160.6875 C 133.523438 160.585938 135.417969 160.503906 135.710938 160.503906 C 136.003906 160.503906 136.589844 160.402344 137.03125 160.28125 C 137.464844 160.15625 139.125 159.996094 140.71875 159.917969 C 143.929688 159.765625 146.367188 159.5625 147.570312 159.355469 C 148.003906 159.277344 148.894531 159.15625 149.542969 159.09375 C 150.199219 159.027344 151.144531 158.855469 151.648438 158.710938 C 152.15625 158.570312 153.195312 158.457031 153.957031 158.457031 C 155.164062 158.457031 155.34375 158.382812 155.34375 157.925781 C 155.34375 157.632812 155.554688 157.1875 155.8125 156.925781 C 156.441406 156.292969 156.390625 154.609375 155.722656 154.121094 C 155.15625 153.707031 153.054688 153.359375 152.640625 153.617188 C 152.488281 153.710938 152.433594 153.679688 152.511719 153.550781 C 152.691406 153.257812 147.921875 153.253906 146.714844 153.542969 C 146.238281 153.65625 145.855469 153.644531 145.855469 153.515625 C 145.855469 153.382812 145.46875 153.3125 145 153.355469 C 144.53125 153.394531 142.78125 153.480469 141.117188 153.539062 C 139.453125 153.597656 137.761719 153.734375 137.363281 153.835938 C 136.882812 153.960938 136.640625 153.917969 136.640625 153.71875 C 136.640625 153.503906 136.265625 153.46875 135.390625 153.59375 C 134.699219 153.691406 131.351562 153.8125 127.945312 153.859375 C 121.496094 153.957031 120.402344 154.007812 115.824219 154.480469 C 112.367188 154.832031 112.089844 154.894531 111.453125 155.472656 C 110.875 156.003906 110.75 157.628906 111.257812 158.050781 C 111.429688 158.207031 111.609375 158.675781 111.648438 159.109375 Z M 111.648438 159.109375 " fill-opacity="1" fill-rule="nonzero"/><path fill="#633039" d="M 182.097656 88.082031 C 182.179688 88.34375 182.347656 88.5 182.472656 88.421875 C 182.597656 88.34375 182.644531 88.578125 182.574219 88.933594 C 182.503906 89.316406 182.574219 89.582031 182.746094 89.582031 C 182.90625 89.582031 183.039062 89.695312 183.039062 89.832031 C 183.039062 90.375 184.871094 92.035156 186.21875 92.71875 C 187.789062 93.519531 188.246094 93.5 189.179688 92.636719 C 190.382812 91.523438 191.257812 86.179688 190.523438 84.421875 C 190.316406 83.921875 190.15625 83.457031 190.167969 83.378906 C 190.300781 82.59375 189.027344 79.558594 188.5625 79.558594 C 188.421875 79.558594 188.308594 79.390625 188.308594 79.183594 C 188.308594 78.429688 186.414062 77.191406 185.269531 77.191406 C 184.078125 77.191406 182.777344 77.691406 182.777344 78.140625 C 182.777344 78.304688 182.5625 78.71875 182.304688 79.066406 C 181.246094 80.488281 180.832031 85.59375 181.652344 87.078125 C 181.820312 87.367188 182.015625 87.820312 182.097656 88.082031 Z M 182.097656 88.082031 " fill-opacity="1" fill-rule="nonzero"/><path fill="#633039" d="M 80.34375 90.695312 C 80.480469 90.65625 80.660156 90.863281 80.738281 91.160156 C 81.046875 92.351562 83.347656 91.816406 85 90.160156 C 87.46875 87.691406 91.222656 79.878906 90.929688 77.820312 C 90.769531 76.691406 90.191406 75.34375 89.859375 75.34375 C 89.664062 75.34375 89.507812 75.21875 89.507812 75.066406 C 89.507812 74.910156 89.402344 74.851562 89.277344 74.929688 C 89.152344 75.003906 88.894531 74.898438 88.71875 74.679688 C 88.175781 74.027344 85.296875 74.742188 85.296875 75.535156 C 85.296875 75.714844 84.792969 76.117188 84.179688 76.429688 C 83.5625 76.742188 82.777344 77.304688 82.429688 77.671875 C 82.085938 78.042969 81.582031 78.363281 81.308594 78.378906 C 80.722656 78.421875 79.992188 79.285156 80.152344 79.738281 C 80.300781 80.160156 79.488281 82.195312 79.171875 82.195312 C 79.035156 82.195312 78.988281 82.375 79.070312 82.59375 C 79.15625 82.816406 78.96875 83.488281 78.65625 84.089844 C 78.097656 85.160156 78.023438 86.03125 78.328125 87.992188 C 78.46875 88.945312 79.878906 90.832031 80.34375 90.695312 Z M 80.34375 90.695312 " fill-opacity="1" fill-rule="nonzero"/><path fill="#633039" d="M 13.425781 179.128906 C 13.660156 179.753906 13.8125 180.242188 13.832031 180.3125 C 13.832031 180.335938 14.128906 182.433594 14.820312 183.082031 C 14.84375 183.183594 14.878906 183.398438 14.878906 183.695312 C 14.878906 184.460938 15.128906 185.234375 15.550781 185.773438 C 15.699219 185.960938 15.789062 186.128906 15.824219 186.222656 C 15.730469 186.585938 15.894531 187.027344 16.253906 187.324219 C 16.339844 187.433594 16.542969 187.945312 16.628906 188.582031 C 16.746094 189.46875 16.929688 189.925781 17.136719 190.160156 C 17.03125 190.585938 17.214844 190.824219 17.347656 190.933594 C 17.425781 190.992188 17.519531 191.046875 17.632812 191.070312 C 17.804688 191.585938 18.136719 192.335938 18.363281 192.820312 C 18.773438 193.695312 19.054688 194.390625 19.101562 194.570312 C 19.132812 194.933594 19.421875 195.296875 19.652344 195.488281 C 19.683594 195.523438 19.738281 195.695312 19.703125 195.890625 C 19.640625 196.214844 19.617188 196.671875 19.878906 196.980469 C 19.957031 197.074219 20.050781 197.148438 20.164062 197.195312 C 20.207031 197.523438 20.386719 197.796875 20.640625 197.9375 C 20.640625 197.957031 20.636719 197.976562 20.628906 198 C 20.5625 198.339844 20.539062 198.808594 20.789062 199.113281 C 20.835938 199.164062 20.890625 199.214844 20.949219 199.253906 C 20.980469 199.660156 21.1875 199.980469 21.484375 200.101562 C 21.894531 200.617188 23.050781 203.09375 23.214844 203.796875 C 23.121094 204.082031 23.269531 204.570312 24.132812 205.910156 C 24.648438 206.714844 25.703125 208.636719 26.476562 210.191406 C 27.472656 212.191406 28.183594 213.292969 28.597656 213.488281 C 28.664062 213.988281 29.167969 214.558594 29.277344 214.671875 C 29.480469 214.886719 29.609375 215.101562 29.652344 215.183594 C 29.703125 215.628906 30.164062 216.195312 30.3125 216.363281 C 30.464844 216.542969 30.566406 216.691406 30.621094 216.773438 C 30.644531 217.003906 30.839844 217.398438 31.519531 218.265625 C 31.945312 218.816406 32.683594 219.929688 33.128906 220.691406 C 34.324219 222.761719 34.582031 223.160156 35.085938 223.738281 C 35.28125 223.964844 35.617188 224.464844 35.800781 224.808594 C 35.980469 225.148438 38.410156 228.054688 39.683594 229 C 39.742188 229.203125 39.898438 229.394531 40.023438 229.546875 C 40.207031 229.773438 40.433594 229.933594 40.660156 230.011719 C 40.738281 230.328125 40.957031 230.726562 41.355469 231.308594 C 42.195312 232.53125 46.191406 237.472656 47.460938 237.472656 C 47.511719 237.472656 47.699219 237.558594 48.289062 238.683594 C 48.652344 239.375 49.714844 240.523438 50.539062 241.234375 C 51.398438 241.984375 52.332031 242.796875 52.605469 243.042969 C 52.855469 243.269531 53.183594 243.472656 53.5 243.519531 C 54.398438 245.03125 59.386719 248.75 60.066406 248.839844 C 60.136719 248.851562 60.238281 248.863281 60.34375 248.871094 C 60.390625 249.15625 60.535156 249.441406 60.71875 249.671875 C 61.035156 250.074219 61.382812 250.171875 61.660156 250.125 C 62.277344 251.03125 63.871094 252.3125 64.792969 252.761719 C 65.417969 253.074219 66.105469 253.546875 66.308594 253.773438 C 66.703125 254.210938 68.148438 255.1875 69.144531 255.359375 C 69.328125 255.824219 69.949219 256.109375 70.828125 256.511719 C 71.179688 256.675781 72.121094 257.160156 72.886719 257.578125 C 73.476562 257.898438 74.125 258.246094 74.640625 258.214844 C 74.660156 258.285156 74.671875 258.359375 74.683594 258.40625 L 74.789062 258.851562 L 75.1875 258.929688 C 75.371094 258.964844 75.539062 258.929688 75.695312 258.816406 C 76.230469 259.425781 77.289062 260.097656 77.796875 260.203125 C 77.859375 260.214844 77.917969 260.222656 77.972656 260.226562 C 78.121094 260.539062 78.398438 260.757812 78.730469 260.800781 C 78.90625 261.121094 79.304688 261.335938 79.679688 261.4375 C 79.941406 261.507812 80.914062 261.886719 81.902344 262.324219 C 84.886719 263.636719 85.269531 263.78125 85.386719 263.804688 C 85.476562 263.835938 86.003906 264.066406 86.765625 264.417969 C 89.65625 265.746094 90.609375 266.089844 93.558594 266.863281 C 94.695312 267.164062 96.0625 267.394531 96.675781 267.394531 C 96.894531 267.394531 97.039062 267.40625 97.121094 267.417969 C 97.167969 267.601562 97.269531 267.777344 97.417969 267.925781 C 97.90625 268.390625 98.792969 268.460938 99.453125 268.429688 C 100.148438 268.40625 101.617188 268.894531 102.144531 269.339844 C 102.542969 269.667969 102.882812 269.777344 103.246094 269.652344 C 103.390625 269.738281 103.597656 269.789062 103.886719 269.703125 C 104.0625 269.722656 104.625 269.871094 105.339844 270.191406 C 107.1875 271.027344 111.25 272.039062 113.695312 272.269531 C 114.320312 272.328125 115.195312 272.453125 115.609375 272.539062 C 116.066406 272.632812 116.816406 272.734375 117.273438 272.765625 C 117.65625 272.789062 118.011719 272.878906 118.078125 272.90625 C 118.5 273.175781 119.46875 273.179688 119.582031 273.179688 C 119.582031 273.179688 119.589844 273.179688 119.589844 273.179688 C 120.289062 273.179688 121.472656 273.304688 121.925781 273.382812 C 122.292969 273.613281 123.347656 273.726562 126.320312 273.828125 C 127.742188 273.878906 128.832031 274.015625 129.074219 274.089844 C 129.597656 274.40625 130.910156 274.359375 131.179688 274.339844 C 134.050781 274.199219 135.132812 274.179688 135.480469 274.394531 C 135.78125 274.578125 136.222656 274.65625 136.628906 274.65625 C 136.828125 274.65625 137.027344 274.640625 137.199219 274.601562 C 138.75 274.277344 139.566406 274.226562 142.996094 274.269531 C 150.316406 274.351562 151.90625 273.917969 152.292969 273.496094 C 152.71875 273.621094 153.625 273.667969 155.667969 273.65625 C 158.898438 273.632812 159.523438 273.476562 159.738281 273.289062 C 159.875 273.234375 160.242188 273.140625 160.738281 273.074219 C 162.167969 272.890625 162.890625 272.792969 163.222656 272.589844 C 163.304688 272.578125 163.429688 272.5625 163.597656 272.550781 C 165.257812 272.417969 167.585938 272.074219 168.582031 271.800781 C 169.117188 271.65625 170.132812 271.503906 170.792969 271.464844 C 171.542969 271.425781 173.273438 271.097656 174.730469 270.710938 C 176.121094 270.347656 180.351562 269.238281 181.308594 269.238281 C 181.460938 269.238281 182.199219 269.214844 182.542969 268.816406 C 182.824219 268.65625 183.8125 268.390625 184.066406 268.402344 C 184.285156 268.4375 184.511719 268.375 184.679688 268.234375 C 184.792969 268.140625 184.875 268.015625 184.917969 267.875 C 184.964844 267.851562 185.023438 267.828125 185.101562 267.8125 C 185.429688 267.726562 186.464844 267.476562 187.402344 267.25 L 187.546875 267.214844 C 189.816406 266.667969 189.859375 266.65625 191.078125 266.199219 L 191.15625 266.167969 C 192.535156 265.652344 193.070312 265.4375 194.335938 264.902344 C 194.835938 264.691406 195.960938 264.277344 196.847656 263.972656 C 197.773438 263.65625 199.203125 263.03125 200.039062 262.578125 C 200.808594 262.164062 201.4375 261.882812 201.574219 261.847656 L 201.574219 261.839844 C 202.605469 261.578125 209.019531 257.839844 209.0625 257.8125 C 209.15625 257.75 209.710938 257.5 210.460938 257.222656 C 211.191406 256.949219 212.421875 256.304688 213.203125 255.78125 C 213.890625 255.316406 214.894531 254.785156 215.390625 254.636719 C 216.003906 254.449219 216.761719 253.976562 217.050781 253.449219 C 217.074219 253.40625 217.089844 253.371094 217.113281 253.339844 C 217.25 253.351562 217.386719 253.324219 217.511719 253.25 C 217.671875 253.160156 217.785156 253.019531 217.847656 252.839844 C 218.019531 252.703125 218.46875 252.40625 219.148438 252.066406 C 220.046875 251.613281 221.550781 250.699219 222.503906 250.019531 C 223.40625 249.375 224.035156 249.007812 224.222656 248.921875 C 224.570312 248.886719 224.863281 248.648438 224.964844 248.328125 C 225.417969 247.859375 227.785156 245.976562 228.90625 245.273438 C 229.4375 244.941406 231.386719 243.238281 233.035156 241.75 C 233.488281 241.339844 233.832031 241.078125 233.960938 240.988281 C 234.148438 240.929688 234.46875 240.726562 235.144531 240.046875 C 235.496094 239.695312 235.828125 239.476562 235.949219 239.429688 C 236.625 239.371094 237.125 238.433594 237.1875 238.328125 C 237.574219 237.582031 239.890625 235.234375 240.457031 234.933594 C 240.820312 234.863281 241.289062 234.484375 241.867188 233.796875 C 242.289062 233.292969 243.003906 232.507812 243.449219 232.054688 C 243.917969 231.570312 244.707031 230.636719 245.214844 229.964844 C 246.089844 228.796875 246.851562 227.921875 249.765625 224.757812 C 250.648438 223.792969 251.898438 222.355469 252.554688 221.558594 C 253.175781 220.792969 254.027344 219.808594 254.414062 219.410156 C 254.617188 219.203125 255.246094 218.515625 255.300781 217.976562 C 255.367188 217.816406 255.6875 217.273438 256.226562 216.589844 C 257.089844 215.503906 257.324219 215.101562 257.386719 214.890625 C 257.5 214.691406 258 213.941406 258.742188 212.933594 C 259.953125 211.296875 260.230469 210.773438 260.289062 210.546875 C 260.351562 210.457031 260.523438 210.238281 260.777344 209.992188 C 260.859375 209.914062 261.585938 209.21875 261.621094 208.617188 C 261.667969 208.464844 261.9375 207.890625 262.414062 207.160156 C 262.914062 206.390625 263.5 205.398438 263.722656 204.945312 C 264.203125 203.96875 266.316406 200.003906 267.039062 198.714844 C 267.425781 198.023438 267.550781 197.671875 267.550781 197.445312 C 267.628906 197.296875 267.796875 197.027344 268.050781 196.648438 C 268.449219 196.070312 268.949219 195.195312 269.105469 194.707031 C 269.191406 194.425781 269.507812 193.765625 269.824219 193.261719 C 270.167969 192.710938 270.660156 191.613281 270.953125 190.765625 C 271.234375 189.949219 271.582031 189.140625 271.726562 188.925781 C 271.941406 188.59375 272.160156 188.035156 272.160156 187.605469 C 272.160156 187.582031 272.191406 187.527344 272.191406 187.527344 C 272.429688 187.4375 272.625 187.273438 272.742188 187.0625 C 272.878906 186.832031 272.910156 186.570312 272.839844 186.324219 C 272.84375 186.230469 272.902344 185.972656 273.039062 185.707031 C 273.273438 185.253906 273.515625 184.582031 273.585938 184.164062 C 273.640625 183.859375 273.777344 183.539062 273.832031 183.46875 C 274.09375 183.136719 274.300781 182.289062 274.382812 181.84375 C 274.484375 181.296875 274.660156 180.824219 274.710938 180.742188 C 274.957031 180.449219 275.195312 179.800781 275.3125 179.320312 C 275.425781 178.867188 275.644531 178.136719 275.792969 177.722656 C 276.128906 176.796875 277.679688 170.746094 278.351562 167.765625 C 278.613281 166.597656 278.890625 165.640625 278.980469 165.46875 C 279.152344 165.132812 279.277344 164.53125 279.277344 164.074219 C 279.277344 164.03125 279.277344 163.996094 279.285156 163.96875 C 279.578125 163.878906 279.695312 163.675781 279.738281 163.574219 C 279.808594 163.40625 279.800781 163.230469 279.730469 163.070312 C 279.742188 162.878906 279.800781 162.402344 279.957031 161.765625 C 280.160156 160.894531 280.332031 159.605469 280.332031 158.882812 C 280.332031 158.394531 280.402344 158.027344 280.445312 157.882812 C 280.820312 157.507812 280.859375 156.699219 280.859375 156.347656 C 280.859375 155.859375 280.96875 155.0625 281.085938 154.605469 C 281.230469 154.054688 281.425781 152.621094 281.53125 151.335938 C 281.632812 150.105469 281.765625 148.628906 281.820312 148.050781 C 282.121094 144.984375 282.253906 132.996094 282.007812 131.167969 C 281.878906 130.210938 281.710938 128.28125 281.503906 125.277344 C 281.4375 124.351562 281.3125 123.132812 281.222656 122.691406 C 281.160156 122.386719 281.050781 121.449219 280.984375 120.523438 C 280.890625 119.1875 280.671875 116.851562 280.230469 116.269531 C 280.023438 115.917969 279.527344 113.773438 279.558594 113.382812 C 279.625 112.996094 279.492188 112.296875 279.410156 111.984375 C 279.304688 111.546875 278.96875 110.183594 278.671875 108.953125 C 278.398438 107.816406 277.972656 106.351562 277.722656 105.859375 C 277.660156 105.746094 277.625 105.648438 277.597656 105.578125 C 277.695312 105.304688 277.613281 105 277.359375 104.703125 C 277.28125 104.570312 277.101562 103.917969 277.007812 103.070312 C 276.960938 102.667969 276.789062 101.308594 276.515625 100.957031 C 276.449219 100.847656 276.257812 100.246094 276.097656 99.464844 C 275.929688 98.644531 275.691406 97.683594 275.5625 97.296875 C 275.304688 96.566406 273.640625 92.160156 273.308594 91.332031 C 273.195312 91.058594 273.117188 90.820312 273.113281 90.78125 C 273.101562 90.707031 273.078125 90.519531 272.011719 88.355469 C 271.453125 87.214844 270.566406 85.394531 270.042969 84.308594 C 269.566406 83.320312 268.894531 82.066406 268.585938 81.683594 C 268.414062 81.46875 268.035156 80.738281 267.789062 80.078125 C 267.597656 79.558594 267.164062 78.59375 266.785156 78.28125 C 266.726562 78.230469 266.636719 78.042969 266.636719 77.941406 C 266.636719 77.464844 266.421875 77.082031 266.101562 76.921875 C 266.066406 76.546875 265.867188 76.25 265.59375 76.125 C 265.429688 75.898438 265.007812 75.214844 264.460938 74.136719 C 264.335938 73.890625 263.246094 71.765625 262.816406 71.410156 C 262.753906 71.355469 262.691406 71.25 262.6875 71.238281 C 262.6875 70.664062 261.902344 69.964844 261.664062 69.761719 C 261.496094 69.617188 261.378906 69.511719 261.296875 69.429688 C 261.265625 69.140625 261.058594 68.867188 260.859375 68.652344 C 260.808594 68.59375 260.765625 68.539062 260.734375 68.5 C 260.796875 68.160156 260.582031 67.730469 260.105469 67.214844 C 259.207031 66.25 258.179688 64.941406 257.421875 63.800781 C 257.394531 63.761719 256.75 62.789062 256.269531 62.421875 C 256.304688 62.242188 256.28125 62.0625 256.199219 61.914062 C 256.109375 61.761719 255.972656 61.648438 255.804688 61.59375 C 255.574219 61.378906 254.890625 60.625 254.035156 59.539062 C 252.660156 57.808594 252.125 57.289062 251.84375 57.140625 C 251.828125 57.105469 251.808594 57.058594 251.792969 57 C 251.65625 56.476562 251.019531 55.898438 250.476562 55.582031 C 250.042969 55.324219 249.566406 54.851562 249.429688 54.601562 C 249.175781 54.117188 248.609375 53.5625 248.128906 53.3125 C 247.882812 53.1875 247.195312 52.582031 246.617188 51.875 C 245.183594 50.125 244.5 49.472656 243.554688 48.972656 C 243.238281 48.808594 242.984375 48.5625 242.941406 48.5 C 242.679688 47.796875 239.785156 45.058594 238.65625 44.710938 C 238.53125 44.398438 238.195312 44.171875 237.796875 44.152344 C 237.710938 44.109375 237.496094 43.957031 237.3125 43.71875 C 237.179688 43.550781 234.546875 40.785156 233.625 40.785156 C 233.617188 40.785156 233.617188 40.785156 233.613281 40.785156 C 233.402344 40.761719 232.804688 40.46875 232.601562 40.296875 C 232.304688 39.597656 230.835938 39.058594 230.15625 38.84375 C 230.316406 38.535156 230.289062 38.277344 230.210938 38.097656 C 230.125 37.898438 229.882812 37.558594 229.191406 37.558594 C 229.105469 37.558594 228.902344 37.460938 228.832031 37.378906 C 228.558594 37.050781 228.074219 36.808594 227.609375 36.765625 C 227.523438 36.46875 227.300781 36.355469 227.21875 36.320312 C 227.085938 36.265625 226.945312 36.253906 226.808594 36.289062 C 226.75 36.253906 226.671875 36.195312 226.589844 36.117188 C 226.230469 35.785156 225.617188 35.445312 225.148438 35.445312 C 225.121094 35.445312 225.066406 35.421875 225.070312 35.4375 C 224.898438 34.984375 224.382812 34.648438 223.976562 34.523438 C 223.757812 34.449219 223.28125 34.195312 222.964844 33.949219 C 222.574219 33.640625 221.902344 33.332031 221.367188 33.332031 C 221.308594 33.332031 221.265625 33.320312 221.242188 33.308594 C 221.097656 32.777344 220.5625 32.472656 219.648438 32.390625 C 218.878906 32.324219 218.695312 32.234375 218.683594 32.246094 C 218.683594 32.246094 218.679688 32.230469 218.679688 32.175781 C 218.679688 31.777344 218.5 31.5625 218.34375 31.457031 C 217.984375 31.1875 217.523438 31.332031 217.386719 31.378906 C 217.273438 31.402344 216.792969 31.320312 216.054688 30.933594 C 215.335938 30.558594 214.289062 30.105469 213.710938 29.933594 C 213.328125 29.8125 213.078125 29.695312 212.992188 29.640625 C 212.363281 28.8125 209.914062 28.058594 209.585938 28.058594 C 209.515625 28.046875 209.289062 27.9375 209.132812 27.777344 C 208.644531 27.289062 207.972656 27.015625 207.421875 27.082031 C 207.242188 27.097656 207.085938 27.15625 206.949219 27.242188 C 206.273438 26.546875 203.941406 25.585938 203.074219 25.808594 C 203.042969 25.8125 203.019531 25.820312 202.996094 25.824219 C 202.828125 25.582031 202.527344 25.40625 202.21875 25.425781 C 202.128906 25.40625 201.832031 25.269531 201.558594 25.058594 C 201.136719 24.722656 200.386719 24.394531 199.816406 24.292969 C 199.363281 24.210938 198.785156 24.085938 198.542969 24.027344 C 198.246094 23.949219 197.691406 23.878906 197.269531 23.867188 C 197.039062 23.859375 196.640625 23.695312 196.464844 23.539062 C 196.152344 23.253906 195.585938 22.917969 195.132812 22.84375 C 194.914062 22.808594 194.664062 22.695312 194.605469 22.652344 C 194.253906 22.367188 193.664062 22.347656 193.261719 22.449219 C 193.171875 22.472656 192.976562 22.425781 192.886719 22.34375 C 192.515625 21.972656 192.105469 21.824219 191.773438 21.917969 C 191.761719 21.914062 191.75 21.902344 191.738281 21.890625 C 191.453125 21.65625 191.023438 21.484375 190.644531 21.574219 C 190.363281 21.3125 189.902344 21.222656 189.464844 21.367188 C 189.335938 21.390625 188.820312 21.34375 188.277344 21.15625 C 187.722656 20.96875 187.011719 20.777344 186.617188 21.042969 C 186.488281 21.039062 186.253906 21.007812 185.957031 20.929688 C 185.375 20.777344 184.484375 20.664062 183.851562 20.65625 C 183.839844 20.609375 183.824219 20.570312 183.800781 20.515625 C 183.554688 20.039062 183.054688 20.199219 182.757812 20.292969 C 182.675781 20.320312 182.390625 20.28125 182.210938 20.164062 C 181.421875 19.652344 180.34375 19.28125 179.730469 19.617188 C 179.554688 19.71875 179.417969 19.867188 179.34375 20.050781 C 178.621094 20.175781 176.4375 19.667969 176.128906 19.277344 C 175.835938 18.855469 175.230469 18.832031 174.617188 19.210938 C 174.460938 19.304688 174.390625 19.355469 174.242188 19.3125 C 174.320312 19.199219 174.359375 19.054688 174.324219 18.871094 C 174.230469 18.347656 173.730469 18.335938 173.242188 18.324219 C 173.011719 18.320312 172.453125 18.335938 172.132812 18.652344 C 172.070312 18.710938 172.023438 18.769531 171.988281 18.84375 C 171.773438 18.867188 171.578125 18.949219 171.429688 19.082031 C 171.121094 18.9375 170.75 18.90625 170.449219 18.996094 C 170.363281 18.972656 170.179688 18.882812 169.988281 18.6875 C 169.242188 17.9375 167.734375 17.644531 166.796875 17.84375 C 166.261719 17.957031 165.988281 18.210938 165.851562 18.445312 C 165.851562 18.445312 165.851562 18.445312 165.84375 18.445312 C 165.617188 18.445312 165.375 18.515625 165.167969 18.617188 C 164.871094 18.320312 164.273438 18.1875 163.28125 18.179688 C 162.699219 18.175781 162.378906 18.117188 162.242188 18.074219 C 161.957031 17.605469 161.253906 17.472656 160.824219 17.542969 C 160.363281 17.621094 160.140625 17.894531 160.070312 18.167969 C 159.988281 18.195312 159.855469 18.195312 159.816406 18.167969 C 159.390625 17.820312 158.671875 17.820312 158.136719 17.9375 C 157.699219 18.03125 157.660156 17.992188 157.585938 17.882812 C 157.191406 17.34375 156.484375 17.164062 155.941406 17.457031 C 155.621094 17.628906 155.445312 17.929688 155.429688 18.277344 C 155.355469 18.253906 155.265625 18.210938 155.175781 18.15625 C 154.855469 17.957031 154.347656 17.84375 153.949219 18.050781 C 153.695312 18.105469 152.601562 18.195312 151.148438 18.210938 C 146.589844 18.277344 138.386719 18.570312 137.601562 18.722656 C 136.914062 18.859375 132.257812 19.164062 129.871094 19.199219 C 128.84375 19.21875 128.269531 19.320312 127.960938 19.503906 C 127.699219 19.484375 127.421875 19.59375 127.175781 19.800781 C 127.171875 19.800781 127.105469 19.800781 126.925781 19.707031 C 126.207031 19.320312 125.71875 19.414062 125.261719 20.042969 C 124.511719 19.609375 122.953125 19.507812 122.253906 19.992188 C 121.957031 19.929688 121.628906 20.097656 121.160156 20.539062 C 120.820312 20.859375 120.796875 20.878906 120.296875 20.734375 C 120.027344 20.65625 119.339844 20.460938 118.917969 20.78125 C 118.148438 20.335938 116.628906 20.640625 115.890625 20.882812 C 115.121094 21.132812 114.652344 21.4375 114.449219 21.84375 C 114.128906 21.808594 113.777344 21.914062 113.5 22.144531 C 113.476562 22.164062 113.457031 22.175781 113.457031 22.183594 C 113.4375 22.183594 113.386719 22.167969 113.265625 22.105469 C 112.511719 21.699219 112.089844 21.933594 111.871094 22.1875 C 111.429688 22.0625 110.988281 22.210938 110.804688 22.558594 C 110.734375 22.605469 110.601562 22.652344 110.484375 22.675781 C 110.289062 22.433594 109.9375 22.277344 109.515625 22.277344 C 109.074219 22.277344 108.769531 22.417969 108.609375 22.699219 C 108.609375 22.707031 108.605469 22.710938 108.605469 22.710938 C 108.210938 22.789062 107.832031 22.984375 107.675781 23.074219 C 107.527344 23.15625 107.421875 23.21875 107.34375 23.253906 C 107.230469 23.09375 107.046875 22.882812 106.742188 22.835938 C 106.339844 22.777344 106.042969 23.039062 105.796875 23.253906 C 105.691406 23.347656 105.566406 23.402344 105.5 23.414062 C 105.042969 23.289062 104.476562 23.558594 104.113281 23.890625 C 103.9375 24.050781 103.507812 24.222656 103.246094 24.234375 C 102.753906 24.257812 102.042969 24.46875 101.597656 24.710938 C 101.382812 24.832031 100.5625 25.007812 99.773438 25.019531 C 98.695312 25.03125 97.941406 25.164062 97.511719 25.742188 C 97.453125 25.820312 97.15625 25.960938 96.871094 25.960938 C 96.222656 25.960938 95.765625 26.15625 95.585938 26.484375 C 95.5625 26.484375 95.53125 26.492188 95.503906 26.492188 C 95.0625 26.492188 93.835938 26.777344 92.902344 27.039062 C 92.179688 27.246094 91.738281 27.324219 91.511719 27.347656 C 91.316406 27.105469 91.019531 26.984375 90.714844 27.03125 C 90.335938 27.09375 90.054688 27.402344 89.984375 27.808594 C 89.675781 28.027344 88.742188 28.300781 88.445312 28.253906 C 87.898438 27.960938 87.113281 28.425781 86.875 28.582031 C 86.511719 28.820312 86.035156 29.007812 85.867188 29.03125 C 85.832031 29.039062 82.429688 29.769531 81.675781 30.707031 C 81.664062 30.707031 81.652344 30.707031 81.640625 30.707031 C 81.300781 30.707031 80.820312 30.800781 80.582031 31.039062 C 80.539062 31.0625 80.398438 31.128906 80.253906 31.144531 C 79.925781 31.195312 79.535156 31.382812 79.328125 31.699219 C 79.230469 31.730469 79.046875 31.765625 78.804688 31.765625 C 78.109375 31.765625 77.386719 32.035156 76.976562 32.449219 C 76.816406 32.609375 76.628906 32.695312 76.492188 32.660156 C 75.5625 32.414062 74.972656 33.164062 74.777344 33.414062 C 74.496094 33.769531 74.277344 33.878906 73.824219 33.878906 C 73.039062 33.878906 72.480469 34.140625 72.269531 34.597656 C 72.21875 34.628906 72.113281 34.671875 71.996094 34.671875 C 71.394531 34.671875 70.292969 35.195312 69.699219 35.546875 C 68.960938 35.980469 68.320312 36.234375 68.1875 36.253906 C 67.6875 36.253906 67.058594 36.6875 66.675781 37.085938 C 66.421875 37.355469 65.957031 37.605469 65.742188 37.628906 C 65.09375 37.707031 64.632812 38.050781 64.542969 38.523438 C 63.597656 38.605469 62.789062 39.074219 62.132812 39.933594 C 61.878906 40.265625 61.003906 40.996094 60.152344 41.511719 C 59.019531 42.199219 58.589844 42.597656 58.429688 42.855469 C 57.960938 42.914062 57.53125 43.355469 57.316406 43.761719 C 57.089844 44.1875 57.050781 44.265625 55.742188 45.0625 C 54.9375 45.550781 53.601562 46.710938 51.644531 48.605469 C 50.894531 49.335938 50.152344 49.933594 49.949219 50.039062 C 49.519531 50.265625 49.0625 50.808594 48.871094 51.296875 C 48.792969 51.492188 48.519531 51.773438 48.324219 51.84375 C 47.71875 52.074219 44.359375 54.925781 44.359375 55.777344 C 44.359375 55.652344 44.398438 55.574219 44.398438 55.570312 C 44.335938 55.683594 43.925781 56.1875 43.214844 56.886719 C 42.070312 58.015625 41.800781 58.523438 41.742188 58.765625 C 41.652344 58.886719 41.367188 59.175781 40.925781 59.488281 C 39.953125 60.175781 39.707031 60.488281 39.648438 60.6875 C 39.535156 60.851562 39.171875 61.300781 38.59375 61.925781 C 37.464844 63.152344 37.289062 63.625 37.257812 63.820312 C 37.101562 64.195312 35.941406 65.828125 34.445312 67.546875 C 33.433594 68.714844 33.316406 69.105469 33.296875 69.277344 C 33.273438 69.328125 33.214844 69.433594 33.128906 69.523438 C 32.667969 70.011719 31.785156 71.230469 31.410156 71.902344 C 30.773438 73.046875 28.96875 75.683594 27.890625 77.042969 C 27.21875 77.890625 26.378906 79.136719 26.015625 79.816406 C 25.667969 80.476562 25.191406 81.195312 24.984375 81.429688 C 24.835938 81.59375 24.339844 82.179688 24.339844 82.628906 C 24.28125 83.089844 23.050781 85.695312 22.597656 86.191406 C 22.34375 86.476562 21.933594 87.011719 22.007812 87.46875 C 21.96875 87.832031 21.320312 89.203125 20.890625 89.632812 C 20.503906 90.019531 20.027344 90.964844 19.785156 91.65625 L 19.011719 93.808594 C 18.921875 94.066406 18.828125 94.25 18.769531 94.339844 C 18.496094 94.476562 18.273438 94.808594 18.273438 95.375 C 18.273438 95.464844 18.257812 95.542969 18.238281 95.589844 C 18.085938 95.734375 17.804688 96.144531 17.394531 97.59375 C 17.214844 98.238281 17.039062 98.65625 16.941406 98.828125 C 16.621094 98.996094 16.425781 99.410156 16.425781 99.964844 C 16.425781 100.125 16.214844 100.820312 15.84375 101.53125 C 15.308594 102.542969 15.175781 102.894531 15.210938 103.121094 C 15.164062 103.292969 15.058594 103.660156 14.855469 104.210938 C 14.640625 104.804688 14.3125 105.851562 14.3125 106.28125 C 14.285156 106.683594 13.363281 109.578125 12.804688 110.828125 C 12.394531 111.738281 11.351562 116.339844 11.351562 117.222656 C 11.351562 117.574219 11.257812 117.964844 11.210938 118.066406 C 10.996094 118.472656 10.828125 119.574219 10.769531 120.101562 C 10.679688 120.871094 10.578125 121.394531 10.542969 121.523438 C 10.476562 121.664062 10.351562 122.074219 10.226562 123.589844 C 10.167969 124.347656 10.066406 124.875 10.007812 125.066406 C 9.746094 125.347656 9.578125 125.976562 9.550781 128.554688 C 9.542969 129.097656 9.382812 129.949219 9.207031 130.375 C 8.789062 131.375 9.003906 131.699219 9.082031 131.816406 L 9.179688 131.949219 C 9.210938 132.300781 9.179688 133.246094 8.90625 135.128906 C 8.808594 135.800781 8.6875 137.601562 8.632812 139.152344 C 8.585938 140.664062 8.484375 142.964844 8.414062 144.28125 C 8.34375 145.628906 8.410156 147.449219 8.5625 148.347656 C 8.699219 149.121094 8.707031 149.429688 8.695312 149.554688 C 8.519531 149.691406 8.394531 149.890625 8.347656 150.097656 C 8.296875 150.335938 8.332031 150.582031 8.4375 150.746094 C 8.484375 150.855469 8.605469 151.414062 8.675781 152.207031 C 8.859375 154.164062 8.984375 155.015625 9.3125 156.53125 C 9.46875 157.265625 9.441406 157.734375 9.417969 157.8125 C 9.140625 158.3125 9.230469 158.878906 9.664062 159.3125 C 9.472656 159.695312 9.566406 160.257812 9.949219 161.003906 C 10.214844 161.527344 10.375 162.347656 10.375 163.199219 C 10.375 164.671875 10.636719 165.109375 10.859375 165.265625 C 11 165.621094 11.226562 166.894531 11.214844 168.234375 C 11.210938 168.933594 11.324219 169.402344 11.542969 169.628906 L 11.621094 169.699219 C 11.785156 170.109375 12.03125 171.308594 11.996094 171.585938 C 11.90625 171.980469 12.171875 172.664062 12.257812 172.867188 C 12.375 173.148438 12.554688 174.023438 12.617188 174.824219 C 12.855469 177.253906 12.96875 177.898438 13.425781 179.128906 Z M 40.207031 229.285156 C 40.226562 229.285156 40.238281 229.285156 40.253906 229.285156 C 40.238281 229.292969 40.226562 229.292969 40.207031 229.285156 Z M 66.675781 247.984375 C 66.714844 248.007812 66.777344 248.058594 66.828125 248.167969 C 66.808594 248.132812 66.753906 248.074219 66.675781 247.984375 Z M 213.101562 29.835938 C 213.078125 29.777344 213.046875 29.71875 213 29.664062 C 213.035156 29.695312 213.070312 29.757812 213.101562 29.835938 Z M 14.324219 135.121094 C 14.457031 133.371094 14.597656 131.292969 14.640625 130.496094 C 14.675781 129.871094 14.710938 129.425781 14.734375 129.238281 C 14.878906 128.882812 14.996094 128.1875 15.09375 126.8125 C 15.121094 126.347656 15.230469 125.929688 15.265625 125.851562 C 15.527344 125.441406 15.652344 123.828125 15.679688 123.347656 C 15.742188 122.425781 15.890625 121.792969 15.960938 121.609375 C 16.269531 121.289062 16.460938 120.542969 16.53125 119.375 C 16.640625 117.597656 16.925781 116.691406 17.699219 115.648438 C 18.074219 115.144531 18.457031 114.214844 18.566406 113.542969 C 18.660156 112.953125 18.828125 112.296875 18.910156 112.078125 C 19.441406 110.714844 19.808594 109.546875 20.128906 108.171875 C 20.3125 107.394531 20.761719 105.988281 21.117188 105.035156 C 21.664062 103.597656 21.753906 103.054688 21.6875 102.78125 C 21.710938 102.710938 21.753906 102.601562 21.824219 102.472656 C 22.046875 102.070312 22.265625 101.421875 22.324219 100.996094 C 22.367188 100.691406 22.5625 100.113281 22.742188 99.75 C 22.960938 99.308594 23.179688 98.648438 23.179688 98.25 C 23.179688 98.183594 23.199219 98.121094 23.214844 98.082031 C 23.585938 97.785156 23.761719 97.054688 23.828125 96.738281 C 23.914062 96.316406 24.199219 95.5 24.449219 94.964844 C 24.726562 94.371094 25.21875 93.203125 25.546875 92.355469 C 25.796875 91.71875 26.003906 91.316406 26.113281 91.148438 C 26.410156 91 26.605469 90.644531 26.617188 90.183594 C 26.625 90.070312 26.765625 89.605469 27.003906 89.167969 C 27.253906 88.707031 27.789062 87.667969 28.207031 86.84375 C 28.515625 86.230469 28.792969 85.808594 28.925781 85.65625 C 29.097656 85.601562 29.242188 85.480469 29.328125 85.328125 C 29.402344 85.203125 29.429688 85.058594 29.417969 84.910156 C 29.617188 84.71875 29.847656 84.394531 30.097656 83.820312 C 30.5 82.90625 31.421875 81.421875 33.390625 78.535156 C 33.933594 77.742188 34.640625 76.578125 34.972656 75.933594 C 35.269531 75.363281 35.835938 74.566406 36.214844 74.191406 C 36.304688 74.101562 37.085938 73.308594 37.152344 72.625 C 37.382812 72.445312 37.738281 72.027344 38.371094 71.039062 C 38.832031 70.316406 39.304688 69.796875 39.453125 69.691406 C 39.898438 69.515625 40.34375 68.941406 40.574219 68.464844 C 40.738281 68.128906 41.433594 67.21875 42.164062 66.445312 C 44.148438 64.355469 44.785156 63.3125 44.945312 62.730469 C 45.089844 62.71875 45.238281 62.664062 45.363281 62.535156 C 45.554688 62.34375 45.578125 62.105469 45.554688 61.914062 C 45.875 61.726562 46.308594 61.367188 46.921875 60.726562 C 49.972656 57.511719 51.113281 56.402344 55.070312 52.808594 C 55.417969 52.488281 55.996094 51.832031 56.105469 51.242188 C 56.472656 51.148438 56.863281 50.875 57.175781 50.613281 C 57.523438 50.320312 57.828125 50.128906 57.933594 50.082031 C 58.371094 50.015625 58.867188 49.511719 59.230469 49.085938 C 59.5 48.773438 59.726562 48.558594 59.828125 48.480469 C 60.023438 48.421875 60.386719 48.230469 61.128906 47.660156 C 61.683594 47.238281 62.257812 46.824219 62.449219 46.707031 C 63.585938 46.011719 65.308594 44.765625 65.933594 44.199219 C 66.273438 43.890625 66.703125 43.628906 66.839844 43.582031 C 67.152344 43.480469 67.472656 43.265625 67.625 42.980469 C 67.660156 42.972656 67.699219 42.972656 67.75 42.972656 C 68.210938 42.972656 68.769531 42.753906 69.027344 42.320312 C 69.027344 42.320312 69.027344 42.320312 69.03125 42.320312 C 69.347656 42.320312 69.691406 42.148438 69.953125 41.832031 C 70.027344 41.742188 70.226562 41.652344 70.300781 41.652344 C 70.691406 41.652344 71.214844 41.480469 71.417969 41.148438 C 71.484375 41.074219 71.796875 40.859375 72.191406 40.683594 C 72.671875 40.460938 73.546875 39.992188 74.148438 39.636719 C 74.734375 39.285156 75.457031 38.949219 75.730469 38.867188 C 76.175781 38.730469 77.078125 38.285156 77.691406 37.933594 C 78.320312 37.5625 78.945312 37.382812 79.101562 37.398438 C 79.253906 37.414062 79.71875 37.472656 80.058594 37.171875 C 80.152344 37.085938 80.253906 36.960938 80.3125 36.773438 C 81.746094 36.6875 84.882812 35.507812 85.183594 35.378906 C 85.632812 35.183594 86.066406 35.070312 86.167969 35.0625 C 86.625 35.0625 87.105469 34.734375 87.355469 34.433594 C 87.398438 34.378906 87.523438 34.332031 87.570312 34.335938 C 87.9375 34.433594 88.285156 34.390625 88.515625 34.210938 C 88.585938 34.160156 88.644531 34.09375 88.6875 34.015625 C 88.730469 34.007812 88.78125 34.003906 88.847656 34.003906 C 89.792969 34.003906 91.859375 33.21875 92.660156 32.558594 C 93.46875 31.882812 97.828125 30.3125 98.875 30.3125 C 99.253906 30.3125 99.796875 30.183594 100.070312 29.910156 C 100.136719 29.859375 100.390625 29.757812 100.660156 29.722656 C 100.925781 29.6875 101.515625 29.574219 101.78125 29.414062 C 101.90625 29.355469 102.53125 29.175781 103.339844 28.996094 C 104.179688 28.8125 105.144531 28.550781 105.535156 28.402344 C 105.808594 28.300781 106.613281 28.15625 107.332031 28.121094 C 108.035156 28.085938 109.039062 27.902344 109.515625 27.640625 C 109.792969 27.484375 110.261719 27.308594 110.519531 27.253906 C 110.835938 27.195312 111.71875 27.015625 112.480469 26.855469 C 113.128906 26.71875 113.636719 26.699219 113.796875 26.71875 C 114.175781 26.914062 114.640625 26.824219 114.914062 26.519531 C 115.152344 26.433594 115.9375 26.234375 117.121094 26.074219 C 117.222656 26.0625 119.601562 25.746094 120.128906 25.46875 C 120.207031 25.425781 120.46875 25.40625 120.722656 25.507812 C 121.152344 25.671875 121.789062 25.820312 122.371094 25.242188 C 122.425781 25.199219 122.789062 25.003906 124.644531 24.925781 C 125.703125 24.882812 127.011719 24.789062 127.410156 24.609375 C 127.449219 24.605469 127.539062 24.609375 127.609375 24.632812 C 128.046875 24.800781 128.644531 24.683594 129.007812 24.378906 C 129.152344 24.292969 129.890625 24.132812 131.019531 24.097656 C 132.773438 24.050781 133.25 23.925781 133.410156 23.855469 C 133.59375 23.800781 134.378906 23.6875 135.414062 23.59375 C 136.503906 23.496094 137.757812 23.367188 138.207031 23.308594 C 138.578125 23.253906 140.550781 23.132812 142.894531 23.03125 C 145.078125 22.945312 147.710938 22.808594 148.769531 22.734375 C 149.871094 22.65625 150.714844 22.71875 150.863281 22.757812 C 151.148438 22.882812 151.554688 23.027344 151.828125 22.972656 C 153.191406 22.730469 157.199219 22.777344 159.488281 23.0625 C 162.710938 23.460938 163.042969 23.253906 163.167969 23.175781 C 163.566406 22.933594 164.757812 22.957031 165.160156 23.222656 C 165.683594 23.570312 166.503906 23.710938 167.683594 23.675781 C 169.621094 23.609375 172.558594 23.859375 173.164062 24.042969 C 173.488281 24.371094 174.015625 24.53125 174.414062 24.394531 C 174.550781 24.347656 174.671875 24.269531 174.757812 24.175781 C 174.832031 24.1875 174.925781 24.210938 175.046875 24.246094 C 175.554688 24.394531 176.496094 24.570312 177.191406 24.644531 C 177.835938 24.710938 178.992188 24.882812 179.777344 25.03125 C 180.582031 25.183594 182.128906 25.433594 183.226562 25.585938 C 184.261719 25.734375 185.578125 26.019531 186.09375 26.222656 C 187 26.570312 187.421875 26.582031 187.648438 26.503906 C 187.675781 26.515625 187.707031 26.527344 187.742188 26.546875 C 188.128906 26.753906 189.128906 26.925781 189.699219 26.992188 C 190.382812 27.070312 191.851562 27.378906 192.898438 27.675781 C 197.460938 28.945312 198.296875 29.195312 198.898438 29.433594 C 198.929688 29.445312 199.617188 29.71875 199.855469 29.757812 C 200.105469 29.820312 201.722656 30.515625 202.574219 30.957031 C 203.027344 31.1875 203.714844 31.359375 204.167969 31.1875 C 204.214844 31.171875 204.339844 31.175781 204.382812 31.199219 C 204.585938 31.332031 206.253906 32.035156 207.140625 31.914062 C 207.457031 32.421875 208.277344 32.800781 208.957031 33.039062 C 210.746094 33.664062 212.683594 34.585938 213.011719 34.859375 C 213.5625 35.597656 216.144531 36.449219 217.054688 36.484375 C 217.210938 36.492188 217.328125 36.503906 217.421875 36.515625 C 217.441406 36.558594 217.472656 36.597656 217.5 36.640625 C 217.945312 37.277344 220.070312 38.503906 221.234375 38.664062 C 221.394531 38.984375 221.8125 39.425781 222.789062 40.027344 C 223.511719 40.472656 224.035156 40.890625 224.109375 40.96875 C 224.375 41.402344 225.667969 42.046875 226.054688 42.234375 C 226.808594 42.597656 227.34375 43.027344 227.410156 43.117188 C 227.609375 43.75 228.003906 44.082031 228.394531 44 C 228.628906 44.011719 229.503906 44.46875 230.039062 45.046875 C 230.449219 45.484375 231.222656 46.070312 231.796875 46.367188 C 232.261719 46.605469 233.171875 47.300781 233.777344 47.890625 C 235.871094 49.914062 236.519531 50.308594 236.894531 50.375 C 237.066406 50.480469 237.546875 50.863281 238.203125 51.476562 C 238.941406 52.175781 240.027344 53.160156 240.628906 53.671875 C 242.269531 55.074219 242.917969 55.71875 245 57.988281 C 245.953125 59.023438 247.035156 60.195312 247.207031 60.367188 C 248.28125 61.4375 249.9375 63.375 250.191406 63.777344 C 250.261719 63.992188 250.519531 64.410156 251.457031 65.441406 C 253.308594 67.464844 254.195312 68.785156 254.410156 69.355469 C 254.484375 69.566406 254.746094 70.164062 255.195312 70.367188 C 255.277344 70.808594 255.664062 71.253906 255.902344 71.46875 C 256.074219 71.628906 256.199219 71.785156 256.238281 71.863281 C 256.277344 72.054688 256.449219 72.46875 257.296875 73.464844 C 257.75 73.992188 258.023438 74.441406 258.082031 74.582031 C 258.148438 75.105469 258.820312 75.910156 259.117188 76.238281 C 259.566406 76.738281 260.175781 77.667969 260.449219 78.261719 C 260.730469 78.875 261.199219 79.730469 261.484375 80.101562 C 261.902344 80.625 262.726562 82.160156 264.445312 85.589844 C 265.136719 86.964844 265.628906 87.804688 265.917969 88.078125 C 265.941406 88.136719 265.980469 88.28125 265.980469 88.445312 C 265.980469 89.023438 266.171875 89.445312 266.488281 89.613281 C 266.558594 89.738281 266.683594 90.007812 266.808594 90.394531 C 266.925781 90.78125 267.207031 91.554688 267.4375 91.929688 C 267.410156 92.15625 267.492188 92.523438 267.890625 93.304688 C 268.183594 93.875 268.34375 94.320312 268.359375 94.375 C 268.359375 94.859375 268.902344 95.570312 269.007812 95.707031 C 269.152344 95.894531 269.234375 96.046875 269.277344 96.136719 C 269.242188 96.421875 269.359375 97.035156 270.074219 98.726562 C 270.550781 99.847656 271.136719 101.566406 271.398438 102.558594 C 271.554688 103.15625 271.945312 104.585938 272.21875 104.882812 C 272.253906 104.933594 272.316406 105.148438 272.316406 105.363281 C 272.316406 105.828125 272.546875 106.660156 272.765625 107.210938 C 272.988281 107.769531 273.175781 108.449219 273.214844 108.710938 C 273.253906 109.054688 273.363281 109.585938 273.480469 109.886719 C 273.546875 110.046875 273.664062 110.535156 273.738281 110.953125 C 274.722656 116.847656 274.9375 117.964844 275.09375 118.335938 C 275.140625 118.449219 275.257812 119.035156 275.332031 119.75 C 275.394531 120.417969 275.574219 121.679688 275.722656 122.5625 C 276.164062 125.121094 276.378906 127.167969 276.316406 128.324219 C 276.28125 129.015625 276.394531 130.0625 276.566406 130.703125 C 276.757812 131.417969 276.6875 131.5625 276.679688 131.566406 C 276.226562 132.113281 276.402344 132.769531 276.566406 133.210938 C 276.800781 133.988281 276.734375 141.691406 276.484375 142.605469 C 276.339844 142.867188 276.335938 143.15625 276.460938 143.390625 C 276.496094 143.449219 276.539062 143.507812 276.585938 143.554688 C 276.460938 144.007812 276.390625 144.589844 276.371094 144.742188 C 276.3125 145.246094 276.234375 145.609375 276.199219 145.742188 C 276.003906 146.042969 276.085938 146.46875 276.449219 146.867188 C 276.164062 147.324219 276.101562 148.800781 276.097656 149.09375 C 276.074219 149.960938 276.039062 150.957031 276.027344 151.300781 C 276.015625 151.550781 275.90625 151.847656 275.855469 151.914062 C 275.359375 152.507812 275.15625 155.757812 275.179688 157.007812 C 275.1875 157.332031 275.109375 157.640625 275.082031 157.695312 C 274.9375 157.867188 274.558594 158.324219 274.3125 161.449219 C 274.265625 162.074219 274.160156 162.621094 274.117188 162.730469 C 273.980469 163.074219 273.835938 164.03125 273.777344 164.597656 C 273.660156 165.664062 273.570312 166.515625 273.5 166.734375 C 273.203125 166.960938 273.027344 167.4375 272.988281 167.808594 C 272.910156 168.585938 272.535156 169.683594 272.390625 169.871094 C 272.070312 170.285156 271.90625 171.558594 271.875 171.8125 C 271.832031 172.152344 271.78125 172.402344 271.738281 172.550781 C 271.71875 172.5625 271.703125 172.570312 271.683594 172.582031 C 271.019531 173.015625 271.238281 174.789062 271.238281 174.796875 C 271.234375 174.882812 271.136719 175.210938 270.964844 175.535156 C 270.738281 175.96875 270.40625 176.824219 270.210938 177.484375 C 270.097656 177.867188 269.976562 178.128906 269.914062 178.253906 C 269.613281 178.402344 269.414062 178.761719 269.414062 179.195312 C 269.394531 179.570312 268.710938 181.707031 268.496094 182.085938 C 268.40625 182.195312 268.242188 182.46875 268.144531 183.324219 C 268.121094 183.546875 268.074219 183.710938 268.039062 183.796875 C 267.71875 184.011719 267.570312 184.457031 267.570312 184.84375 C 267.570312 184.925781 267.46875 185.1875 267.332031 185.324219 C 267.140625 185.515625 266.785156 185.875 266.949219 186.320312 C 266.367188 187.082031 265.726562 188.5 265.726562 189.035156 C 265.714844 189.140625 265.554688 189.539062 265.296875 189.925781 C 264.988281 190.398438 264.671875 191.128906 264.671875 191.628906 C 264.671875 191.800781 264.496094 192.378906 264.222656 192.863281 C 263.699219 193.796875 263.648438 194.160156 263.667969 194.339844 C 263.574219 194.820312 262.5625 196.796875 262.179688 197.160156 C 261.847656 197.476562 261.5625 197.921875 261.621094 198.332031 C 261.257812 198.726562 260.785156 199.660156 260.511719 200.238281 C 259.429688 202.503906 258.125 204.71875 257.632812 205.289062 C 257.40625 205.550781 257.023438 206.117188 257.023438 206.582031 C 257.019531 206.648438 256.941406 206.816406 256.859375 206.902344 C 256.539062 207.242188 253.75 211.230469 253.378906 212.296875 C 253.355469 212.316406 253.308594 212.34375 253.253906 212.363281 C 252.777344 212.511719 252.339844 213.003906 252.207031 213.535156 C 252.15625 213.738281 251.910156 214.179688 251.667969 214.441406 C 251.535156 214.578125 251.171875 214.988281 251.03125 215.390625 C 250.203125 215.511719 249.578125 216.5 249.453125 217.421875 C 249.382812 217.976562 249.214844 218.308594 249.117188 218.441406 C 248.800781 218.363281 248.570312 218.46875 248.457031 218.546875 C 248.070312 218.816406 248.070312 219.316406 248.070312 219.480469 C 248.070312 219.832031 247.414062 220.753906 247.011719 221.105469 C 246.8125 220.964844 246.617188 220.96875 246.46875 221.011719 C 245.976562 221.15625 245.96875 221.695312 245.96875 221.953125 C 245.96875 222.082031 245.84375 222.316406 245.730469 222.398438 C 245.367188 222.660156 245.007812 223.113281 244.882812 223.457031 C 244.859375 223.492188 244.75 223.558594 244.648438 223.558594 C 244.363281 223.558594 243.824219 223.566406 243.679688 224.058594 C 243.632812 224.21875 243.632812 224.445312 243.828125 224.667969 C 243.566406 225.230469 242.515625 226.632812 241.4375 227.5 C 240.710938 228.082031 240.21875 228.582031 238.78125 230.167969 C 238.480469 230.496094 238.234375 230.695312 238.109375 230.792969 C 237.964844 230.785156 237.816406 230.828125 237.699219 230.917969 C 237.441406 231.105469 237.359375 231.421875 237.453125 231.851562 C 237.273438 232.214844 236.257812 232.886719 235.925781 232.84375 C 235.566406 232.761719 235.15625 232.921875 234.597656 233.363281 C 234.582031 233.375 233.105469 234.566406 233.050781 235.457031 C 233.035156 235.476562 233.003906 235.507812 232.96875 235.511719 C 232.511719 235.632812 232.179688 235.96875 232.046875 236.429688 C 231.644531 236.195312 231.171875 236.445312 230.972656 236.554688 C 230.328125 236.898438 230.101562 237.417969 230.28125 238.136719 C 230.289062 238.167969 230.292969 238.191406 230.300781 238.214844 C 230.289062 238.222656 230.273438 238.222656 230.261719 238.226562 C 229.800781 238.375 229.140625 238.882812 228.757812 239.28125 C 227.910156 240.171875 227.003906 240.714844 226.726562 240.773438 C 226.320312 240.660156 226.078125 240.859375 225.980469 240.945312 C 225.941406 240.996094 225.890625 241.046875 225.855469 241.121094 C 225.667969 241.078125 225.453125 241.101562 225.214844 241.222656 C 224.714844 241.464844 224.171875 242.136719 224.257812 242.761719 C 224.222656 242.78125 224.167969 242.808594 224.109375 242.835938 C 223.585938 243.03125 223.015625 243.566406 222.78125 244.078125 C 222.675781 244.316406 222.394531 244.535156 222.289062 244.566406 C 221.792969 244.691406 221.105469 245.203125 220.683594 245.648438 C 220.472656 245.871094 220.285156 246.019531 220.148438 246.113281 C 219.992188 245.871094 219.71875 245.710938 219.402344 245.710938 C 219.113281 245.710938 218.863281 245.851562 218.730469 246.085938 C 218.648438 246.234375 218.625 246.40625 218.65625 246.578125 C 218.28125 247.054688 216.800781 248.089844 216.226562 248.28125 C 216.019531 248.121094 215.710938 247.964844 215.390625 248.222656 C 215.046875 248.496094 215.167969 248.863281 215.269531 249.078125 C 215.167969 249.296875 214.757812 249.65625 214.582031 249.667969 C 214.125 249.667969 213.671875 249.996094 213.515625 250.460938 C 213.171875 250.460938 212.742188 250.613281 212.546875 250.960938 C 212.421875 251.066406 212 251.359375 211.363281 251.703125 C 208.492188 253.25 207.871094 253.613281 207.472656 253.984375 C 207.457031 254 207.4375 254.011719 207.425781 254.019531 C 206.867188 253.828125 205.917969 254.089844 205.625 254.460938 C 205.554688 254.546875 205.511719 254.648438 205.488281 254.75 C 205 255.0625 203.550781 255.714844 202.335938 256.054688 C 201.378906 256.324219 200.960938 256.5625 200.777344 256.78125 C 200.734375 256.785156 200.683594 256.792969 200.625 256.792969 C 200.070312 256.792969 199.386719 257.136719 199 257.476562 C 198.820312 257.632812 198.644531 257.722656 198.554688 257.75 C 198.148438 257.65625 197.667969 257.828125 197.371094 258.1875 C 197.335938 258.210938 197.148438 258.269531 196.757812 258.210938 C 195.980469 258.085938 195.390625 258.226562 194.960938 258.660156 C 194.855469 258.769531 194.527344 258.910156 194.3125 258.910156 C 193.707031 258.910156 193.265625 259.175781 193.039062 259.648438 C 192.898438 259.578125 192.714844 259.53125 192.515625 259.574219 C 192.117188 259.648438 191.917969 260.007812 191.839844 260.144531 C 191.785156 260.203125 191.554688 260.324219 191.285156 260.335938 C 190.714844 260.359375 190.339844 260.507812 190.152344 260.800781 C 190.132812 260.824219 190.121094 260.847656 190.109375 260.871094 C 190.039062 260.863281 189.949219 260.851562 189.839844 260.839844 C 189.191406 260.75 188.460938 260.714844 187.960938 261.394531 C 187.957031 261.40625 187.949219 261.414062 187.945312 261.417969 C 187.730469 261.339844 187.511719 261.359375 187.320312 261.460938 C 187.152344 261.554688 187.035156 261.703125 186.988281 261.882812 C 186.707031 262.085938 185.753906 262.429688 185.257812 262.386719 C 184.746094 262.347656 183.859375 262.53125 183.289062 262.734375 C 182.714844 262.929688 181.617188 263.234375 180.835938 263.414062 C 180.773438 263.425781 179.25 263.777344 178.78125 264.152344 C 178.457031 264.40625 176.722656 264.914062 174.632812 265.136719 C 173.105469 265.304688 172.660156 265.539062 172.488281 265.703125 C 172.40625 265.734375 172.21875 265.769531 172.007812 265.769531 C 171.832031 265.769531 171.019531 265.792969 170.648438 266.222656 C 170.566406 266.25 170.375 266.300781 170.152344 266.300781 C 169.566406 266.300781 168.855469 266.574219 168.492188 266.941406 C 168.359375 267.074219 168.027344 267.203125 167.71875 267.175781 C 167.34375 267.144531 166.601562 267.179688 166.238281 267.488281 C 166.203125 267.507812 166.101562 267.515625 166.042969 267.488281 C 165.726562 267.363281 165.394531 267.382812 165.113281 267.507812 C 165.054688 267.472656 164.996094 267.4375 164.929688 267.414062 C 164.570312 267.289062 164.148438 267.402344 163.769531 267.714844 C 163.496094 267.65625 163.179688 267.714844 162.90625 267.765625 C 162.449219 267.847656 161.472656 267.960938 160.777344 268.007812 C 158.644531 268.164062 154.707031 268.542969 154.261719 268.691406 C 154.222656 268.699219 154.140625 268.703125 154.105469 268.699219 C 153.730469 268.625 153.054688 268.882812 152.777344 268.996094 C 152.363281 269.167969 152.320312 269.132812 152.261719 269.085938 C 151.65625 268.585938 151.113281 268.765625 150.660156 269.007812 C 150.3125 269.199219 148.183594 269.363281 146.082031 269.109375 C 145.46875 269.039062 144.710938 269.03125 144.339844 269.378906 C 144.335938 269.378906 144.324219 269.371094 144.316406 269.371094 C 143.894531 269.234375 143.167969 269.328125 142.679688 269.464844 C 142.507812 269.515625 142.371094 269.542969 142.277344 269.554688 C 141.917969 269.390625 141.164062 269.3125 139.566406 269.28125 C 138.261719 269.257812 136.675781 269.164062 136.085938 269.078125 C 135.847656 269.042969 135.5625 269.027344 135.277344 269.027344 C 134.730469 269.027344 134.152344 269.085938 133.75 269.199219 C 133.089844 269.382812 133.027344 269.328125 132.886719 269.199219 C 132.730469 269.054688 132.195312 268.621094 131.703125 268.722656 C 131.601562 268.722656 131.222656 268.691406 130.738281 268.597656 C 130.132812 268.476562 129.132812 268.496094 128.46875 268.644531 C 127.71875 268.8125 127.523438 268.726562 127.390625 268.640625 C 126.523438 268.03125 124.292969 267.769531 123.277344 268.15625 C 123.269531 268.15625 123.265625 268.164062 123.257812 268.164062 C 123.203125 268.0625 123.140625 267.984375 123.078125 267.929688 C 122.6875 267.554688 121.984375 267.527344 120.570312 267.597656 C 120.0625 267.621094 119.542969 267.527344 119.421875 267.460938 C 118.707031 267.078125 116.234375 266.734375 115.175781 267.078125 C 114.859375 266.8125 114.402344 266.824219 113.765625 266.925781 C 113.164062 267.019531 112.832031 266.953125 112.285156 266.621094 C 111.882812 266.375 111.269531 266 110.761719 266.246094 C 110.019531 265.738281 108.574219 265.484375 107.597656 265.363281 C 106.148438 265.1875 105.203125 264.949219 105.023438 264.839844 C 104.625 264.589844 104.25 264.539062 102.324219 264.351562 C 101.746094 264.300781 101.265625 264.164062 101.183594 264.113281 C 100.765625 263.792969 99.378906 263.441406 99.320312 263.425781 C 98.613281 263.246094 97.453125 262.886719 96.746094 262.625 C 95.0625 262.007812 94.398438 261.769531 94.234375 261.714844 C 94.164062 261.6875 93.636719 261.460938 92.875 261.113281 C 92.21875 260.824219 91.261719 260.453125 90.78125 260.347656 C 90.472656 260.273438 89.691406 260 89.019531 259.699219 C 88.359375 259.398438 87.546875 259.054688 87.207031 258.925781 C 87.101562 258.882812 87.015625 258.835938 86.96875 258.792969 C 86.886719 258.425781 86.558594 258.144531 86.160156 258.113281 C 85.910156 258.042969 84.808594 257.566406 83.335938 256.851562 C 82.277344 256.339844 80.433594 255.476562 80.027344 255.476562 C 79.652344 255.429688 77.886719 254.5625 77.453125 254.214844 C 77.339844 253.964844 77.007812 253.691406 76.105469 253.523438 C 75.867188 253.476562 75.6875 253.417969 75.59375 253.371094 C 75.46875 253.136719 75.140625 252.8125 74.273438 252.464844 C 73.75 252.257812 73.140625 251.828125 72.921875 251.574219 C 72.804688 251.4375 72.203125 250.773438 71.644531 250.726562 C 71.535156 250.6875 71.214844 250.5 70.875 250.210938 C 70.429688 249.824219 69.710938 249.40625 69.21875 249.40625 C 69.109375 249.394531 68.765625 249.214844 68.507812 248.933594 C 68.128906 248.523438 67.480469 248.085938 66.945312 248.085938 C 66.84375 248.085938 66.765625 248.066406 66.730469 248.054688 C 66.152344 247.441406 64.148438 245.710938 63.652344 245.710938 C 63.78125 245.710938 63.863281 245.757812 63.863281 245.757812 C 63.804688 245.722656 63.574219 245.546875 63.292969 245.28125 C 62.742188 244.75 62.019531 244.125 59.253906 241.761719 C 58.898438 241.457031 58.15625 240.90625 57.589844 240.53125 C 57.085938 240.195312 56.316406 239.523438 55.902344 239.070312 C 55.445312 238.558594 54.777344 237.886719 54.421875 237.570312 C 53.351562 236.625 49.847656 233.136719 48.734375 231.921875 C 48.109375 231.238281 47.300781 230.445312 46.898438 230.132812 C 46.25 229.621094 45.316406 228.417969 44.625 227.203125 C 44.335938 226.691406 43.589844 225.867188 43.042969 225.375 C 42.566406 224.945312 41.324219 223.378906 40.230469 221.742188 C 40.152344 221.625 38.304688 218.855469 37.835938 218.488281 C 37.726562 218.40625 37.347656 217.910156 37.027344 217.316406 C 36.710938 216.726562 35.667969 215.070312 34.707031 213.625 C 33.785156 212.238281 32.792969 210.605469 32.535156 210.058594 C 32.238281 209.410156 31.707031 208.625 31.339844 208.277344 C 31.148438 208.101562 30.761719 207.441406 30.5625 206.765625 C 30.28125 205.816406 30.039062 205.398438 29.8125 205.226562 C 29.8125 205.203125 29.804688 205.175781 29.804688 205.152344 C 29.804688 204.726562 29.652344 204.402344 29.367188 204.242188 C 29.265625 204.191406 29.15625 204.160156 29.042969 204.152344 C 29.019531 204.113281 28.996094 204.058594 28.980469 203.992188 C 28.820312 203.546875 28.550781 202.945312 28.359375 202.625 C 27.355469 200.914062 25.28125 196.4375 25.058594 195.601562 C 24.886719 194.945312 24.28125 193.503906 23.675781 192.324219 C 23.054688 191.113281 22.710938 190.148438 22.691406 189.960938 C 22.691406 189.546875 22.550781 189.039062 22.222656 188.765625 C 22.222656 188.738281 22.222656 188.699219 22.234375 188.660156 C 22.371094 188.128906 22.1875 187.605469 21.789062 187.367188 C 21.675781 187.175781 21.433594 186.582031 21.230469 185.695312 C 20.761719 183.675781 19.785156 180.390625 19.171875 179.746094 C 19.105469 179.675781 18.988281 179.367188 18.976562 179.082031 C 18.917969 177.480469 18.804688 176.707031 18.273438 176.09375 C 18.046875 175.835938 17.722656 175.085938 17.535156 173.824219 C 17.40625 172.949219 16.554688 169.582031 16.304688 168.949219 C 16.222656 168.730469 16.078125 168.140625 16.007812 167.640625 C 15.9375 167.109375 15.746094 166.15625 15.582031 165.519531 C 15.433594 164.945312 15.269531 163.550781 15.230469 162.472656 C 15.199219 161.65625 15.121094 160.246094 14.96875 159.957031 C 14.945312 159.882812 14.914062 159.617188 14.9375 159.332031 C 14.960938 159.015625 14.9375 158.40625 14.6875 158.039062 C 14.195312 156.570312 13.886719 141.074219 14.324219 135.121094 Z M 14.324219 135.121094 " fill-opacity="1" fill-rule="nonzero"/><path fill="#fc8181" d="M 94.390625 123.363281 C 94.035156 123.203125 93.890625 123.9375 94.074219 124.984375 C 94.332031 126.417969 93.886719 127.3125 92.269531 128.589844 C 90.953125 129.632812 90.324219 130.664062 90.636719 131.25 C 90.921875 131.78125 90.773438 132.3125 90.3125 132.425781 C 89.847656 132.539062 88.46875 133.988281 87.242188 135.644531 C 84.78125 138.972656 75.835938 144.144531 72.808594 143.984375 C 71.863281 143.9375 71.144531 144.203125 71.210938 144.578125 C 71.386719 145.585938 63.90625 146.566406 61.523438 145.847656 C 60.390625 145.507812 59.128906 145.492188 58.71875 145.8125 C 58.304688 146.132812 57.25 145.871094 56.371094 145.230469 C 55.496094 144.585938 54.277344 144.277344 53.675781 144.542969 C 53.070312 144.8125 52.273438 144.640625 51.898438 144.15625 C 51.53125 143.679688 50.632812 143.179688 49.914062 143.042969 C 49.191406 142.914062 48.65625 142.316406 48.722656 141.722656 C 48.789062 141.128906 47.996094 139.722656 46.957031 138.589844 C 44.375 135.800781 42.867188 132.472656 43.015625 129.914062 C 43.085938 128.738281 42.941406 126.5 42.703125 124.9375 C 42.058594 120.722656 44.214844 112.746094 46.261719 111.796875 C 46.652344 111.621094 48.414062 110.308594 50.179688 108.898438 C 51.945312 107.488281 54.523438 106.046875 55.914062 105.703125 C 57.300781 105.359375 58.582031 104.792969 58.773438 104.445312 C 59.433594 103.222656 63.75 102.460938 63.941406 103.53125 C 64.0625 104.195312 65.011719 104.339844 66.613281 103.929688 C 70.519531 102.921875 72.132812 102.808594 72.261719 103.523438 C 72.328125 103.886719 72.855469 103.703125 73.4375 103.109375 C 74.25 102.285156 74.757812 102.359375 75.597656 103.410156 C 76.199219 104.171875 76.929688 104.523438 77.214844 104.195312 C 77.851562 103.464844 83.699219 105.363281 85.171875 106.78125 C 85.761719 107.347656 86.671875 108.554688 87.1875 109.464844 C 87.707031 110.375 88.582031 111.007812 89.128906 110.871094 C 89.675781 110.734375 90.054688 111.125 89.976562 111.738281 C 89.902344 112.351562 90.625 113.53125 91.597656 114.363281 C 92.820312 115.410156 93.625 117.0625 94.210938 119.75 C 94.660156 121.898438 94.746094 123.519531 94.390625 123.363281 Z M 94.390625 123.363281 " fill-opacity="1" fill-rule="nonzero"/><path fill="#fcbdc8" d="M 77.109375 129.953125 C 75.4375 129.464844 75.355469 129.191406 75.027344 122.847656 C 74.957031 121.511719 74.777344 118.941406 74.617188 117.132812 C 74.457031 115.234375 74.59375 113.441406 74.945312 112.886719 C 75.277344 112.359375 75.621094 111.507812 75.710938 110.996094 C 75.800781 110.484375 75.96875 110.183594 76.078125 110.335938 C 76.199219 110.484375 76.382812 110.726562 76.496094 110.882812 C 76.609375 111.03125 76.902344 111.273438 77.136719 111.421875 C 77.382812 111.574219 77.75 112.179688 77.964844 112.78125 C 78.179688 113.382812 78.589844 114.398438 78.882812 115.042969 C 79.171875 115.6875 79.195312 116.203125 78.933594 116.191406 C 78.671875 116.179688 78.613281 116.792969 78.804688 117.554688 C 78.992188 118.3125 79.035156 119.136719 78.898438 119.382812 C 78.761719 119.625 78.867188 120.28125 79.136719 120.828125 C 79.40625 121.375 79.445312 121.929688 79.230469 122.0625 C 79.019531 122.1875 79.042969 122.710938 79.292969 123.214844 C 79.542969 123.722656 79.683594 124.949219 79.613281 125.941406 C 79.542969 126.9375 79.617188 128.019531 79.777344 128.351562 C 79.941406 128.6875 79.910156 129.054688 79.714844 129.167969 C 79.515625 129.289062 79.160156 129.601562 78.921875 129.871094 C 78.691406 130.140625 77.871094 130.175781 77.109375 129.953125 Z M 77.109375 129.953125 " fill-opacity="1" fill-rule="nonzero"/><path fill="#fcbdc8" d="M 67.675781 132.78125 C 66.378906 133.152344 65.714844 130.929688 66.054688 127.351562 C 66.226562 125.550781 66.117188 122.691406 65.820312 121.007812 C 65.519531 119.324219 65.382812 117.425781 65.507812 116.785156 C 65.660156 116.023438 65.613281 115.851562 65.371094 116.269531 C 65.070312 116.785156 65 116.691406 65.019531 115.773438 C 65.03125 115.148438 65.125 114.589844 65.238281 114.523438 C 65.53125 114.351562 67.960938 115.019531 68.160156 115.328125 C 68.253906 115.472656 68.644531 115.851562 69.03125 116.175781 C 69.519531 116.578125 69.617188 117.019531 69.347656 117.597656 C 68.984375 118.382812 69.324219 120.289062 70.222656 122.496094 C 70.429688 123.011719 70.476562 123.398438 70.324219 123.351562 C 69.984375 123.25 70.089844 128.621094 70.4375 129.03125 C 70.800781 129.460938 69.753906 131.875 69.054688 132.246094 C 68.730469 132.417969 68.105469 132.664062 67.675781 132.78125 Z M 67.675781 132.78125 " fill-opacity="1" fill-rule="nonzero"/><path fill="#fcbdc8" d="M 57.007812 132.792969 C 56.15625 132.539062 55.335938 132.078125 55.1875 131.769531 C 54.8125 130.996094 54.808594 120.542969 55.183594 117.074219 C 55.503906 114.074219 56.574219 112.726562 57.578125 114.066406 C 57.882812 114.464844 58.363281 114.8125 58.65625 114.824219 C 58.988281 114.839844 59.117188 115.335938 59.007812 116.179688 C 58.910156 116.910156 58.96875 117.800781 59.144531 118.148438 C 59.316406 118.5 59.253906 119.3125 59.011719 119.953125 C 58.730469 120.6875 58.816406 121.625 59.238281 122.476562 C 59.863281 123.757812 59.679688 125.925781 58.867188 126.839844 C 58.679688 127.054688 58.636719 127.65625 58.78125 128.175781 C 58.921875 128.691406 58.929688 130.042969 58.796875 131.1875 L 58.558594 133.257812 Z M 57.007812 132.792969 " fill-opacity="1" fill-rule="nonzero"/><path fill="#fc8181" d="M 237.894531 128.621094 C 237.53125 128.417969 237.285156 129.167969 237.351562 130.289062 C 237.449219 131.824219 236.851562 132.710938 234.960938 133.878906 C 233.421875 134.828125 232.613281 135.839844 232.878906 136.496094 C 233.117188 137.085938 232.890625 137.621094 232.378906 137.691406 C 231.871094 137.765625 230.203125 139.140625 228.6875 140.746094 C 225.628906 143.980469 215.390625 148.449219 212.167969 147.953125 C 211.15625 147.800781 210.351562 148.007812 210.375 148.40625 C 210.441406 149.484375 202.292969 149.710938 199.832031 148.699219 C 198.667969 148.222656 197.316406 148.066406 196.828125 148.367188 C 196.347656 148.65625 195.246094 148.269531 194.386719 147.503906 C 193.527344 146.734375 192.261719 146.28125 191.578125 146.496094 C 190.894531 146.710938 190.0625 146.441406 189.722656 145.902344 C 189.382812 145.359375 188.492188 144.742188 187.730469 144.527344 C 186.96875 144.3125 186.476562 143.628906 186.625 143.015625 C 186.773438 142.402344 186.09375 140.835938 185.121094 139.542969 C 182.703125 136.335938 181.503906 132.6875 181.984375 130.019531 C 182.207031 128.800781 182.34375 126.4375 182.28125 124.769531 C 182.121094 120.273438 185.441406 112.144531 187.746094 111.363281 C 188.1875 111.214844 190.246094 110.035156 192.316406 108.746094 C 194.386719 107.453125 197.328125 106.222656 198.863281 106.007812 C 200.390625 105.792969 201.84375 105.335938 202.085938 104.996094 C 202.941406 103.78125 207.671875 103.441406 207.734375 104.585938 C 207.777344 105.296875 208.78125 105.546875 210.550781 105.285156 C 214.859375 104.648438 216.609375 104.703125 216.65625 105.464844 C 216.679688 105.851562 217.269531 105.714844 217.972656 105.15625 C 218.945312 104.382812 219.476562 104.507812 220.242188 105.710938 C 220.796875 106.570312 221.527344 107.019531 221.878906 106.703125 C 222.652344 106 228.675781 108.621094 230.085938 110.261719 C 230.644531 110.917969 231.472656 112.28125 231.910156 113.292969 C 232.355469 114.304688 233.207031 115.0625 233.808594 114.976562 C 234.410156 114.894531 234.769531 115.347656 234.605469 115.976562 C 234.445312 116.613281 235.074219 117.929688 236.015625 118.898438 C 237.191406 120.125 237.847656 121.949219 238.136719 124.835938 C 238.371094 127.121094 238.257812 128.828125 237.894531 128.621094 Z M 237.894531 128.621094 " fill-opacity="1" fill-rule="nonzero"/><path fill="#fcbdc8" d="M 217.078125 133.03125 C 216.050781 131.417969 215.253906 125.710938 215.292969 120.214844 C 215.300781 119.054688 215.183594 117.65625 215.027344 117.101562 C 214.734375 116.085938 215.269531 115.238281 216.53125 114.714844 C 217.4375 114.335938 219.660156 115.171875 219.421875 115.804688 C 219.320312 116.074219 219.457031 116.371094 219.738281 116.464844 C 220.351562 116.671875 220.605469 120.703125 220.035156 121.078125 C 219.441406 121.464844 219.902344 123.691406 220.546875 123.53125 C 221.269531 123.347656 221.507812 127.789062 220.808594 128.472656 C 220.515625 128.757812 220.46875 129.40625 220.699219 129.914062 C 220.996094 130.566406 220.761719 131.289062 219.875 132.425781 C 218.296875 134.429688 218.011719 134.488281 217.078125 133.03125 Z M 217.078125 133.03125 " fill-opacity="1" fill-rule="nonzero"/><path fill="#fcbdc8" d="M 205.660156 133.269531 C 204.746094 131.507812 203.441406 119.328125 204.066406 118.363281 C 204.132812 118.257812 205.035156 117.828125 206.066406 117.410156 L 207.945312 116.648438 L 208.65625 118.828125 C 209.050781 120.023438 209.378906 122.488281 209.390625 124.304688 C 209.394531 126.121094 209.441406 128.488281 209.492188 129.574219 C 209.628906 132.613281 206.761719 135.378906 205.660156 133.269531 Z M 205.660156 133.269531 " fill-opacity="1" fill-rule="nonzero"/><path fill="#fcbdc8" d="M 196.089844 135.40625 C 194.882812 135.132812 194.359375 134.691406 194.164062 133.789062 C 193.265625 129.574219 193.160156 128.699219 193.480469 128.335938 C 193.675781 128.109375 193.800781 127.199219 193.753906 126.3125 C 193.707031 125.425781 193.742188 124.574219 193.835938 124.429688 C 193.933594 124.289062 193.738281 123.722656 193.410156 123.175781 C 192.953125 122.414062 192.992188 121.925781 193.582031 121.101562 C 194.003906 120.511719 194.378906 120.179688 194.410156 120.359375 C 194.4375 120.542969 194.835938 120.359375 195.292969 119.960938 C 196.839844 118.601562 197.734375 120.214844 198.382812 125.53125 C 198.695312 128.101562 198.820312 130.632812 198.65625 131.15625 C 198.488281 131.679688 198.421875 132.507812 198.507812 133 C 198.589844 133.496094 198.453125 134.324219 198.203125 134.847656 C 197.785156 135.710938 197.621094 135.753906 196.089844 135.40625 Z M 196.089844 135.40625 " fill-opacity="1" fill-rule="nonzero"/><path fill="#633039" d="M 193.613281 47.21875 C 200.425781 51.777344 216.085938 62.480469 229.09375 82.492188 C 245.207031 107.292969 247.410156 131.238281 248.277344 142.054688 C 248.984375 150.882812 250 165.234375 245.089844 183.09375 C 239.789062 202.363281 230.441406 215.328125 226.414062 220.480469 C 211.546875 239.5 194.117188 248.085938 182.984375 253.410156 C 159.480469 264.652344 137.5625 267.0625 123.191406 267.300781 C 131.421875 270.839844 144.921875 275.140625 160.761719 272.789062 C 168.332031 271.664062 173.785156 269.414062 181.3125 266.074219 C 209.164062 253.722656 223.089844 247.542969 231.066406 241.546875 C 255.964844 222.832031 265.605469 196.628906 269.277344 187.878906 C 287.0625 145.449219 278.308594 93.132812 247.6875 58.808594 C 229.960938 38.9375 205.394531 25.6875 179.375 20.554688 C 166.363281 17.992188 152.933594 17.441406 139.765625 19.117188 C 138.53125 19.269531 134.640625 23.394531 128.742188 23.789062 C 126.117188 23.96875 123.941406 23.472656 122.554688 23.050781 C 130.3125 23.808594 140.902344 25.394531 153.078125 28.980469 C 161.96875 31.597656 177.101562 36.175781 193.613281 47.21875 Z M 193.613281 47.21875 " fill-opacity="0.3" fill-rule="nonzero"/></svg>