<svg xmlns="http://www.w3.org/2000/svg" xmlns:xlink="http://www.w3.org/1999/xlink" width="388" zoomAndPan="magnify" viewBox="0 0 291 290.999983" height="388" preserveAspectRatio="xMidYMid meet" version="1.0"><defs><clipPath id="5be6f482e3"><path d="M 46 0 L 274.179688 0 L 274.179688 291 L 46 291 Z M 46 0 " clip-rule="nonzero"/></clipPath><clipPath id="3e0fb6a62d"><path d="M 16.929688 77 L 129 77 L 129 185 L 16.929688 185 Z M 16.929688 77 " clip-rule="nonzero"/></clipPath></defs><g clip-path="url(#5be6f482e3)"><path fill="#000000" d="M 274.140625 237.648438 L 274.140625 4.851562 C 274.140625 1.941406 272.199219 0 269.289062 0 L 50.9375 0 C 48.027344 0 46.085938 1.941406 46.085938 4.851562 L 46.085938 72.75 L 55.789062 72.75 L 55.789062 9.699219 L 264.433594 9.699219 L 264.433594 232.800781 L 220.765625 232.800781 C 217.855469 232.800781 215.914062 234.738281 215.914062 237.648438 L 215.914062 281.300781 L 55.789062 281.300781 L 55.789062 208.550781 L 46.085938 208.550781 L 46.085938 286.148438 C 46.085938 289.058594 48.027344 291 50.9375 291 L 220.765625 291 C 222.222656 291 223.191406 290.515625 224.160156 289.546875 L 272.683594 241.046875 C 273.167969 240.558594 273.167969 240.074219 273.652344 239.589844 L 273.652344 239.105469 C 274.140625 238.621094 274.140625 238.136719 274.140625 237.648438 Z M 225.617188 242.5 L 257.640625 242.5 L 241.628906 258.503906 L 225.617188 274.511719 Z M 225.617188 242.5 " fill-opacity="1" fill-rule="nonzero"/></g><g clip-path="url(#3e0fb6a62d)"><path fill="#000000" d="M 80.050781 184.300781 L 128.574219 184.300781 L 128.574219 174.601562 L 114.015625 174.601562 L 114.015625 82.449219 C 114.015625 79.539062 112.074219 77.601562 109.164062 77.601562 L 80.050781 77.601562 C 77.140625 77.601562 75.199219 79.539062 75.199219 82.449219 L 75.199219 111.550781 L 50.9375 111.550781 C 48.027344 111.550781 46.085938 113.488281 46.085938 116.398438 L 46.085938 135.800781 L 21.824219 135.800781 C 18.914062 135.800781 16.972656 137.738281 16.972656 140.648438 L 16.972656 179.449219 C 16.972656 182.359375 18.914062 184.300781 21.824219 184.300781 Z M 84.902344 87.300781 L 104.3125 87.300781 L 104.3125 174.601562 L 84.902344 174.601562 Z M 55.789062 121.25 L 75.199219 121.25 L 75.199219 174.601562 L 55.789062 174.601562 Z M 26.675781 145.5 L 46.085938 145.5 L 46.085938 174.601562 L 26.675781 174.601562 Z M 26.675781 145.5 " fill-opacity="1" fill-rule="nonzero"/></g><path fill="#000000" d="M 245.027344 116.398438 L 245.027344 33.949219 C 245.027344 31.039062 243.085938 29.101562 240.175781 29.101562 L 138.277344 29.101562 C 135.367188 29.101562 133.425781 31.039062 133.425781 33.949219 L 133.425781 116.398438 C 133.425781 119.308594 135.367188 121.25 138.277344 121.25 L 240.175781 121.25 C 243.085938 121.25 245.027344 119.308594 245.027344 116.398438 Z M 235.320312 58.199219 L 177.09375 58.199219 L 177.09375 38.800781 L 235.320312 38.800781 Z M 167.390625 38.800781 L 167.390625 58.199219 L 143.128906 58.199219 C 143.128906 50.441406 143.128906 38.800781 143.128906 38.800781 Z M 143.128906 67.898438 L 167.390625 67.898438 L 167.390625 111.550781 L 143.128906 111.550781 C 143.128906 111.550781 143.128906 88.753906 143.128906 67.898438 Z M 177.09375 111.550781 L 177.09375 67.898438 L 235.320312 67.898438 L 235.320312 111.550781 Z M 177.09375 111.550781 " fill-opacity="1" fill-rule="nonzero"/><path fill="#000000" d="M 138.277344 135.800781 L 240.175781 135.800781 L 240.175781 145.5 L 138.277344 145.5 Z M 138.277344 135.800781 " fill-opacity="1" fill-rule="nonzero"/><path fill="#000000" d="M 138.277344 160.050781 L 240.175781 160.050781 L 240.175781 169.75 L 138.277344 169.75 Z M 138.277344 160.050781 " fill-opacity="1" fill-rule="nonzero"/><path fill="#000000" d="M 138.277344 184.300781 L 240.175781 184.300781 L 240.175781 194 L 138.277344 194 Z M 138.277344 184.300781 " fill-opacity="1" fill-rule="nonzero"/><path fill="#000000" d="M 70.347656 29.101562 L 99.460938 29.101562 L 99.460938 38.800781 L 70.347656 38.800781 Z M 70.347656 29.101562 " fill-opacity="1" fill-rule="nonzero"/><path fill="#000000" d="M 70.347656 53.351562 L 114.015625 53.351562 L 114.015625 63.050781 L 70.347656 63.050781 Z M 70.347656 53.351562 " fill-opacity="1" fill-rule="nonzero"/><path fill="#000000" d="M 70.347656 208.550781 L 104.3125 208.550781 L 104.3125 218.25 L 70.347656 218.25 Z M 70.347656 208.550781 " fill-opacity="1" fill-rule="nonzero"/><path fill="#000000" d="M 118.867188 208.550781 L 152.835938 208.550781 L 152.835938 218.25 L 118.867188 218.25 Z M 118.867188 208.550781 " fill-opacity="1" fill-rule="nonzero"/><path fill="#000000" d="M 167.390625 208.550781 L 201.355469 208.550781 L 201.355469 218.25 L 167.390625 218.25 Z M 167.390625 208.550781 " fill-opacity="1" fill-rule="nonzero"/><path fill="#000000" d="M 70.347656 232.800781 L 104.3125 232.800781 L 104.3125 242.5 L 70.347656 242.5 Z M 70.347656 232.800781 " fill-opacity="1" fill-rule="nonzero"/><path fill="#000000" d="M 118.867188 232.800781 L 152.835938 232.800781 L 152.835938 242.5 L 118.867188 242.5 Z M 118.867188 232.800781 " fill-opacity="1" fill-rule="nonzero"/><path fill="#000000" d="M 167.390625 232.800781 L 201.355469 232.800781 L 201.355469 242.5 L 167.390625 242.5 Z M 167.390625 232.800781 " fill-opacity="1" fill-rule="nonzero"/><path fill="#000000" d="M 70.347656 257.050781 L 104.3125 257.050781 L 104.3125 266.75 L 70.347656 266.75 Z M 70.347656 257.050781 " fill-opacity="1" fill-rule="nonzero"/><path fill="#000000" d="M 118.867188 257.050781 L 152.835938 257.050781 L 152.835938 266.75 L 118.867188 266.75 Z M 118.867188 257.050781 " fill-opacity="1" fill-rule="nonzero"/><path fill="#000000" d="M 167.390625 257.050781 L 201.355469 257.050781 L 201.355469 266.75 L 167.390625 266.75 Z M 167.390625 257.050781 " fill-opacity="1" fill-rule="nonzero"/></svg>