<svg xmlns="http://www.w3.org/2000/svg" xmlns:xlink="http://www.w3.org/1999/xlink" width="388" zoomAndPan="magnify" viewBox="0 0 291 290.999983" height="388" preserveAspectRatio="xMidYMid meet" version="1.0"><defs><clipPath id="f783d115f6"><path d="M 11.195312 11.195312 L 281.195312 11.195312 L 281.195312 281.195312 L 11.195312 281.195312 Z M 11.195312 11.195312 " clip-rule="nonzero"/></clipPath><clipPath id="925f78caab"><path d="M 11.195312 11.195312 L 281.195312 11.195312 L 281.195312 281.195312 L 11.195312 281.195312 Z M 11.195312 11.195312 " clip-rule="nonzero"/></clipPath></defs><path fill="#dd2159" d="M 77.101562 13.910156 L 215.640625 13.910156 C 217.710938 13.910156 219.777344 14.011719 221.835938 14.214844 C 223.894531 14.417969 225.941406 14.71875 227.972656 15.125 C 230 15.527344 232.007812 16.03125 233.988281 16.628906 C 235.96875 17.230469 237.914062 17.925781 239.824219 18.71875 C 241.738281 19.511719 243.605469 20.394531 245.433594 21.371094 C 247.257812 22.347656 249.03125 23.410156 250.75 24.558594 C 252.472656 25.710938 254.132812 26.941406 255.734375 28.253906 C 257.332031 29.566406 258.863281 30.953125 260.328125 32.417969 C 261.792969 33.882812 263.179688 35.414062 264.492188 37.011719 C 265.804688 38.613281 267.035156 40.273438 268.1875 41.996094 C 269.335938 43.714844 270.398438 45.488281 271.375 47.3125 C 272.351562 49.140625 273.234375 51.007812 274.027344 52.921875 C 274.820312 54.832031 275.515625 56.777344 276.117188 58.757812 C 276.71875 60.738281 277.21875 62.746094 277.621094 64.773438 C 278.027344 66.804688 278.328125 68.851562 278.53125 70.910156 C 278.734375 72.96875 278.835938 75.035156 278.835938 77.105469 L 278.835938 215.644531 C 278.835938 217.714844 278.734375 219.78125 278.53125 221.839844 C 278.328125 223.898438 278.027344 225.945312 277.621094 227.972656 C 277.21875 230.003906 276.71875 232.007812 276.117188 233.988281 C 275.515625 235.96875 274.820312 237.917969 274.027344 239.828125 C 273.234375 241.742188 272.351562 243.609375 271.375 245.433594 C 270.398438 247.261719 269.335938 249.035156 268.1875 250.753906 C 267.035156 252.476562 265.804688 254.136719 264.492188 255.734375 C 263.179688 257.335938 261.792969 258.867188 260.328125 260.332031 C 258.863281 261.792969 257.332031 263.183594 255.734375 264.496094 C 254.132812 265.808594 252.472656 267.039062 250.75 268.191406 C 249.03125 269.339844 247.257812 270.402344 245.433594 271.378906 C 243.605469 272.351562 241.738281 273.238281 239.824219 274.03125 C 237.914062 274.820312 235.96875 275.519531 233.988281 276.117188 C 232.007812 276.71875 230 277.222656 227.972656 277.625 C 225.941406 278.03125 223.894531 278.332031 221.835938 278.535156 C 219.777344 278.738281 217.710938 278.839844 215.640625 278.839844 L 77.101562 278.839844 C 75.03125 278.839844 72.96875 278.738281 70.90625 278.535156 C 68.847656 278.332031 66.800781 278.03125 64.773438 277.625 C 62.742188 277.222656 60.738281 276.71875 58.757812 276.117188 C 56.777344 275.519531 54.828125 274.820312 52.917969 274.03125 C 51.003906 273.238281 49.136719 272.351562 47.3125 271.378906 C 45.484375 270.402344 43.714844 269.339844 41.992188 268.191406 C 40.269531 267.039062 38.609375 265.808594 37.011719 264.496094 C 35.410156 263.183594 33.878906 261.792969 32.414062 260.332031 C 30.953125 258.867188 29.5625 257.335938 28.25 255.734375 C 26.9375 254.136719 25.707031 252.476562 24.558594 250.753906 C 23.40625 249.035156 22.34375 247.261719 21.367188 245.433594 C 20.394531 243.609375 19.507812 241.742188 18.71875 239.828125 C 17.925781 237.917969 17.230469 235.96875 16.628906 233.988281 C 16.027344 232.007812 15.523438 230.003906 15.121094 227.972656 C 14.71875 225.945312 14.414062 223.898438 14.210938 221.839844 C 14.007812 219.78125 13.90625 217.714844 13.90625 215.644531 L 13.90625 77.105469 C 13.90625 75.035156 14.007812 72.96875 14.210938 70.910156 C 14.414062 68.851562 14.71875 66.804688 15.121094 64.773438 C 15.523438 62.746094 16.027344 60.738281 16.628906 58.757812 C 17.230469 56.777344 17.925781 54.832031 18.71875 52.921875 C 19.507812 51.007812 20.394531 49.140625 21.367188 47.3125 C 22.34375 45.488281 23.40625 43.714844 24.558594 41.996094 C 25.707031 40.273438 26.9375 38.613281 28.25 37.011719 C 29.5625 35.414062 30.953125 33.882812 32.414062 32.417969 C 33.878906 30.953125 35.410156 29.566406 37.011719 28.253906 C 38.609375 26.941406 40.269531 25.710938 41.992188 24.558594 C 43.714844 23.410156 45.484375 22.347656 47.3125 21.371094 C 49.136719 20.394531 51.003906 19.511719 52.917969 18.71875 C 54.828125 17.925781 56.777344 17.230469 58.757812 16.628906 C 60.738281 16.03125 62.742188 15.527344 64.773438 15.125 C 66.800781 14.71875 68.847656 14.417969 70.90625 14.214844 C 72.96875 14.011719 75.03125 13.910156 77.101562 13.910156 Z M 77.101562 13.910156 " fill-opacity="1" fill-rule="evenodd"/><g clip-path="url(#f783d115f6)"><path stroke-linecap="butt" transform="matrix(0.0650306, 0, 0, 0.0650306, -192.660997, -181.729372)" fill="none" stroke-linejoin="miter" d="M 4148.242969 3008.424513 L 6278.61159 3008.424513 C 6310.447584 3008.424513 6342.22351 3009.986279 6373.879301 3013.10981 C 6405.535091 3016.233342 6437.010678 3020.858571 6468.245993 3027.105634 C 6499.42124 3033.292629 6530.296148 3041.04139 6560.75058 3050.231781 C 6591.205012 3059.482239 6621.118833 3070.174328 6650.492043 3082.368115 C 6679.92532 3094.561901 6708.637783 3108.137249 6736.749566 3123.154228 C 6764.801282 3138.171206 6792.072115 3154.509679 6818.501997 3172.169645 C 6844.991947 3189.88968 6870.52081 3208.811072 6895.148654 3228.993891 C 6919.716431 3249.17671 6943.263053 3270.50082 6965.788521 3293.026287 C 6988.313988 3315.551755 7009.638098 3339.098377 7029.820917 3363.666154 C 7050.003736 3388.293998 7068.925128 3413.822861 7086.645163 3440.312811 C 7104.305129 3466.742693 7120.643602 3494.013526 7135.66058 3522.065242 C 7150.677559 3550.177025 7164.252907 3578.889488 7176.446693 3608.322765 C 7188.64048 3637.695975 7199.332569 3667.609796 7208.583027 3698.064228 C 7217.833486 3728.51866 7225.522179 3759.393568 7231.709174 3790.568815 C 7237.956237 3821.80413 7242.581466 3853.279717 7245.704998 3884.935507 C 7248.828529 3916.591298 7250.390295 3948.367224 7250.390295 3980.203218 L 7250.390295 6110.571839 C 7250.390295 6142.407833 7248.828529 6174.183759 7245.704998 6205.83955 C 7242.581466 6237.49534 7237.956237 6268.970927 7231.709174 6300.146174 C 7225.522179 6331.381489 7217.833486 6362.196329 7208.583027 6392.650761 C 7199.332569 6423.105193 7188.64048 6453.079082 7176.446693 6482.452292 C 7164.252907 6511.885569 7150.677559 6540.598032 7135.66058 6568.649748 C 7120.643602 6596.761531 7104.305129 6624.032364 7086.645163 6650.462246 C 7068.925128 6676.952196 7050.003736 6702.481059 7029.820917 6727.048836 C 7009.638098 6751.67668 6988.313988 6775.223302 6965.788521 6797.74877 C 6943.263053 6820.214169 6919.716431 6841.598347 6895.148654 6861.781166 C 6870.52081 6881.963985 6844.991947 6900.885377 6818.501997 6918.605412 C 6792.072115 6936.265378 6764.801282 6952.603851 6736.749566 6967.620829 C 6708.637783 6982.57774 6679.92532 6996.213156 6650.492043 7008.406943 C 6621.118833 7020.540661 6591.205012 7031.292818 6560.75058 7040.483208 C 6530.296148 7049.733667 6499.42124 7057.482428 6468.245993 7063.669423 C 6437.010678 7069.916486 6405.535091 7074.541715 6373.879301 7077.665247 C 6342.22351 7080.788778 6310.447584 7082.350544 6278.61159 7082.350544 L 4148.242969 7082.350544 C 4116.406975 7082.350544 4084.691116 7080.788778 4052.975258 7077.665247 C 4021.319468 7074.541715 3989.843881 7069.916486 3958.668634 7063.669423 C 3927.433319 7057.482428 3896.618479 7049.733667 3866.164047 7040.483208 C 3835.709615 7031.292818 3805.735726 7020.540661 3776.362516 7008.406943 C 3746.929239 6996.213156 3718.216776 6982.57774 3690.16506 6967.620829 C 3662.053277 6952.603851 3634.842512 6936.265378 3608.352562 6918.605412 C 3581.862612 6900.885377 3556.333749 6881.963985 3531.765972 6861.781166 C 3507.138128 6841.598347 3483.591506 6820.214169 3461.066038 6797.74877 C 3438.600639 6775.223302 3417.216461 6751.67668 3397.033642 6727.048836 C 3376.850823 6702.481059 3357.929431 6676.952196 3340.269464 6650.462246 C 3322.54943 6624.032364 3306.210957 6596.761531 3291.193979 6568.649748 C 3276.237068 6540.598032 3262.601652 6511.885569 3250.467933 6482.452292 C 3238.274147 6453.079082 3227.582058 6423.105193 3218.3316 6392.650761 C 3209.081141 6362.196329 3201.33238 6331.381489 3195.145385 6300.146174 C 3188.95839 6268.970927 3184.273093 6237.49534 3181.149561 6205.83955 C 3178.02603 6174.183759 3176.464264 6142.407833 3176.464264 6110.571839 L 3176.464264 3980.203218 C 3176.464264 3948.367224 3178.02603 3916.591298 3181.149561 3884.935507 C 3184.273093 3853.279717 3188.95839 3821.80413 3195.145385 3790.568815 C 3201.33238 3759.393568 3209.081141 3728.51866 3218.3316 3698.064228 C 3227.582058 3667.609796 3238.274147 3637.695975 3250.467933 3608.322765 C 3262.601652 3578.889488 3276.237068 3550.177025 3291.193979 3522.065242 C 3306.210957 3494.013526 3322.54943 3466.742693 3340.269464 3440.312811 C 3357.929431 3413.822861 3376.850823 3388.293998 3397.033642 3363.666154 C 3417.216461 3339.098377 3438.600639 3315.551755 3461.066038 3293.026287 C 3483.591506 3270.50082 3507.138128 3249.17671 3531.765972 3228.993891 C 3556.333749 3208.811072 3581.862612 3189.88968 3608.352562 3172.169645 C 3634.842512 3154.509679 3662.053277 3138.171206 3690.16506 3123.154228 C 3718.216776 3108.137249 3746.929239 3094.561901 3776.362516 3082.368115 C 3805.735726 3070.174328 3835.709615 3059.482239 3866.164047 3050.231781 C 3896.618479 3041.04139 3927.433319 3033.292629 3958.668634 3027.105634 C 3989.843881 3020.858571 4021.319468 3016.233342 4052.975258 3013.10981 C 4084.691116 3009.986279 4116.406975 3008.424513 4148.242969 3008.424513 Z M 4148.242969 3008.424513 " stroke="#e83f07" stroke-width="26.67" stroke-opacity="1" stroke-miterlimit="2.613"/></g><path fill="#fefefe" d="M 53.71875 54.527344 C 53.203125 55.304688 52.644531 56.042969 52.046875 56.742188 C 51.445312 57.441406 50.820312 58.089844 50.164062 58.6875 C 49.507812 59.285156 48.839844 59.820312 48.152344 60.296875 C 47.464844 60.769531 46.773438 61.167969 46.082031 61.5 C 45.386719 61.828125 44.707031 62.082031 44.035156 62.253906 C 43.363281 62.429688 42.714844 62.523438 42.089844 62.535156 C 41.464844 62.546875 40.875 62.476562 40.320312 62.324219 C 39.765625 62.171875 39.257812 61.941406 38.796875 61.632812 C 38.335938 61.324219 37.929688 60.945312 37.578125 60.488281 C 37.226562 60.035156 36.933594 59.519531 36.707031 58.9375 C 36.476562 58.355469 36.316406 57.71875 36.21875 57.03125 C 36.125 56.34375 36.097656 55.617188 36.136719 54.851562 C 36.175781 54.085938 36.28125 53.292969 36.457031 52.480469 C 36.632812 51.664062 36.871094 50.835938 37.171875 50.003906 C 37.472656 49.167969 37.832031 48.34375 38.25 47.519531 C 38.667969 46.699219 39.136719 45.902344 39.65625 45.128906 C 40.175781 44.351562 40.730469 43.613281 41.332031 42.914062 C 41.929688 42.214844 42.554688 41.566406 43.210938 40.96875 C 43.867188 40.371094 44.539062 39.835938 45.226562 39.363281 C 45.914062 38.886719 46.601562 38.488281 47.296875 38.15625 C 47.988281 37.828125 48.671875 37.574219 49.34375 37.402344 C 50.015625 37.226562 50.664062 37.132812 51.285156 37.121094 C 51.910156 37.109375 52.5 37.179688 53.054688 37.332031 C 53.609375 37.484375 54.117188 37.714844 54.578125 38.023438 C 55.039062 38.332031 55.445312 38.710938 55.800781 39.167969 C 56.152344 39.621094 56.441406 40.136719 56.667969 40.71875 C 56.898438 41.300781 57.058594 41.9375 57.15625 42.625 C 57.25 43.3125 57.28125 44.039062 57.238281 44.804688 C 57.199219 45.570312 57.09375 46.363281 56.917969 47.175781 C 56.746094 47.992188 56.507812 48.820312 56.203125 49.652344 C 55.902344 50.488281 55.542969 51.316406 55.125 52.136719 C 54.707031 52.957031 54.238281 53.753906 53.71875 54.527344 Z M 53.71875 54.527344 " fill-opacity="1" fill-rule="nonzero"/><path fill="#fefefe" d="M 37.304688 75.113281 C 37.136719 75.652344 36.9375 76.175781 36.707031 76.6875 C 36.480469 77.195312 36.226562 77.683594 35.945312 78.140625 C 35.667969 78.601562 35.367188 79.03125 35.050781 79.421875 C 34.730469 79.816406 34.398438 80.167969 34.050781 80.480469 C 33.703125 80.789062 33.351562 81.054688 32.988281 81.269531 C 32.628906 81.484375 32.265625 81.652344 31.902344 81.765625 C 31.542969 81.878906 31.1875 81.9375 30.839844 81.945312 C 30.488281 81.953125 30.15625 81.90625 29.832031 81.804688 C 29.511719 81.703125 29.210938 81.550781 28.925781 81.347656 C 28.644531 81.144531 28.386719 80.890625 28.152344 80.59375 C 27.921875 80.292969 27.71875 79.953125 27.542969 79.566406 C 27.371094 79.183594 27.230469 78.765625 27.121094 78.3125 C 27.015625 77.859375 26.941406 77.382812 26.902344 76.875 C 26.863281 76.371094 26.863281 75.851562 26.894531 75.3125 C 26.925781 74.773438 26.996094 74.230469 27.097656 73.683594 C 27.199219 73.132812 27.335938 72.589844 27.503906 72.046875 C 27.675781 71.507812 27.871094 70.984375 28.101562 70.472656 C 28.328125 69.964844 28.582031 69.476562 28.863281 69.015625 C 29.140625 68.558594 29.441406 68.128906 29.757812 67.738281 C 30.078125 67.34375 30.410156 66.992188 30.757812 66.679688 C 31.105469 66.371094 31.460938 66.105469 31.820312 65.890625 C 32.183594 65.671875 32.542969 65.507812 32.90625 65.394531 C 33.265625 65.28125 33.621094 65.222656 33.96875 65.214844 C 34.320312 65.207031 34.652344 65.253906 34.976562 65.355469 C 35.296875 65.457031 35.597656 65.609375 35.882812 65.8125 C 36.164062 66.015625 36.421875 66.265625 36.65625 66.566406 C 36.886719 66.867188 37.089844 67.207031 37.265625 67.59375 C 37.4375 67.976562 37.578125 68.394531 37.6875 68.847656 C 37.796875 69.300781 37.867188 69.777344 37.90625 70.285156 C 37.945312 70.789062 37.949219 71.308594 37.914062 71.847656 C 37.882812 72.382812 37.8125 72.929688 37.710938 73.476562 C 37.609375 74.027344 37.472656 74.570312 37.304688 75.113281 Z M 37.304688 75.113281 " fill-opacity="1" fill-rule="nonzero"/><path fill="#e26677" d="M 162.046875 80.644531 L 228.066406 80.644531 C 246.578125 80.644531 263.953125 85.777344 278.835938 94.683594 L 278.835938 215.644531 C 278.835938 250.402344 250.402344 278.839844 215.644531 278.839844 L 77.101562 278.839844 C 73.984375 278.839844 70.921875 278.605469 67.921875 278.167969 C 64.46875 268.097656 62.589844 257.320312 62.589844 246.121094 L 62.589844 180.101562 C 62.589844 125.402344 107.347656 80.644531 162.046875 80.644531 Z M 162.046875 80.644531 " fill-opacity="1" fill-rule="evenodd"/><g clip-path="url(#925f78caab)"><path stroke-linecap="butt" transform="matrix(0.0650306, 0, 0, 0.0650306, -192.660997, -181.729372)" fill="none" stroke-linejoin="miter" d="M 4148.242969 3008.424513 L 6278.61159 3008.424513 C 6310.447584 3008.424513 6342.22351 3009.986279 6373.879301 3013.10981 C 6405.535091 3016.233342 6437.010678 3020.858571 6468.245993 3027.105634 C 6499.42124 3033.292629 6530.296148 3041.04139 6560.75058 3050.231781 C 6591.205012 3059.482239 6621.118833 3070.174328 6650.492043 3082.368115 C 6679.92532 3094.561901 6708.637783 3108.137249 6736.749566 3123.154228 C 6764.801282 3138.171206 6792.072115 3154.509679 6818.501997 3172.169645 C 6844.991947 3189.88968 6870.52081 3208.811072 6895.148654 3228.993891 C 6919.716431 3249.17671 6943.263053 3270.50082 6965.788521 3293.026287 C 6988.313988 3315.551755 7009.638098 3339.098377 7029.820917 3363.666154 C 7050.003736 3388.293998 7068.925128 3413.822861 7086.645163 3440.312811 C 7104.305129 3466.742693 7120.643602 3494.013526 7135.66058 3522.065242 C 7150.677559 3550.177025 7164.252907 3578.889488 7176.446693 3608.322765 C 7188.64048 3637.695975 7199.332569 3667.609796 7208.583027 3698.064228 C 7217.833486 3728.51866 7225.522179 3759.393568 7231.709174 3790.568815 C 7237.956237 3821.80413 7242.581466 3853.279717 7245.704998 3884.935507 C 7248.828529 3916.591298 7250.390295 3948.367224 7250.390295 3980.203218 L 7250.390295 6110.571839 C 7250.390295 6142.407833 7248.828529 6174.183759 7245.704998 6205.83955 C 7242.581466 6237.49534 7237.956237 6268.970927 7231.709174 6300.146174 C 7225.522179 6331.381489 7217.833486 6362.196329 7208.583027 6392.650761 C 7199.332569 6423.105193 7188.64048 6453.079082 7176.446693 6482.452292 C 7164.252907 6511.885569 7150.677559 6540.598032 7135.66058 6568.649748 C 7120.643602 6596.761531 7104.305129 6624.032364 7086.645163 6650.462246 C 7068.925128 6676.952196 7050.003736 6702.481059 7029.820917 6727.048836 C 7009.638098 6751.67668 6988.313988 6775.223302 6965.788521 6797.74877 C 6943.263053 6820.214169 6919.716431 6841.598347 6895.148654 6861.781166 C 6870.52081 6881.963985 6844.991947 6900.885377 6818.501997 6918.605412 C 6792.072115 6936.265378 6764.801282 6952.603851 6736.749566 6967.620829 C 6708.637783 6982.57774 6679.92532 6996.213156 6650.492043 7008.406943 C 6621.118833 7020.540661 6591.205012 7031.292818 6560.75058 7040.483208 C 6530.296148 7049.733667 6499.42124 7057.482428 6468.245993 7063.669423 C 6437.010678 7069.916486 6405.535091 7074.541715 6373.879301 7077.665247 C 6342.22351 7080.788778 6310.447584 7082.350544 6278.61159 7082.350544 L 4148.242969 7082.350544 C 4116.406975 7082.350544 4084.691116 7080.788778 4052.975258 7077.665247 C 4021.319468 7074.541715 3989.843881 7069.916486 3958.668634 7063.669423 C 3927.433319 7057.482428 3896.618479 7049.733667 3866.164047 7040.483208 C 3835.709615 7031.292818 3805.735726 7020.540661 3776.362516 7008.406943 C 3746.929239 6996.213156 3718.216776 6982.57774 3690.16506 6967.620829 C 3662.053277 6952.603851 3634.842512 6936.265378 3608.352562 6918.605412 C 3581.862612 6900.885377 3556.333749 6881.963985 3531.765972 6861.781166 C 3507.138128 6841.598347 3483.591506 6820.214169 3461.066038 6797.74877 C 3438.600639 6775.223302 3417.216461 6751.67668 3397.033642 6727.048836 C 3376.850823 6702.481059 3357.929431 6676.952196 3340.269464 6650.462246 C 3322.54943 6624.032364 3306.210957 6596.761531 3291.193979 6568.649748 C 3276.237068 6540.598032 3262.601652 6511.885569 3250.467933 6482.452292 C 3238.274147 6453.079082 3227.582058 6423.105193 3218.3316 6392.650761 C 3209.081141 6362.196329 3201.33238 6331.381489 3195.145385 6300.146174 C 3188.95839 6268.970927 3184.273093 6237.49534 3181.149561 6205.83955 C 3178.02603 6174.183759 3176.464264 6142.407833 3176.464264 6110.571839 L 3176.464264 3980.203218 C 3176.464264 3948.367224 3178.02603 3916.591298 3181.149561 3884.935507 C 3184.273093 3853.279717 3188.95839 3821.80413 3195.145385 3790.568815 C 3201.33238 3759.393568 3209.081141 3728.51866 3218.3316 3698.064228 C 3227.582058 3667.609796 3238.274147 3637.695975 3250.467933 3608.322765 C 3262.601652 3578.889488 3276.237068 3550.177025 3291.193979 3522.065242 C 3306.210957 3494.013526 3322.54943 3466.742693 3340.269464 3440.312811 C 3357.929431 3413.822861 3376.850823 3388.293998 3397.033642 3363.666154 C 3417.216461 3339.098377 3438.600639 3315.551755 3461.066038 3293.026287 C 3483.591506 3270.50082 3507.138128 3249.17671 3531.765972 3228.993891 C 3556.333749 3208.811072 3581.862612 3189.88968 3608.352562 3172.169645 C 3634.842512 3154.509679 3662.053277 3138.171206 3690.16506 3123.154228 C 3718.216776 3108.137249 3746.929239 3094.561901 3776.362516 3082.368115 C 3805.735726 3070.174328 3835.709615 3059.482239 3866.164047 3050.231781 C 3896.618479 3041.04139 3927.433319 3033.292629 3958.668634 3027.105634 C 3989.843881 3020.858571 4021.319468 3016.233342 4052.975258 3013.10981 C 4084.691116 3009.986279 4116.406975 3008.424513 4148.242969 3008.424513 Z M 4148.242969 3008.424513 " stroke="#e83f07" stroke-width="83.330002" stroke-opacity="1" stroke-miterlimit="2.613"/></g><path fill="#e83f07" d="M 180.285156 94.347656 C 180.285156 95.457031 180.230469 96.566406 180.125 97.671875 C 180.015625 98.777344 179.851562 99.875 179.636719 100.964844 C 179.417969 102.054688 179.148438 103.128906 178.828125 104.191406 C 178.503906 105.257812 178.128906 106.300781 177.703125 107.328125 C 177.28125 108.351562 176.804688 109.355469 176.28125 110.335938 C 175.757812 111.316406 175.1875 112.265625 174.570312 113.191406 C 173.953125 114.113281 173.292969 115.003906 172.589844 115.863281 C 171.882812 116.722656 171.136719 117.542969 170.351562 118.328125 C 169.566406 119.113281 168.746094 119.859375 167.886719 120.566406 C 167.027344 121.269531 166.136719 121.929688 165.214844 122.546875 C 164.289062 123.164062 163.339844 123.734375 162.359375 124.257812 C 161.378906 124.78125 160.375 125.257812 159.351562 125.679688 C 158.324219 126.105469 157.28125 126.480469 156.21875 126.800781 C 155.152344 127.125 154.078125 127.394531 152.988281 127.609375 C 151.898438 127.828125 150.800781 127.992188 149.695312 128.097656 C 148.589844 128.207031 147.484375 128.261719 146.371094 128.261719 C 145.261719 128.261719 144.152344 128.207031 143.046875 128.097656 C 141.941406 127.992188 140.84375 127.828125 139.753906 127.609375 C 138.667969 127.394531 137.589844 127.125 136.527344 126.800781 C 135.464844 126.480469 134.417969 126.105469 133.394531 125.679688 C 132.367188 125.257812 131.363281 124.78125 130.382812 124.257812 C 129.40625 123.734375 128.453125 123.164062 127.53125 122.546875 C 126.605469 121.929688 125.714844 121.269531 124.855469 120.566406 C 123.996094 119.859375 123.175781 119.113281 122.390625 118.328125 C 121.605469 117.542969 120.859375 116.722656 120.15625 115.863281 C 119.449219 115.003906 118.789062 114.113281 118.171875 113.191406 C 117.554688 112.265625 116.984375 111.316406 116.460938 110.335938 C 115.9375 109.355469 115.464844 108.351562 115.039062 107.328125 C 114.613281 106.300781 114.238281 105.257812 113.917969 104.191406 C 113.59375 103.128906 113.324219 102.054688 113.109375 100.964844 C 112.890625 99.875 112.730469 98.777344 112.621094 97.671875 C 112.511719 96.566406 112.457031 95.457031 112.457031 94.347656 C 112.457031 93.238281 112.511719 92.128906 112.621094 91.023438 C 112.730469 89.917969 112.890625 88.820312 113.109375 87.730469 C 113.324219 86.640625 113.59375 85.566406 113.917969 84.503906 C 114.238281 83.441406 114.613281 82.394531 115.039062 81.371094 C 115.464844 80.34375 115.9375 79.339844 116.460938 78.359375 C 116.984375 77.382812 117.554688 76.429688 118.171875 75.507812 C 118.789062 74.582031 119.449219 73.691406 120.15625 72.832031 C 120.859375 71.972656 121.605469 71.152344 122.390625 70.367188 C 123.175781 69.582031 123.996094 68.835938 124.855469 68.132812 C 125.714844 67.425781 126.605469 66.765625 127.53125 66.148438 C 128.453125 65.53125 129.40625 64.960938 130.382812 64.4375 C 131.363281 63.914062 132.367188 63.441406 133.394531 63.015625 C 134.417969 62.589844 135.464844 62.214844 136.527344 61.894531 C 137.589844 61.570312 138.667969 61.300781 139.753906 61.085938 C 140.84375 60.867188 141.941406 60.707031 143.046875 60.597656 C 144.152344 60.488281 145.261719 60.433594 146.371094 60.433594 C 147.484375 60.433594 148.589844 60.488281 149.695312 60.597656 C 150.800781 60.707031 151.898438 60.867188 152.988281 61.085938 C 154.078125 61.300781 155.152344 61.570312 156.21875 61.894531 C 157.28125 62.214844 158.324219 62.589844 159.351562 63.015625 C 160.375 63.441406 161.378906 63.914062 162.359375 64.4375 C 163.339844 64.960938 164.289062 65.53125 165.214844 66.148438 C 166.136719 66.765625 167.027344 67.425781 167.886719 68.132812 C 168.746094 68.835938 169.566406 69.582031 170.351562 70.367188 C 171.140625 71.152344 171.882812 71.972656 172.589844 72.832031 C 173.292969 73.691406 173.953125 74.582031 174.570312 75.507812 C 175.1875 76.429688 175.757812 77.382812 176.28125 78.359375 C 176.804688 79.339844 177.28125 80.34375 177.703125 81.371094 C 178.128906 82.394531 178.503906 83.441406 178.828125 84.503906 C 179.148438 85.566406 179.417969 86.640625 179.636719 87.730469 C 179.851562 88.820312 180.015625 89.917969 180.125 91.023438 C 180.230469 92.128906 180.285156 93.238281 180.285156 94.347656 Z M 180.285156 94.347656 " fill-opacity="1" fill-rule="nonzero"/><path fill="#e83f07" d="M 146.371094 135.859375 C 188.210938 135.859375 222.128906 169.773438 222.128906 211.613281 C 222.128906 215.109375 221.886719 218.550781 221.425781 221.921875 L 71.320312 221.921875 C 70.859375 218.550781 70.617188 215.109375 70.617188 211.613281 C 70.617188 169.773438 104.535156 135.859375 146.375 135.859375 Z M 146.371094 135.859375 " fill-opacity="1" fill-rule="evenodd"/><path fill="#fefefe" d="M 176.398438 89.679688 C 176.398438 90.789062 176.34375 91.898438 176.234375 93.003906 C 176.125 94.109375 175.960938 95.207031 175.746094 96.296875 C 175.527344 97.386719 175.257812 98.460938 174.9375 99.523438 C 174.613281 100.589844 174.242188 101.632812 173.816406 102.660156 C 173.390625 103.683594 172.917969 104.6875 172.390625 105.667969 C 171.867188 106.648438 171.296875 107.597656 170.679688 108.523438 C 170.0625 109.445312 169.402344 110.335938 168.699219 111.195312 C 167.996094 112.054688 167.25 112.875 166.464844 113.660156 C 165.679688 114.445312 164.855469 115.191406 163.996094 115.898438 C 163.140625 116.601562 162.246094 117.261719 161.324219 117.878906 C 160.402344 118.496094 159.449219 119.066406 158.46875 119.589844 C 157.488281 120.113281 156.488281 120.589844 155.460938 121.011719 C 154.433594 121.4375 153.390625 121.8125 152.328125 122.132812 C 151.265625 122.457031 150.1875 122.726562 149.097656 122.941406 C 148.007812 123.160156 146.910156 123.324219 145.808594 123.429688 C 144.703125 123.539062 143.59375 123.59375 142.484375 123.59375 C 141.371094 123.59375 140.261719 123.539062 139.15625 123.429688 C 138.054688 123.324219 136.957031 123.160156 135.867188 122.941406 C 134.777344 122.726562 133.699219 122.457031 132.636719 122.132812 C 131.574219 121.8125 130.53125 121.4375 129.503906 121.011719 C 128.476562 120.589844 127.476562 120.113281 126.496094 119.589844 C 125.515625 119.066406 124.5625 118.496094 123.640625 117.878906 C 122.71875 117.261719 121.824219 116.601562 120.96875 115.898438 C 120.109375 115.191406 119.285156 114.445312 118.5 113.660156 C 117.714844 112.875 116.96875 112.054688 116.265625 111.195312 C 115.5625 110.335938 114.902344 109.445312 114.285156 108.523438 C 113.667969 107.597656 113.097656 106.648438 112.570312 105.667969 C 112.046875 104.6875 111.574219 103.683594 111.148438 102.660156 C 110.722656 101.632812 110.351562 100.589844 110.027344 99.523438 C 109.707031 98.460938 109.4375 97.386719 109.21875 96.296875 C 109.003906 95.207031 108.839844 94.109375 108.730469 93.003906 C 108.621094 91.898438 108.566406 90.789062 108.566406 89.679688 C 108.566406 88.570312 108.621094 87.460938 108.730469 86.355469 C 108.839844 85.25 109.003906 84.152344 109.21875 83.0625 C 109.4375 81.972656 109.707031 80.898438 110.027344 79.835938 C 110.351562 78.773438 110.722656 77.726562 111.148438 76.703125 C 111.574219 75.675781 112.046875 74.671875 112.570312 73.691406 C 113.097656 72.714844 113.667969 71.761719 114.285156 70.839844 C 114.902344 69.914062 115.5625 69.023438 116.265625 68.164062 C 116.96875 67.304688 117.714844 66.484375 118.5 65.699219 C 119.285156 64.914062 120.109375 64.167969 120.96875 63.464844 C 121.824219 62.757812 122.71875 62.097656 123.640625 61.480469 C 124.5625 60.863281 125.515625 60.292969 126.496094 59.769531 C 127.476562 59.246094 128.476562 58.773438 129.503906 58.347656 C 130.53125 57.921875 131.574219 57.546875 132.636719 57.226562 C 133.699219 56.902344 134.777344 56.632812 135.867188 56.417969 C 136.957031 56.199219 138.054688 56.039062 139.15625 55.929688 C 140.261719 55.820312 141.371094 55.765625 142.484375 55.765625 C 143.59375 55.765625 144.703125 55.820312 145.808594 55.929688 C 146.910156 56.039062 148.007812 56.199219 149.097656 56.417969 C 150.1875 56.632812 151.265625 56.902344 152.328125 57.226562 C 153.390625 57.546875 154.433594 57.921875 155.460938 58.347656 C 156.488281 58.773438 157.488281 59.246094 158.46875 59.769531 C 159.449219 60.292969 160.402344 60.863281 161.324219 61.480469 C 162.246094 62.097656 163.140625 62.757812 163.996094 63.464844 C 164.855469 64.167969 165.679688 64.914062 166.464844 65.699219 C 167.25 66.484375 167.996094 67.304688 168.699219 68.164062 C 169.402344 69.023438 170.0625 69.914062 170.679688 70.839844 C 171.296875 71.761719 171.867188 72.714844 172.390625 73.691406 C 172.917969 74.671875 173.390625 75.675781 173.816406 76.703125 C 174.242188 77.726562 174.613281 78.773438 174.9375 79.835938 C 175.257812 80.898438 175.527344 81.972656 175.746094 83.0625 C 175.960938 84.152344 176.125 85.25 176.234375 86.355469 C 176.34375 87.460938 176.398438 88.570312 176.398438 89.679688 Z M 176.398438 89.679688 " fill-opacity="1" fill-rule="nonzero"/><path fill="#fefefe" d="M 142.484375 131.191406 C 184.320312 131.191406 218.238281 165.105469 218.238281 206.945312 C 218.238281 210.441406 217.996094 213.882812 217.535156 217.253906 L 67.429688 217.253906 C 66.96875 213.882812 66.726562 210.441406 66.726562 206.945312 C 66.726562 165.105469 100.644531 131.191406 142.484375 131.191406 Z M 142.484375 131.191406 " fill-opacity="1" fill-rule="evenodd"/></svg>