<svg xmlns="http://www.w3.org/2000/svg" xmlns:xlink="http://www.w3.org/1999/xlink" width="388" zoomAndPan="magnify" viewBox="0 0 291 290.999983" height="388" preserveAspectRatio="xMidYMid meet" version="1.0"><defs><clipPath id="a3d418646d"><path d="M 34.011719 0 L 256 0 L 256 291 L 34.011719 291 Z M 34.011719 0 " clip-rule="nonzero"/></clipPath></defs><g clip-path="url(#a3d418646d)"><path fill="#000000" d="M 71.011719 291 L 219.757812 291 C 239.671875 291 255.902344 274.753906 255.902344 254.769531 L 255.902344 36.230469 C 255.902344 16.246094 239.671875 0 219.757812 0 L 71.011719 0 C 51.097656 0 34.867188 16.246094 34.867188 36.230469 L 34.867188 254.769531 C 34.867188 274.753906 51.097656 291 71.011719 291 Z M 44.558594 36.230469 C 44.558594 21.582031 56.429688 9.699219 71.011719 9.699219 L 219.757812 9.699219 C 234.34375 9.699219 246.214844 21.582031 246.214844 36.230469 L 246.214844 254.769531 C 246.214844 269.417969 234.34375 281.300781 219.757812 281.300781 L 71.011719 281.300781 C 56.429688 281.300781 44.558594 269.417969 44.558594 254.769531 Z M 44.558594 36.230469 " fill-opacity="1" fill-rule="nonzero"/></g><path fill="#000000" d="M 103.328125 145.644531 C 114.523438 155.636719 129.25 161.746094 145.386719 161.746094 C 161.519531 161.746094 176.25 155.636719 187.441406 145.644531 C 187.878906 145.355469 188.265625 145.015625 188.554688 144.578125 C 200.910156 133.035156 208.710938 116.59375 208.710938 98.40625 C 208.710938 63.4375 180.320312 35.015625 145.386719 35.015625 C 110.453125 35.015625 82.058594 63.4375 82.058594 98.40625 C 82.058594 116.59375 89.859375 133.035156 102.214844 144.578125 C 102.507812 145.015625 102.894531 145.355469 103.328125 145.644531 Z M 125.085938 89.433594 C 125.085938 78.230469 134.191406 69.113281 145.386719 69.113281 C 156.578125 69.113281 165.6875 78.230469 165.6875 89.433594 C 165.6875 100.636719 156.578125 109.753906 145.386719 109.753906 C 134.191406 109.753906 125.085938 100.636719 125.085938 89.433594 Z M 145.386719 152.046875 C 132.738281 152.046875 121.160156 147.632812 111.953125 140.261719 C 118.203125 127.75 131.1875 119.457031 145.386719 119.457031 C 159.582031 119.457031 172.566406 127.75 178.816406 140.261719 C 169.613281 147.632812 158.03125 152.046875 145.386719 152.046875 Z M 145.386719 152.046875 " fill-opacity="1" fill-rule="nonzero"/><path fill="#000000" d="M 203.847656 181.320312 L 86.917969 181.320312 C 84.238281 181.320312 82.074219 183.496094 82.074219 186.171875 C 82.074219 188.847656 84.238281 191.023438 86.917969 191.023438 L 203.847656 191.023438 C 206.527344 191.023438 208.691406 188.847656 208.691406 186.171875 C 208.691406 183.496094 206.527344 181.320312 203.847656 181.320312 Z M 203.847656 181.320312 " fill-opacity="1" fill-rule="nonzero"/><path fill="#000000" d="M 203.847656 213.800781 L 86.917969 213.800781 C 84.238281 213.800781 82.074219 215.976562 82.074219 218.652344 C 82.074219 221.328125 84.238281 223.503906 86.917969 223.503906 L 203.847656 223.503906 C 206.527344 223.503906 208.691406 221.328125 208.691406 218.652344 C 208.691406 215.976562 206.527344 213.800781 203.847656 213.800781 Z M 203.847656 213.800781 " fill-opacity="1" fill-rule="nonzero"/><path fill="#000000" d="M 175.933594 246.277344 L 114.839844 246.277344 C 112.164062 246.277344 109.996094 248.449219 109.996094 251.128906 C 109.996094 253.804688 112.164062 255.976562 114.839844 255.976562 L 175.933594 255.976562 C 178.613281 255.976562 180.78125 253.804688 180.78125 251.128906 C 180.78125 248.449219 178.613281 246.277344 175.933594 246.277344 Z M 175.933594 246.277344 " fill-opacity="1" fill-rule="nonzero"/></svg>