<svg xmlns="http://www.w3.org/2000/svg" xmlns:xlink="http://www.w3.org/1999/xlink" width="388" zoomAndPan="magnify" viewBox="0 0 291 290.999983" height="388" preserveAspectRatio="xMidYMid meet" version="1.0"><path fill="#000000" d="M 0.0078125 228.070312 L 0.0078125 227.371094 C 0.0078125 223.582031 2.59375 220.378906 6.292969 219.582031 C 40.582031 212.21875 73.898438 200.980469 105.71875 186.148438 C 106.085938 186.039062 106.429688 185.878906 106.738281 185.667969 C 115.078125 181.757812 123.3125 177.601562 131.433594 173.199219 C 131.757812 173.082031 132.054688 172.917969 132.328125 172.71875 C 171.910156 151.171875 208.804688 123.875 241.90625 91.425781 C 242.964844 90.386719 243.28125 88.8125 242.703125 87.449219 C 242.140625 86.109375 240.828125 85.242188 239.382812 85.242188 C 239.355469 85.242188 239.328125 85.242188 239.300781 85.242188 L 231.769531 85.414062 C 226.863281 85.523438 222.75 81.609375 222.640625 76.695312 C 222.542969 71.773438 226.457031 67.683594 231.367188 67.574219 L 275.457031 66.601562 C 277.242188 66.566406 278.714844 67.976562 278.757812 69.753906 L 279.710938 113.847656 C 279.765625 116.214844 278.882812 118.46875 277.230469 120.195312 C 275.597656 121.902344 273.410156 122.878906 271.070312 122.953125 C 271.035156 122.953125 270.996094 122.953125 270.960938 122.957031 C 266.070312 123.066406 261.980469 119.144531 261.871094 114.238281 L 261.683594 105.035156 C 261.65625 103.609375 260.789062 102.335938 259.476562 101.785156 C 258.164062 101.230469 256.648438 101.503906 255.609375 102.476562 C 182.863281 170.710938 105.378906 213.734375 19.039062 233.78125 C 18.933594 233.804688 18.832031 233.828125 18.730469 233.855469 C 15.707031 234.554688 12.671875 235.230469 9.625 235.875 C 7.15625 236.390625 4.90625 235.84375 2.960938 234.277344 C 1.003906 232.679688 0.0117188 230.589844 0.0117188 228.074219 Z M 113.992188 36.960938 L 115.207031 37.394531 C 117.015625 37.964844 118.9375 38.273438 120.933594 38.273438 C 131.480469 38.273438 140.058594 29.683594 140.058594 19.125 C 140.058594 8.570312 131.480469 0 120.933594 0 C 110.386719 0 101.804688 8.578125 101.804688 19.125 C 101.804688 27.234375 106.867188 34.175781 113.992188 36.960938 Z M 9.148438 147.058594 L 55.164062 147.058594 C 58.015625 147.058594 60.378906 145.953125 62.1875 143.773438 L 80.515625 121.847656 C 81.195312 121.039062 82.195312 120.566406 83.253906 120.554688 L 83.285156 120.554688 C 84.328125 120.554688 85.324219 121.007812 86.011719 121.800781 L 107.433594 146.511719 C 108.003906 147.167969 108.316406 148.007812 108.316406 148.875 L 108.316406 176.929688 C 114.464844 173.960938 120.550781 170.859375 126.578125 167.621094 L 126.578125 144.121094 C 126.578125 141.785156 125.867188 139.875 124.339844 138.113281 C 120.074219 133.207031 115.8125 128.285156 111.546875 123.363281 L 104.625 115.382812 C 103.824219 114.460938 103.546875 113.199219 103.878906 112.027344 L 111.890625 83.972656 C 112.308594 82.511719 113.597656 81.46875 115.113281 81.367188 C 116.628906 81.253906 118.046875 82.121094 118.660156 83.511719 L 118.78125 83.785156 C 121.652344 90.304688 123.285156 93.441406 129.011719 93.441406 L 155.988281 93.441406 C 161.019531 93.441406 165.113281 89.339844 165.113281 84.300781 C 165.113281 79.261719 161.019531 75.175781 155.988281 75.175781 L 135.570312 75.175781 C 134.195312 75.175781 132.9375 74.394531 132.332031 73.15625 L 120.914062 49.859375 C 119.816406 47.617188 118.132812 46.109375 115.769531 45.257812 L 112.734375 44.175781 C 112.320312 44.039062 111.914062 43.894531 111.507812 43.738281 L 98.570312 39.125 C 97.621094 38.78125 96.792969 38.625 95.773438 38.601562 L 61.554688 37.628906 C 58.664062 37.542969 56.28125 38.503906 54.269531 40.566406 L 33.269531 62.027344 C 29.738281 65.628906 29.800781 71.429688 33.402344 74.957031 C 37.003906 78.472656 42.796875 78.410156 46.3125 74.808594 L 60.699219 60.113281 C 63.339844 57.429688 66.722656 56.050781 70.488281 56.152344 L 74.546875 56.269531 C 76.484375 56.351562 78.207031 57.265625 79.320312 58.777344 C 80.472656 60.34375 80.820312 62.226562 80.296875 64.078125 L 68.769531 106.882812 C 68.632812 107.386719 68.390625 107.855469 68.054688 108.257812 L 51.984375 127.480469 C 51.296875 128.300781 50.285156 128.777344 49.214844 128.777344 L 9.148438 128.777344 C 4.109375 128.777344 0.0078125 132.875 0.0078125 137.917969 C 0.0078125 142.957031 4.109375 147.058594 9.148438 147.058594 Z M 284.269531 277.542969 L 6.730469 277.542969 C 3.023438 277.542969 0.0078125 280.5625 0.0078125 284.28125 C 0.0078125 287.996094 3.023438 291 6.730469 291 L 284.269531 291 C 287.976562 291 290.992188 287.984375 290.992188 284.28125 C 290.992188 280.574219 287.976562 277.542969 284.269531 277.542969 Z M 105.359375 270.328125 L 105.359375 212.75 C 96.148438 216.800781 86.839844 220.542969 77.417969 223.988281 L 77.417969 270.328125 Z M 51.25 270.328125 L 51.25 232.695312 C 42.066406 235.457031 32.757812 237.953125 23.304688 240.195312 L 23.304688 270.328125 Z M 131.527344 270.328125 L 159.472656 270.328125 L 159.472656 184.8125 C 155.402344 187.234375 151.316406 189.597656 147.199219 191.894531 C 141.996094 194.800781 136.773438 197.597656 131.527344 200.289062 Z M 254.65625 114.390625 L 254.632812 113.222656 C 249.675781 117.765625 244.71875 122.179688 239.75 126.472656 L 239.75 270.328125 L 267.695312 270.328125 L 267.695312 129.875 C 260.414062 128.457031 254.828125 122.109375 254.65625 114.390625 Z M 213.582031 270.328125 L 213.582031 147.886719 C 204.339844 155.03125 195.035156 161.78125 185.640625 168.15625 L 185.640625 270.328125 Z M 213.582031 270.328125 " fill-opacity="1" fill-rule="nonzero"/></svg>