<svg xmlns="http://www.w3.org/2000/svg" xmlns:xlink="http://www.w3.org/1999/xlink" width="388" zoomAndPan="magnify" viewBox="0 0 291 290.999983" height="388" preserveAspectRatio="xMidYMid meet" version="1.0"><path fill="#000000" d="M 115.476562 34.523438 C 115.476562 35.652344 115.421875 36.78125 115.308594 37.90625 C 115.199219 39.03125 115.035156 40.148438 114.8125 41.257812 C 114.59375 42.367188 114.316406 43.460938 113.988281 44.542969 C 113.660156 45.625 113.28125 46.6875 112.847656 47.734375 C 112.414062 48.777344 111.933594 49.796875 111.398438 50.796875 C 110.867188 51.792969 110.285156 52.761719 109.660156 53.703125 C 109.03125 54.640625 108.359375 55.546875 107.640625 56.421875 C 106.921875 57.296875 106.164062 58.132812 105.367188 58.933594 C 104.566406 59.734375 103.730469 60.492188 102.855469 61.207031 C 101.980469 61.925781 101.074219 62.597656 100.136719 63.226562 C 99.195312 63.855469 98.226562 64.433594 97.230469 64.96875 C 96.234375 65.5 95.210938 65.984375 94.167969 66.417969 C 93.121094 66.847656 92.058594 67.230469 90.976562 67.558594 C 89.894531 67.886719 88.800781 68.160156 87.691406 68.382812 C 86.582031 68.601562 85.464844 68.765625 84.339844 68.878906 C 83.214844 68.988281 82.089844 69.042969 80.957031 69.042969 C 79.828125 69.042969 78.699219 68.988281 77.574219 68.878906 C 76.449219 68.765625 75.332031 68.601562 74.222656 68.382812 C 73.113281 68.160156 72.019531 67.886719 70.9375 67.558594 C 69.855469 67.230469 68.792969 66.847656 67.746094 66.417969 C 66.703125 65.984375 65.683594 65.5 64.6875 64.96875 C 63.6875 64.433594 62.71875 63.855469 61.78125 63.226562 C 60.839844 62.597656 59.933594 61.925781 59.058594 61.207031 C 58.183594 60.492188 57.347656 59.734375 56.550781 58.933594 C 55.75 58.132812 54.992188 57.296875 54.273438 56.421875 C 53.558594 55.546875 52.882812 54.640625 52.257812 53.703125 C 51.628906 52.761719 51.046875 51.792969 50.515625 50.796875 C 49.980469 49.796875 49.5 48.777344 49.066406 47.734375 C 48.632812 46.6875 48.253906 45.625 47.925781 44.542969 C 47.597656 43.460938 47.324219 42.367188 47.101562 41.257812 C 46.882812 40.148438 46.714844 39.03125 46.605469 37.90625 C 46.496094 36.78125 46.4375 35.652344 46.4375 34.523438 C 46.4375 33.390625 46.496094 32.261719 46.605469 31.136719 C 46.714844 30.011719 46.882812 28.894531 47.101562 27.789062 C 47.324219 26.679688 47.597656 25.582031 47.925781 24.5 C 48.253906 23.417969 48.632812 22.355469 49.066406 21.3125 C 49.5 20.265625 49.980469 19.246094 50.515625 18.25 C 51.046875 17.25 51.628906 16.28125 52.257812 15.34375 C 52.882812 14.402344 53.558594 13.496094 54.273438 12.621094 C 54.992188 11.746094 55.75 10.910156 56.550781 10.109375 C 57.347656 9.3125 58.183594 8.554688 59.058594 7.835938 C 59.933594 7.117188 60.839844 6.445312 61.78125 5.816406 C 62.71875 5.191406 63.6875 4.609375 64.6875 4.078125 C 65.683594 3.542969 66.703125 3.058594 67.746094 2.628906 C 68.792969 2.195312 69.855469 1.816406 70.9375 1.488281 C 72.019531 1.160156 73.113281 0.882812 74.222656 0.664062 C 75.332031 0.441406 76.449219 0.277344 77.574219 0.167969 C 78.699219 0.0546875 79.828125 0 80.957031 0 C 82.089844 0 83.214844 0.0546875 84.339844 0.167969 C 85.464844 0.277344 86.582031 0.441406 87.691406 0.664062 C 88.800781 0.882812 89.894531 1.160156 90.976562 1.488281 C 92.058594 1.816406 93.121094 2.195312 94.167969 2.628906 C 95.210938 3.058594 96.234375 3.542969 97.230469 4.078125 C 98.226562 4.609375 99.195312 5.191406 100.136719 5.816406 C 101.074219 6.445312 101.980469 7.117188 102.855469 7.835938 C 103.730469 8.554688 104.566406 9.3125 105.367188 10.109375 C 106.164062 10.910156 106.921875 11.746094 107.640625 12.621094 C 108.359375 13.496094 109.03125 14.402344 109.660156 15.34375 C 110.285156 16.28125 110.867188 17.25 111.398438 18.25 C 111.933594 19.246094 112.414062 20.265625 112.847656 21.3125 C 113.28125 22.355469 113.660156 23.417969 113.988281 24.5 C 114.316406 25.582031 114.59375 26.679688 114.8125 27.789062 C 115.035156 28.894531 115.199219 30.011719 115.308594 31.136719 C 115.421875 32.261719 115.476562 33.390625 115.476562 34.523438 Z M 115.476562 34.523438 " fill-opacity="1" fill-rule="nonzero"/><path fill="#000000" d="M 244.203125 34.523438 C 244.203125 35.652344 244.144531 36.78125 244.035156 37.90625 C 243.925781 39.03125 243.757812 40.148438 243.539062 41.257812 C 243.316406 42.367188 243.042969 43.460938 242.714844 44.542969 C 242.386719 45.625 242.007812 46.6875 241.574219 47.734375 C 241.140625 48.777344 240.660156 49.796875 240.125 50.796875 C 239.59375 51.792969 239.011719 52.761719 238.382812 53.703125 C 237.753906 54.640625 237.082031 55.546875 236.367188 56.421875 C 235.648438 57.296875 234.890625 58.132812 234.089844 58.933594 C 233.292969 59.734375 232.453125 60.492188 231.582031 61.207031 C 230.707031 61.925781 229.800781 62.597656 228.859375 63.226562 C 227.921875 63.855469 226.953125 64.433594 225.953125 64.96875 C 224.957031 65.5 223.9375 65.984375 222.890625 66.417969 C 221.847656 66.847656 220.785156 67.230469 219.703125 67.558594 C 218.621094 67.886719 217.527344 68.160156 216.417969 68.382812 C 215.308594 68.601562 214.191406 68.765625 213.066406 68.878906 C 211.941406 68.988281 210.8125 69.042969 209.683594 69.042969 C 208.550781 69.042969 207.425781 68.988281 206.300781 68.878906 C 205.175781 68.765625 204.058594 68.601562 202.949219 68.382812 C 201.839844 68.160156 200.746094 67.886719 199.664062 67.558594 C 198.582031 67.230469 197.519531 66.847656 196.472656 66.417969 C 195.429688 65.984375 194.40625 65.5 193.410156 64.96875 C 192.414062 64.433594 191.445312 63.855469 190.503906 63.226562 C 189.566406 62.597656 188.660156 61.925781 187.785156 61.207031 C 186.910156 60.492188 186.074219 59.734375 185.273438 58.933594 C 184.476562 58.132812 183.71875 57.296875 183 56.421875 C 182.28125 55.546875 181.609375 54.640625 180.980469 53.703125 C 180.355469 52.761719 179.773438 51.792969 179.238281 50.796875 C 178.707031 49.796875 178.222656 48.777344 177.792969 47.734375 C 177.359375 46.6875 176.980469 45.625 176.652344 44.542969 C 176.324219 43.460938 176.046875 42.367188 175.828125 41.257812 C 175.605469 40.148438 175.441406 39.03125 175.332031 37.90625 C 175.21875 36.78125 175.164062 35.652344 175.164062 34.523438 C 175.164062 33.390625 175.21875 32.261719 175.332031 31.136719 C 175.441406 30.011719 175.605469 28.894531 175.828125 27.789062 C 176.046875 26.679688 176.324219 25.582031 176.652344 24.5 C 176.980469 23.417969 177.359375 22.355469 177.792969 21.3125 C 178.222656 20.265625 178.707031 19.246094 179.238281 18.25 C 179.773438 17.25 180.355469 16.28125 180.980469 15.34375 C 181.609375 14.402344 182.28125 13.496094 183 12.621094 C 183.71875 11.746094 184.476562 10.910156 185.273438 10.109375 C 186.074219 9.3125 186.910156 8.554688 187.785156 7.835938 C 188.660156 7.117188 189.566406 6.445312 190.503906 5.816406 C 191.445312 5.191406 192.414062 4.609375 193.410156 4.078125 C 194.40625 3.542969 195.429688 3.058594 196.472656 2.628906 C 197.519531 2.195312 198.582031 1.816406 199.664062 1.488281 C 200.746094 1.160156 201.839844 0.882812 202.949219 0.664062 C 204.058594 0.441406 205.175781 0.277344 206.300781 0.167969 C 207.425781 0.0546875 208.550781 0 209.683594 0 C 210.8125 0 211.941406 0.0546875 213.066406 0.167969 C 214.191406 0.277344 215.308594 0.441406 216.417969 0.664062 C 217.527344 0.882812 218.621094 1.160156 219.703125 1.488281 C 220.785156 1.816406 221.847656 2.195312 222.890625 2.628906 C 223.9375 3.058594 224.957031 3.542969 225.953125 4.078125 C 226.953125 4.609375 227.921875 5.191406 228.859375 5.816406 C 229.800781 6.445312 230.707031 7.117188 231.582031 7.835938 C 232.453125 8.554688 233.292969 9.3125 234.089844 10.109375 C 234.890625 10.910156 235.648438 11.746094 236.367188 12.621094 C 237.082031 13.496094 237.753906 14.402344 238.382812 15.34375 C 239.011719 16.28125 239.59375 17.25 240.125 18.25 C 240.660156 19.246094 241.140625 20.265625 241.574219 21.3125 C 242.007812 22.355469 242.386719 23.417969 242.714844 24.5 C 243.042969 25.582031 243.316406 26.679688 243.539062 27.789062 C 243.757812 28.894531 243.925781 30.011719 244.035156 31.136719 C 244.144531 32.261719 244.203125 33.390625 244.203125 34.523438 Z M 244.203125 34.523438 " fill-opacity="1" fill-rule="nonzero"/><path fill="#000000" d="M 284.832031 114.355469 L 253.191406 83.070312 C 247.4375 77.316406 239.527344 74.078125 231.257812 74.078125 L 187.75 74.078125 C 179.480469 74.078125 171.570312 77.316406 165.816406 83.070312 L 145.320312 103.925781 L 124.824219 83.429688 C 119.070312 77.675781 111.160156 74.4375 102.890625 74.4375 L 59.382812 74.4375 C 51.113281 74.4375 43.203125 77.675781 37.449219 83.429688 L 6.167969 114.714844 C 0.414062 120.46875 0.414062 130.175781 6.167969 135.929688 C 11.921875 142.042969 21.269531 141.683594 27.382812 135.929688 L 46.4375 116.871094 L 46.4375 203.898438 C 46.4375 212.167969 52.910156 219 61.179688 219 C 69.453125 219 75.921875 212.167969 75.921875 203.898438 L 75.921875 170.8125 C 75.921875 168.296875 78.082031 166.136719 80.597656 166.136719 C 83.113281 166.136719 85.273438 168.296875 85.273438 170.8125 L 85.273438 203.898438 C 85.273438 212.167969 92.105469 219 100.375 219 C 108.644531 219 115.476562 212.167969 115.476562 203.898438 L 115.476562 116.511719 L 134.535156 135.570312 C 137.410156 138.808594 141.363281 140.246094 145.320312 140.246094 C 149.277344 140.246094 153.230469 138.808594 156.105469 135.570312 L 175.164062 116.511719 L 156.828125 182.320312 L 175.164062 182.320312 L 175.164062 203.898438 C 175.164062 212.167969 181.636719 219 189.90625 219 C 198.175781 219 204.648438 212.167969 204.648438 203.898438 L 204.648438 182.320312 L 214.355469 182.320312 L 214.355469 203.898438 C 214.355469 212.167969 220.828125 219 229.097656 219 C 237.371094 219 243.839844 212.167969 243.839844 203.898438 L 243.839844 182.320312 L 262.539062 182.320312 L 244.203125 116.511719 L 263.257812 135.570312 C 269.011719 141.324219 278.71875 141.683594 284.472656 135.570312 C 290.585938 129.816406 290.585938 120.46875 284.832031 114.355469 Z M 284.832031 114.355469 " fill-opacity="1" fill-rule="nonzero"/></svg>