<svg xmlns="http://www.w3.org/2000/svg" xmlns:xlink="http://www.w3.org/1999/xlink" width="388" zoomAndPan="magnify" viewBox="0 0 291 290.999983" height="388" preserveAspectRatio="xMidYMid meet" version="1.0"><defs><clipPath id="c4fa8db159"><path d="M 0 0 L 254.25 0 L 254.25 291 L 0 291 Z M 0 0 " clip-rule="nonzero"/></clipPath></defs><g clip-path="url(#c4fa8db159)"><path fill="#000000" d="M 108.40625 111.023438 L 145.882812 111.023438 L 145.882812 96.4375 C 145.882812 91.28125 143.769531 86.605469 140.375 83.210938 C 136.96875 79.816406 132.292969 77.703125 127.152344 77.703125 C 122 77.703125 117.324219 79.816406 113.929688 83.210938 C 110.535156 86.605469 108.421875 91.296875 108.421875 96.4375 L 108.421875 111.023438 Z M 104.277344 279.644531 C 106.609375 282.5625 106.144531 286.832031 103.214844 289.160156 C 100.296875 291.492188 96.027344 291.015625 93.699219 288.097656 L 70.605469 259.238281 C 68.273438 256.320312 68.734375 252.054688 71.667969 249.722656 C 71.996094 249.464844 72.335938 249.246094 72.675781 249.039062 L 104.316406 232.027344 C 107.617188 230.253906 111.734375 231.496094 113.519531 234.792969 C 115.292969 238.105469 114.050781 242.210938 110.753906 243.996094 L 92.769531 253.660156 C 96.328125 254.792969 99.941406 255.746094 103.621094 256.523438 C 111.160156 258.121094 119.027344 258.953125 127.136719 258.953125 C 158.480469 258.953125 186.851562 246.246094 207.378906 225.714844 C 227.910156 205.183594 240.617188 176.8125 240.617188 145.472656 C 240.617188 135.179688 239.253906 125.226562 236.703125 115.78125 C 234.074219 106.046875 230.175781 96.816406 225.171875 88.269531 C 223.277344 85.023438 224.367188 80.855469 227.625 78.957031 C 230.871094 77.0625 235.042969 78.167969 236.9375 81.414062 C 242.511719 90.957031 246.886719 101.316406 249.847656 112.277344 C 252.710938 122.882812 254.238281 134.007812 254.238281 145.472656 C 254.238281 180.5625 240.015625 212.339844 217.003906 235.339844 C 194.007812 258.339844 162.230469 272.570312 127.136719 272.570312 C 118.183594 272.570312 109.390625 271.628906 100.855469 269.832031 C 99.015625 269.449219 97.1875 269.011719 95.386719 268.546875 L 104.277344 279.660156 Z M 150 11.273438 C 147.667969 8.355469 148.132812 4.089844 151.0625 1.757812 C 153.980469 -0.574219 158.25 -0.0976562 160.578125 2.820312 L 183.671875 31.679688 C 186.003906 34.597656 185.542969 38.863281 182.609375 41.195312 C 182.28125 41.457031 181.941406 41.671875 181.601562 41.878906 L 149.960938 58.890625 C 146.660156 60.664062 142.542969 59.421875 140.757812 56.125 C 138.984375 52.8125 140.226562 48.707031 143.523438 46.921875 L 161.519531 37.257812 C 158.140625 36.179688 154.675781 35.265625 151.171875 34.503906 C 143.457031 32.839844 135.414062 31.96875 127.136719 31.96875 C 95.796875 31.96875 67.425781 44.671875 46.898438 65.203125 C 26.367188 85.734375 13.660156 114.105469 13.660156 145.445312 C 13.660156 155.738281 15.023438 165.691406 17.574219 175.125 C 20.21875 184.914062 24.117188 194.140625 29.078125 202.648438 C 30.972656 205.878906 29.882812 210.039062 26.652344 211.933594 C 23.421875 213.828125 19.261719 212.738281 17.367188 209.503906 C 11.765625 199.90625 7.375 189.546875 4.417969 178.640625 C 1.554688 168.035156 0.0273438 156.910156 0.0273438 145.445312 C 0.0273438 110.355469 14.246094 78.578125 37.257812 55.578125 C 60.257812 32.582031 92.035156 18.347656 127.125 18.347656 C 136.300781 18.347656 145.285156 19.328125 153.96875 21.195312 C 155.617188 21.550781 157.253906 21.933594 158.863281 22.355469 L 149.972656 11.257812 Z M 133.941406 155.261719 L 133.941406 158.765625 C 133.941406 162.527344 130.886719 165.582031 127.136719 165.582031 C 123.375 165.582031 120.335938 162.527344 120.335938 158.765625 L 120.335938 155.261719 C 118.316406 154.386719 116.492188 153.148438 114.9375 151.59375 C 111.789062 148.429688 109.839844 144.109375 109.839844 139.367188 C 109.839844 135.601562 112.890625 132.5625 116.65625 132.5625 C 120.417969 132.5625 123.457031 135.617188 123.457031 139.367188 C 123.457031 140.402344 123.867188 141.328125 124.519531 141.996094 C 125.175781 142.652344 126.101562 143.058594 127.136719 143.058594 C 128.175781 143.058594 129.101562 142.652344 129.757812 141.996094 C 130.425781 141.328125 130.820312 140.402344 130.820312 139.367188 C 130.820312 135.601562 133.875 132.5625 137.621094 132.5625 C 141.386719 132.5625 144.425781 135.617188 144.425781 139.367188 C 144.425781 144.109375 142.503906 148.417969 139.355469 151.582031 C 137.785156 153.148438 135.960938 154.386719 133.925781 155.261719 Z M 159.488281 111.171875 C 165.894531 111.839844 171.675781 114.746094 176.011719 119.078125 C 180.972656 124.054688 184.070312 130.914062 184.070312 138.453125 L 184.070312 181.996094 C 184.070312 189.546875 180.988281 196.40625 176.011719 201.367188 C 171.035156 206.34375 164.179688 209.421875 156.625 209.421875 L 97.625 209.421875 C 90.070312 209.421875 83.214844 206.34375 78.25 201.367188 C 73.277344 196.390625 70.195312 189.535156 70.195312 181.996094 L 70.195312 138.453125 C 70.195312 130.898438 73.277344 124.042969 78.25 119.078125 C 82.585938 114.746094 88.355469 111.839844 94.773438 111.171875 L 94.773438 96.4375 C 94.773438 87.535156 98.414062 79.449219 104.277344 73.585938 C 110.136719 67.726562 118.222656 64.085938 127.125 64.085938 C 136.027344 64.085938 144.113281 67.726562 149.972656 73.585938 C 155.835938 79.449219 159.476562 87.535156 159.476562 96.4375 L 159.476562 111.171875 Z M 159.488281 111.171875 " fill-opacity="1" fill-rule="evenodd"/></g></svg>