<svg xmlns="http://www.w3.org/2000/svg" xmlns:xlink="http://www.w3.org/1999/xlink" width="388" zoomAndPan="magnify" viewBox="0 0 291 290.999983" height="388" preserveAspectRatio="xMidYMid meet" version="1.0"><path fill="#000000" d="M 126.226562 50.390625 C 105.480469 50.390625 88.492188 64.195312 88.492188 88.289062 C 88.492188 95.476562 90.042969 102.824219 92.820312 109.441406 C 99.027344 125.121094 111.6875 137.535156 126.226562 137.535156 C 140.925781 137.535156 153.585938 125.121094 159.792969 109.441406 C 162.570312 102.824219 163.957031 95.476562 163.957031 88.289062 C 163.957031 64.195312 147.132812 50.390625 126.226562 50.390625 Z M 126.226562 50.390625 " fill-opacity="1" fill-rule="nonzero"/><path fill="#000000" d="M 283.445312 138.027344 C 273.398438 127.980469 257.148438 127.980469 247.101562 138.027344 L 227.824219 157.300781 L 264.171875 193.644531 L 283.445312 174.371094 C 293.492188 164.40625 293.492188 148.074219 283.445312 138.027344 Z M 283.445312 138.027344 " fill-opacity="1" fill-rule="nonzero"/><path fill="#000000" d="M 150.890625 234.238281 L 130.878906 284.222656 C 130.144531 286.101562 130.554688 288.140625 131.941406 289.53125 C 132.921875 290.511719 134.148438 291 135.371094 291 C 135.945312 291 136.597656 290.917969 137.25 290.671875 L 186.828125 270.988281 L 253.796875 204.183594 L 217.371094 167.753906 Z M 151.460938 270.011719 L 160.527344 246 C 160.9375 247.140625 161.507812 248.121094 162.324219 248.9375 C 163.386719 250 164.691406 250.652344 166.164062 250.980469 C 166.164062 250.980469 167.714844 251.308594 168.367188 251.390625 L 168.941406 251.550781 C 169.265625 251.550781 169.429688 251.796875 169.59375 251.878906 C 169.839844 252.125 169.921875 252.289062 170 252.613281 L 170.082031 253.023438 C 170.246094 253.757812 170.574219 255.308594 170.574219 255.308594 C 170.898438 256.777344 171.554688 258.085938 172.617188 259.148438 C 173.433594 259.964844 174.414062 260.535156 175.554688 260.945312 Z M 151.460938 270.011719 " fill-opacity="1" fill-rule="nonzero"/><path fill="#000000" d="M 128.347656 252.613281 L 138.882812 226.234375 L 197.851562 167.347656 C 196.054688 160.894531 192.707031 154.851562 188.050781 150.195312 C 184.210938 146.519531 179.640625 143.90625 174.65625 142.109375 L 167.46875 140.070312 C 155.953125 151.828125 141.578125 158.609375 126.226562 158.609375 C 111.035156 158.609375 96.660156 151.828125 85.144531 139.90625 L 77.792969 142.109375 C 72.972656 143.90625 68.402344 146.519531 64.5625 150.195312 C 58.84375 155.914062 54.84375 163.753906 53.863281 171.839844 L 50.433594 192.910156 C 34.832031 175.105469 25.195312 151.828125 25.195312 126.347656 C 25.195312 70.566406 70.605469 25.15625 126.386719 25.15625 C 182.171875 25.15625 227.582031 70.566406 227.582031 126.347656 C 227.582031 130.511719 227.253906 134.515625 226.765625 138.515625 L 237.21875 128.0625 C 241.628906 123.570312 246.9375 120.46875 252.492188 118.589844 C 248.40625 52.515625 193.441406 0 126.386719 0 C 56.722656 0 0.0390625 56.679688 0.0390625 126.347656 C 0.0390625 196.015625 56.722656 252.695312 126.386719 252.695312 C 127.042969 252.695312 127.695312 252.613281 128.347656 252.613281 Z M 128.347656 252.613281 " fill-opacity="1" fill-rule="nonzero"/></svg>