<svg xmlns="http://www.w3.org/2000/svg" xmlns:xlink="http://www.w3.org/1999/xlink" width="388" zoomAndPan="magnify" viewBox="0 0 291 290.999983" height="388" preserveAspectRatio="xMidYMid meet" version="1.0"><defs><clipPath id="6b5112fa61"><path d="M 0 1 L 282.75 1 L 282.75 285 L 0 285 Z M 0 1 " clip-rule="nonzero"/></clipPath></defs><g clip-path="url(#6b5112fa61)"><path fill="#000000" d="M 141.003906 1.636719 C 75.5 1.636719 19.984375 46.433594 4.070312 107.523438 C 4.070312 107.894531 4.070312 107.894531 4.070312 108.261719 C 3.332031 110.484375 2.960938 113.078125 2.589844 115.667969 C 2.589844 116.410156 2.21875 117.519531 2.21875 118.257812 C 1.851562 120.109375 1.480469 121.960938 1.480469 123.8125 C 1.480469 124.921875 1.109375 125.664062 1.109375 126.773438 C 0.738281 128.625 0.738281 130.476562 0.738281 132.699219 C 0.738281 133.4375 0.738281 134.179688 0.371094 135.289062 C 0.371094 137.882812 0 140.84375 0 143.433594 C 0 146.398438 0 148.988281 0.371094 151.582031 C 0.371094 152.320312 0.371094 153.0625 0.738281 154.171875 C 0.738281 156.023438 1.109375 158.246094 1.480469 160.09375 C 1.480469 161.207031 1.851562 161.945312 1.851562 162.6875 C 2.21875 164.539062 2.589844 166.390625 2.589844 168.242188 C 2.589844 168.980469 2.960938 170.089844 2.960938 170.832031 C 3.332031 173.421875 4.070312 175.644531 4.441406 178.238281 C 4.441406 178.605469 4.441406 178.605469 4.441406 178.976562 C 20.355469 239.695312 75.5 284.863281 141.375 284.863281 C 219.464844 284.863281 282.75 221.554688 282.75 143.433594 C 282.75 65.316406 219.09375 1.636719 141.003906 1.636719 Z M 127.679688 170.460938 L 16.285156 170.460938 C 16.285156 170.089844 16.285156 170.089844 15.914062 169.722656 C 15.542969 168.609375 15.542969 167.5 15.171875 166.390625 C 14.804688 165.277344 14.804688 164.167969 14.433594 163.425781 C 14.0625 161.945312 14.0625 160.835938 14.0625 159.355469 C 14.0625 158.613281 13.695312 157.875 13.695312 156.761719 C 13.695312 155.28125 13.324219 153.429688 13.324219 151.949219 C 13.324219 151.210938 13.324219 150.839844 13.324219 150.097656 C 13.324219 147.878906 13.324219 145.65625 13.324219 143.433594 C 13.324219 141.214844 13.324219 138.992188 13.324219 136.769531 C 13.324219 136.03125 13.324219 135.660156 13.324219 134.917969 C 13.324219 133.4375 13.695312 131.585938 13.695312 130.105469 C 13.695312 129.367188 14.0625 128.253906 14.0625 127.515625 C 14.0625 126.035156 14.433594 124.921875 14.433594 123.441406 C 14.433594 122.332031 14.804688 121.222656 15.171875 120.109375 C 15.542969 119 15.542969 117.890625 15.914062 116.777344 C 15.914062 116.410156 15.914062 116.410156 16.285156 116.039062 L 127.679688 116.039062 C 131.382812 116.039062 134.34375 113.078125 134.34375 109.375 L 134.34375 83.457031 L 195.410156 142.695312 C 195.777344 143.066406 195.777344 143.433594 196.148438 143.433594 C 196.148438 143.433594 196.148438 143.804688 195.410156 144.175781 L 134.714844 203.042969 L 134.714844 177.125 C 134.714844 173.421875 131.382812 170.460938 127.679688 170.460938 Z M 141.003906 271.164062 C 84.75 271.164062 37.007812 234.511719 19.984375 184.160156 L 121.019531 184.160156 L 121.019531 213.410156 C 121.019531 213.777344 121.019531 213.777344 121.019531 214.148438 C 121.761719 220.8125 126.203125 223.035156 129.53125 223.035156 C 133.601562 223.035156 136.195312 220.441406 137.304688 219.332031 L 205.03125 153.800781 C 209.101562 150.097656 209.84375 146.027344 209.84375 143.433594 C 209.84375 137.882812 206.511719 134.179688 205.03125 132.699219 L 136.933594 66.796875 C 135.824219 66.058594 133.234375 63.09375 129.160156 63.09375 C 125.832031 63.09375 121.761719 65.316406 120.648438 71.242188 C 120.648438 71.609375 120.648438 71.980469 120.648438 72.351562 L 120.648438 102.710938 L 19.984375 102.710938 C 37.007812 51.988281 84.75 15.335938 141.003906 15.335938 C 211.324219 15.335938 268.6875 72.722656 268.6875 143.066406 C 268.6875 213.410156 211.324219 271.164062 141.003906 271.164062 Z M 141.003906 271.164062 " fill-opacity="1" fill-rule="nonzero"/></g></svg>