<svg xmlns="http://www.w3.org/2000/svg" xmlns:xlink="http://www.w3.org/1999/xlink" width="388" zoomAndPan="magnify" viewBox="0 0 291 290.999983" height="388" preserveAspectRatio="xMidYMid meet" version="1.0"><path fill="#000000" d="M 280.402344 168.257812 C 286.109375 168.257812 290.78125 163.585938 290.78125 157.878906 L 290.78125 132.777344 C 290.78125 127.066406 286.109375 122.394531 280.402344 122.394531 L 269.625 122.394531 C 263.914062 122.394531 257.871094 117.929688 256.191406 112.472656 L 246.992188 90.144531 C 244.292969 85.113281 245.386719 77.695312 249.421875 73.660156 L 257.050781 66.03125 C 261.085938 61.992188 261.089844 55.386719 257.050781 51.347656 L 239.304688 33.601562 C 235.265625 29.5625 228.660156 29.5625 224.625 33.601562 L 216.992188 41.230469 C 212.957031 45.269531 205.535156 46.359375 200.507812 43.65625 L 178.179688 34.464844 C 172.722656 32.785156 168.257812 26.738281 168.257812 21.03125 L 168.257812 10.253906 C 168.257812 4.542969 163.585938 -0.128906 157.878906 -0.128906 L 132.777344 -0.128906 C 127.066406 -0.128906 122.398438 4.542969 122.398438 10.253906 L 122.398438 21.03125 C 122.398438 26.738281 117.929688 32.785156 112.476562 34.464844 L 90.148438 43.65625 C 85.117188 46.359375 77.699219 45.265625 73.664062 41.226562 L 66.035156 33.597656 C 61.996094 29.558594 55.390625 29.558594 51.351562 33.597656 L 33.605469 51.34375 C 29.566406 55.382812 29.566406 61.988281 33.605469 66.027344 L 41.238281 73.65625 C 45.277344 77.695312 46.367188 85.113281 43.667969 90.144531 L 34.46875 112.472656 C 32.792969 117.929688 26.746094 122.394531 21.039062 122.394531 L 10.261719 122.394531 C 4.554688 122.394531 -0.117188 127.0625 -0.117188 132.773438 L -0.117188 157.878906 C -0.117188 163.585938 4.554688 168.257812 10.261719 168.257812 L 21.039062 168.257812 C 26.746094 168.257812 32.792969 172.722656 34.46875 178.179688 L 43.671875 200.507812 C 46.375 205.539062 45.28125 212.960938 41.242188 216.992188 L 33.609375 224.628906 C 29.570312 228.660156 29.570312 235.265625 33.609375 239.304688 L 51.351562 257.050781 C 55.390625 261.089844 61.996094 261.085938 66.035156 257.050781 L 73.667969 249.417969 C 77.703125 245.382812 85.125 244.292969 90.152344 246.992188 L 112.480469 256.191406 C 117.9375 257.867188 122.398438 263.910156 122.398438 269.621094 L 122.398438 280.402344 C 122.398438 286.109375 127.070312 290.78125 132.78125 290.78125 L 157.878906 290.78125 C 163.589844 290.78125 168.261719 286.109375 168.261719 280.402344 L 168.261719 269.621094 C 168.261719 263.910156 172.726562 257.867188 178.179688 256.1875 L 200.511719 246.992188 C 205.539062 244.292969 212.960938 245.382812 216.992188 249.417969 L 224.628906 257.050781 C 228.664062 261.089844 235.273438 261.085938 239.308594 257.050781 L 257.054688 239.304688 C 261.089844 235.269531 261.09375 228.660156 257.054688 224.625 L 249.425781 216.992188 C 245.386719 212.957031 244.296875 205.535156 246.996094 200.507812 L 256.191406 178.179688 C 257.867188 172.722656 263.914062 168.257812 269.625 168.257812 Z M 145.328125 205.167969 C 112.277344 205.167969 85.488281 178.375 85.488281 145.328125 C 85.488281 112.277344 112.277344 85.484375 145.328125 85.484375 C 178.375 85.484375 205.171875 112.277344 205.171875 145.328125 C 205.171875 178.375 178.375 205.167969 145.328125 205.167969 Z M 145.328125 205.167969 " fill-opacity="1" fill-rule="nonzero"/></svg>